<?xml version="1.0" encoding="utf-8"?>
<!-- Generator: Adobe Illustrator 18.1.1, SVG Export Plug-In . SVG Version: 6.00 Build 0)  -->
<svg version="1.1" id="Capa_1" xmlns="http://www.w3.org/2000/svg" xmlns:xlink="http://www.w3.org/1999/xlink" x="0px" y="0px"
	 viewBox="0 0 1400 980" enable-background="new 0 0 1400 980" xml:space="preserve">
<g>
	<g>
		<g>
			<path fill="#210E14" d="M463.7,272.1c0.2-2.5-0.1-4.9-0.8-7.1c-0.8-2.2-2-4.2-3.5-5.8c-3-3.3-7.3-5.2-12-5.2
				c-4.8,0-9.1,1.8-12.3,4.6c-1.6,1.4-2.9,3-3.8,4.8c-1,1.8-1.6,3.7-1.8,5.8c-0.1,1,0,2.1,0.1,3.1c0.1,1,0.3,2,0.6,2.9
				c0.6,1.9,1.7,3.7,3,5.4c1.4,1.6,3,3.1,4.9,4.2c1.9,1.1,4,2,6.4,2.4c2.3,0.4,4.7,0.3,6.8-0.2c2.2-0.5,4.3-1.5,6-2.9
				c1.7-1.4,3.2-3.1,4.4-5.1c0.6-1,1-2.1,1.4-3.2C463.4,274.6,463.6,273.3,463.7,272.1z"/>
		</g>
		<g>
			<path fill="#210E14" d="M438.8,311c0.7-2.3,0.3-4.7-0.9-6.6c-1.2-1.9-3.1-3.4-5.5-4c-2.4-0.6-4.9-0.3-6.8,0.7
				c-2,1-3.5,2.6-4.1,4.7c-0.3,1.1-0.4,2.1-0.3,3.2c0.1,1,0.5,2.1,1,3c1.1,1.9,2.9,3.5,5.3,4.4c2.4,0.8,4.8,0.7,6.9-0.3
				c1-0.5,2-1.2,2.7-2C437.9,313.2,438.5,312.2,438.8,311z"/>
		</g>
		<g>
			<path fill="#210E14" d="M429.1,353.3c1.6-2.6,1.7-5.6,0.8-8.3c-0.9-2.6-2.8-4.9-5.5-6.2c-2.7-1.3-5.7-1.5-8.2-0.8
				c-2.6,0.7-4.7,2.3-6.1,4.6c-1.4,2.3-1.5,5.1-0.7,7.6c0.7,2.5,2.4,5,4.9,6.6c2.5,1.6,5.5,2.1,8.2,1.5
				C425.2,357.7,427.5,355.9,429.1,353.3z"/>
		</g>
		<g>
			<path fill="#210E14" d="M408.9,392.9c1.2-1.3,2-2.9,2.5-4.4c0.3-0.8,0.4-1.6,0.5-2.4c0.1-0.8,0.1-1.6,0-2.4
				c-0.3-3.2-1.9-6.2-4.6-8.3c-2.7-2.1-6-3-9-2.7c-0.8,0.1-1.5,0.2-2.2,0.4c-0.7,0.2-1.5,0.4-2.2,0.7c-1.4,0.6-2.6,1.5-3.6,2.7
				c-0.5,0.6-0.9,1.2-1.3,1.9c-0.4,0.7-0.7,1.3-0.9,2c-0.5,1.4-0.7,2.9-0.6,4.5c0.2,3.1,1.5,6.2,3.9,8.7c2.4,2.4,5.6,3.6,8.8,3.5
				c1.6,0,3.2-0.4,4.7-1.1c0.8-0.3,1.5-0.8,2.2-1.3C407.7,394.1,408.4,393.5,408.9,392.9z"/>
		</g>
	</g>
	<g>
		<g>
			<path fill="#210E14" d="M388.9,416.6c1.9-1.6,3.4-3.6,4.4-5.6c1-2.1,1.5-4.4,1.6-6.6c0.2-4.5-1.5-8.8-4.9-12.2
				c-3.4-3.4-7.7-5.1-11.9-5.5c-2.1-0.2-4.1,0.1-6.1,0.7c-2,0.5-3.8,1.5-5.4,2.9c-1.6,1.4-2.9,3-3.7,4.8c-0.9,1.8-1.4,3.9-1.6,6
				c-0.4,4.1,0.6,8.7,3.3,12.6c2.7,3.9,6.8,6.3,11.3,6.9c2.2,0.3,4.5,0.1,6.7-0.6C384.8,419.3,387.1,418.3,388.9,416.6z"/>
		</g>
		<g>
			<path fill="#210E14" d="M343.8,426.5c1.1-0.5,2-1.3,2.6-2.3c0.7-0.9,1.2-2,1.4-3.1c0.5-2.2,0.2-4.6-1.1-6.8
				c-1.3-2.2-3.2-3.6-5.3-4.3c-1-0.3-2.1-0.5-3.2-0.4c-1,0.1-2.1,0.4-3.1,0.9c-2,1-3.2,2.8-3.8,4.9c-0.3,1.1-0.4,2.2-0.3,3.4
				c0.1,1.1,0.4,2.3,0.9,3.4c0.5,1.1,1.3,2.1,2.1,2.9c0.9,0.8,1.8,1.4,2.9,1.8C339.2,427.7,341.7,427.6,343.8,426.5z"/>
		</g>
		<g>
			<path fill="#210E14" d="M307,449.5c2.9-0.8,5.2-2.7,6.4-5.2c1.2-2.5,1.5-5.4,0.5-8.3c-1-2.8-2.9-5.1-5.2-6.3
				c-2.3-1.2-5-1.8-7.6-1.1c-1.3,0.4-2.4,1-3.4,1.9c-1,0.8-1.8,1.8-2.5,3c-1.3,2.3-1.8,5.2-1.2,8.2c0.7,2.9,2.4,5.3,4.7,6.8
				c1.2,0.7,2.5,1.3,3.9,1.5C304,450,305.5,449.9,307,449.5z"/>
		</g>
		<g>
			<path fill="#210E14" d="M264.8,463.2c3.6-0.3,6.7-1.9,8.7-4.3c2-2.5,3-5.8,2.6-9.2c-0.4-3.4-2.1-6.3-4.4-8.3
				c-2.3-2-5.3-3.2-8.4-3c-1.6,0.2-3,0.5-4.4,1.2c-1.3,0.7-2.6,1.6-3.6,2.8c-2.1,2.3-3.4,5.4-3.4,8.9c0,3.4,1.4,6.5,3.7,8.7
				c1.2,1.1,2.6,2,4.1,2.6C261.3,463.1,263,463.4,264.8,463.2z"/>
		</g>
	</g>
	<g>
		<g>
			<path fill="#210E14" d="M233.9,465.8c2.5,0.2,4.9-0.1,7.1-0.8c2.2-0.8,4.2-2,5.8-3.5c3.3-3,5.2-7.3,5.2-12
				c0-4.8-1.8-9.1-4.6-12.3c-1.4-1.6-3-2.9-4.8-3.8c-1.8-1-3.7-1.6-5.8-1.8c-1-0.1-2.1,0-3.1,0.1c-1,0.1-2,0.3-2.9,0.6
				c-1.9,0.6-3.7,1.7-5.4,3c-1.6,1.4-3.1,3-4.2,4.9c-1.1,1.9-2,4-2.4,6.4c-0.4,2.3-0.3,4.7,0.2,6.8c0.5,2.2,1.5,4.3,2.9,6
				c1.4,1.7,3.1,3.2,5.1,4.4c1,0.6,2.1,1,3.2,1.4C231.4,465.5,232.6,465.7,233.9,465.8z"/>
		</g>
		<g>
			<path fill="#210E14" d="M195,441c2.3,0.7,4.7,0.3,6.6-0.9c1.9-1.2,3.4-3.1,4-5.5c0.6-2.4,0.3-4.9-0.7-6.8c-1-2-2.6-3.5-4.7-4.1
				c-1.1-0.3-2.1-0.4-3.2-0.3c-1,0.1-2.1,0.5-3,1c-1.9,1.1-3.5,2.9-4.4,5.3c-0.8,2.4-0.7,4.8,0.3,6.9c0.5,1,1.2,2,2,2.7
				C192.8,440,193.8,440.6,195,441z"/>
		</g>
		<g>
			<path fill="#210E14" d="M152.6,431.2c2.6,1.6,5.6,1.7,8.3,0.8c2.6-0.9,4.9-2.8,6.2-5.5c1.3-2.7,1.5-5.7,0.8-8.2
				c-0.7-2.6-2.3-4.7-4.6-6.1c-2.3-1.4-5.1-1.5-7.6-0.7c-2.5,0.7-5,2.4-6.6,4.9c-1.6,2.5-2.1,5.5-1.5,8.2
				C148.2,427.3,150,429.6,152.6,431.2z"/>
		</g>
		<g>
			<path fill="#210E14" d="M113.1,411.1c1.3,1.2,2.9,2,4.4,2.5c0.8,0.3,1.6,0.4,2.4,0.5c0.8,0.1,1.6,0.1,2.4,0
				c3.2-0.3,6.2-1.9,8.3-4.6c2.1-2.7,3-6,2.7-9c-0.1-0.8-0.2-1.5-0.4-2.2c-0.2-0.7-0.4-1.5-0.7-2.2c-0.6-1.4-1.5-2.6-2.7-3.6
				c-0.6-0.5-1.2-0.9-1.9-1.3c-0.7-0.4-1.3-0.7-2-0.9c-1.4-0.5-2.9-0.7-4.5-0.6c-3.1,0.2-6.2,1.5-8.7,3.9c-2.4,2.4-3.6,5.6-3.5,8.8
				c0,1.6,0.4,3.2,1.1,4.7c0.3,0.8,0.8,1.5,1.3,2.2C111.8,409.8,112.4,410.5,113.1,411.1z"/>
		</g>
	</g>
	<g>
		<g>
			<path fill="#210E14" d="M89.4,391c1.6,1.9,3.6,3.4,5.6,4.4c2.1,1,4.4,1.5,6.6,1.6c4.5,0.2,8.8-1.5,12.2-4.9
				c3.4-3.4,5.1-7.7,5.5-11.9c0.2-2.1-0.1-4.1-0.7-6.1c-0.5-2-1.5-3.8-2.9-5.4c-1.4-1.6-3-2.9-4.8-3.7c-1.8-0.9-3.9-1.4-6-1.6
				c-4.1-0.4-8.7,0.6-12.6,3.3c-3.9,2.7-6.3,6.8-6.9,11.3c-0.3,2.2-0.1,4.5,0.6,6.7C86.7,386.9,87.7,389.2,89.4,391z"/>
		</g>
		<g>
			<path fill="#210E14" d="M79.5,345.9c0.5,1.1,1.3,2,2.3,2.6c0.9,0.7,2,1.2,3.1,1.4c2.2,0.5,4.6,0.2,6.8-1.1
				c2.2-1.3,3.6-3.2,4.3-5.3c0.3-1,0.5-2.1,0.4-3.2c-0.1-1-0.4-2.1-0.9-3.1c-1-2-2.8-3.2-4.9-3.8c-1.1-0.3-2.2-0.4-3.4-0.3
				c-1.1,0.1-2.3,0.4-3.4,0.9c-1.1,0.5-2.1,1.3-2.9,2.1c-0.8,0.9-1.4,1.8-1.8,2.9C78.3,341.3,78.4,343.8,79.5,345.9z"/>
		</g>
		<g>
			<path fill="#210E14" d="M56.5,309.1c0.8,2.9,2.7,5.2,5.2,6.4c2.5,1.2,5.4,1.5,8.3,0.5c2.8-1,5.1-2.9,6.3-5.2
				c1.2-2.3,1.8-5,1.1-7.6c-0.4-1.3-1-2.4-1.9-3.4c-0.8-1-1.8-1.8-3-2.5c-2.3-1.3-5.2-1.8-8.2-1.2c-2.9,0.7-5.3,2.4-6.8,4.7
				c-0.7,1.2-1.3,2.5-1.5,3.9C56,306.2,56.1,307.6,56.5,309.1z"/>
		</g>
		<g>
			<path fill="#210E14" d="M42.7,266.9c0.3,3.6,1.9,6.7,4.3,8.7c2.5,2,5.8,3,9.2,2.6c3.4-0.4,6.3-2.1,8.3-4.4c2-2.3,3.2-5.3,3-8.4
				c-0.2-1.6-0.5-3-1.2-4.4c-0.7-1.3-1.6-2.6-2.8-3.6c-2.3-2.1-5.4-3.4-8.9-3.4c-3.4,0-6.5,1.4-8.7,3.7c-1.1,1.2-2,2.6-2.6,4.1
				C42.9,263.4,42.6,265.1,42.7,266.9z"/>
		</g>
	</g>
	<g>
		<g>
			<path fill="#210E14" d="M40.1,236c-0.2,2.5,0.1,4.9,0.8,7.1c0.8,2.2,2,4.2,3.5,5.8c3,3.3,7.3,5.2,12,5.2c4.8,0,9.1-1.8,12.3-4.6
				c1.6-1.4,2.9-3,3.8-4.8c1-1.8,1.6-3.7,1.8-5.8c0.1-1,0-2.1-0.1-3.1c-0.1-1-0.3-2-0.6-2.9c-0.6-1.9-1.7-3.7-3-5.4
				c-1.4-1.6-3-3.1-4.9-4.2c-1.9-1.1-4-2-6.4-2.4c-2.3-0.4-4.7-0.3-6.8,0.2c-2.2,0.5-4.3,1.5-6,2.9c-1.7,1.4-3.2,3.1-4.4,5.1
				c-0.6,1-1,2.1-1.4,3.2C40.5,233.5,40.2,234.7,40.1,236z"/>
		</g>
		<g>
			<path fill="#210E14" d="M65,197.1c-0.7,2.3-0.3,4.7,0.9,6.6c1.2,1.9,3.1,3.4,5.5,4c2.4,0.6,4.9,0.3,6.8-0.7c2-1,3.5-2.6,4.1-4.7
				c0.3-1.1,0.4-2.1,0.3-3.2c-0.1-1-0.5-2.1-1-3c-1.1-1.9-2.9-3.5-5.3-4.4c-2.4-0.8-4.8-0.7-6.9,0.3c-1,0.5-2,1.2-2.7,2
				C66,194.9,65.3,195.9,65,197.1z"/>
		</g>
		<g>
			<path fill="#210E14" d="M74.8,154.7c-1.6,2.6-1.7,5.6-0.8,8.3c0.9,2.6,2.8,4.9,5.5,6.2c2.7,1.3,5.7,1.5,8.2,0.8
				c2.6-0.7,4.7-2.3,6.1-4.6c1.4-2.3,1.5-5.1,0.7-7.6c-0.7-2.5-2.4-5-4.9-6.6c-2.5-1.6-5.5-2.1-8.2-1.5
				C78.7,150.3,76.3,152.1,74.8,154.7z"/>
		</g>
		<g>
			<path fill="#210E14" d="M94.9,115.2c-1.2,1.3-2,2.9-2.5,4.4c-0.3,0.8-0.4,1.6-0.5,2.4c-0.1,0.8-0.1,1.6,0,2.4
				c0.3,3.2,1.9,6.2,4.6,8.3c2.7,2.1,6,3,9,2.7c0.8-0.1,1.5-0.2,2.2-0.4c0.7-0.2,1.5-0.4,2.2-0.7c1.4-0.6,2.6-1.5,3.6-2.7
				c0.5-0.6,0.9-1.2,1.3-1.9c0.4-0.7,0.7-1.3,0.9-2c0.5-1.4,0.7-2.9,0.6-4.5c-0.2-3.1-1.5-6.2-3.9-8.7c-2.4-2.4-5.6-3.6-8.8-3.5
				c-1.6,0-3.2,0.4-4.7,1.1c-0.8,0.3-1.5,0.8-2.2,1.3C96.1,114,95.5,114.6,94.9,115.2z"/>
		</g>
	</g>
	<g>
		<g>
			<path fill="#210E14" d="M114.9,91.5c-1.9,1.6-3.4,3.6-4.4,5.6c-1,2.1-1.5,4.4-1.6,6.6c-0.2,4.5,1.5,8.8,4.9,12.2
				c3.4,3.4,7.7,5.1,11.9,5.5c2.1,0.2,4.1-0.1,6.1-0.7c2-0.5,3.8-1.5,5.4-2.9c1.6-1.4,2.9-3,3.7-4.8c0.9-1.8,1.4-3.9,1.6-6
				c0.4-4.1-0.6-8.7-3.3-12.6c-2.7-3.9-6.8-6.3-11.3-6.9c-2.2-0.3-4.5-0.1-6.7,0.6C119,88.8,116.8,89.8,114.9,91.5z"/>
		</g>
		<g>
			<path fill="#210E14" d="M160.1,81.6c-1.1,0.5-2,1.3-2.6,2.3c-0.7,0.9-1.2,2-1.4,3.1c-0.5,2.2-0.2,4.6,1.1,6.8
				c1.3,2.2,3.2,3.6,5.3,4.3c1,0.3,2.1,0.5,3.2,0.4c1-0.1,2.1-0.4,3.1-0.9c2-1,3.2-2.8,3.8-4.9c0.3-1.1,0.4-2.2,0.3-3.4
				c-0.1-1.1-0.4-2.3-0.9-3.4c-0.5-1.1-1.3-2.1-2.1-2.9c-0.9-0.8-1.8-1.4-2.9-1.8C164.6,80.4,162.2,80.5,160.1,81.6z"/>
		</g>
		<g>
			<path fill="#210E14" d="M196.9,58.6c-2.9,0.8-5.2,2.7-6.4,5.2c-1.2,2.5-1.5,5.4-0.5,8.3c1,2.8,2.9,5.1,5.2,6.3
				c2.3,1.2,5,1.8,7.6,1.1c1.3-0.4,2.4-1,3.4-1.9c1-0.8,1.8-1.8,2.5-3c1.3-2.3,1.8-5.2,1.2-8.2c-0.7-2.9-2.4-5.3-4.7-6.8
				c-1.2-0.7-2.5-1.3-3.9-1.5C199.8,58.1,198.4,58.2,196.9,58.6z"/>
		</g>
		<g>
			<path fill="#210E14" d="M239.1,44.8c-3.6,0.3-6.7,1.9-8.7,4.3c-2,2.5-3,5.8-2.6,9.2c0.4,3.4,2.1,6.3,4.4,8.3c2.3,2,5.3,3.2,8.4,3
				c1.6-0.2,3-0.5,4.4-1.2c1.3-0.7,2.6-1.6,3.6-2.8c2.1-2.3,3.4-5.4,3.4-8.9c0-3.4-1.4-6.5-3.7-8.7c-1.2-1.1-2.6-2-4.1-2.6
				C242.5,45,240.8,44.7,239.1,44.8z"/>
		</g>
	</g>
	<g>
		<g>
			<path fill="#210E14" d="M270,42.3c-2.5-0.2-4.9,0.1-7.1,0.8c-2.2,0.8-4.2,2-5.8,3.5c-3.3,3-5.2,7.3-5.2,12
				c0,4.8,1.8,9.1,4.6,12.3c1.4,1.6,3,2.9,4.8,3.8c1.8,1,3.7,1.6,5.8,1.8c1,0.1,2.1,0,3.1-0.1c1-0.1,2-0.3,2.9-0.6
				c1.9-0.6,3.7-1.7,5.4-3c1.6-1.4,3.1-3,4.2-4.9c1.1-1.9,2-4,2.4-6.4c0.4-2.3,0.3-4.7-0.2-6.8c-0.5-2.2-1.5-4.3-2.9-6
				c-1.4-1.7-3.1-3.2-5.1-4.4c-1-0.6-2.1-1-3.2-1.4C272.4,42.6,271.2,42.3,270,42.3z"/>
		</g>
		<g>
			<path fill="#210E14" d="M308.9,67.1c-2.3-0.7-4.7-0.3-6.6,0.9c-1.9,1.2-3.4,3.1-4,5.5c-0.6,2.4-0.3,4.9,0.7,6.8
				c1,2,2.6,3.5,4.7,4.1c1.1,0.3,2.1,0.4,3.2,0.3c1-0.1,2.1-0.5,3-1c1.9-1.1,3.5-2.9,4.4-5.3c0.8-2.4,0.7-4.8-0.3-6.9
				c-0.5-1-1.2-2-2-2.7C311.1,68.1,310.1,67.4,308.9,67.1z"/>
		</g>
		<g>
			<path fill="#210E14" d="M351.2,76.9c-2.6-1.6-5.6-1.7-8.3-0.8c-2.6,0.9-4.9,2.8-6.2,5.5c-1.3,2.7-1.5,5.7-0.8,8.2
				c0.7,2.6,2.3,4.7,4.6,6.1c2.3,1.4,5.1,1.5,7.6,0.7c2.5-0.7,5-2.4,6.6-4.9c1.6-2.5,2.1-5.5,1.5-8.2
				C355.6,80.8,353.8,78.4,351.2,76.9z"/>
		</g>
		<g>
			<path fill="#210E14" d="M390.7,97c-1.3-1.2-2.9-2-4.4-2.5c-0.8-0.3-1.6-0.4-2.4-0.5c-0.8-0.1-1.6-0.1-2.4,0
				c-3.2,0.3-6.2,1.9-8.3,4.6c-2.1,2.7-3,6-2.7,9c0.1,0.8,0.2,1.5,0.4,2.2c0.2,0.7,0.4,1.5,0.7,2.2c0.6,1.4,1.5,2.6,2.7,3.6
				c0.6,0.5,1.2,0.9,1.9,1.3c0.7,0.4,1.3,0.7,2,0.9c1.4,0.5,2.9,0.7,4.5,0.6c3.1-0.2,6.2-1.5,8.7-3.9c2.4-2.4,3.6-5.6,3.5-8.8
				c0-1.6-0.4-3.2-1.1-4.7c-0.3-0.8-0.8-1.5-1.3-2.2C392,98.2,391.4,97.6,390.7,97z"/>
		</g>
	</g>
	<g>
		<g>
			<path fill="#210E14" d="M414.5,117.1c-1.6-1.9-3.6-3.4-5.6-4.4c-2.1-1-4.4-1.5-6.6-1.6c-4.5-0.2-8.8,1.5-12.2,4.9
				c-3.4,3.4-5.1,7.7-5.5,11.9c-0.2,2.1,0.1,4.1,0.7,6.1c0.5,2,1.5,3.8,2.9,5.4c1.4,1.6,3,2.9,4.8,3.7c1.8,0.9,3.9,1.4,6,1.6
				c4.1,0.4,8.7-0.6,12.6-3.3c3.9-2.7,6.3-6.8,6.9-11.3c0.3-2.2,0.1-4.5-0.6-6.7C417.2,121.1,416.1,118.9,414.5,117.1z"/>
		</g>
		<g>
			<path fill="#210E14" d="M424.4,162.2c-0.5-1.1-1.3-2-2.3-2.6c-0.9-0.7-2-1.2-3.1-1.4c-2.2-0.5-4.6-0.2-6.8,1.1
				c-2.2,1.3-3.6,3.2-4.3,5.3c-0.3,1-0.5,2.1-0.4,3.2c0.1,1,0.4,2.1,0.9,3.1c1,2,2.8,3.2,4.9,3.8c1.1,0.3,2.2,0.4,3.4,0.3
				c1.1-0.1,2.3-0.4,3.4-0.9c1.1-0.5,2.1-1.3,2.9-2.1c0.8-0.9,1.4-1.8,1.8-2.9C425.6,166.7,425.5,164.3,424.4,162.2z"/>
		</g>
		<g>
			<path fill="#210E14" d="M447.4,199c-0.8-2.9-2.7-5.2-5.2-6.4c-2.5-1.2-5.4-1.5-8.3-0.5c-2.8,1-5.1,2.9-6.3,5.2
				c-1.2,2.3-1.8,5-1.1,7.6c0.4,1.3,1,2.4,1.9,3.4c0.8,1,1.8,1.8,3,2.5c2.3,1.3,5.2,1.8,8.2,1.2c2.9-0.7,5.3-2.4,6.8-4.7
				c0.7-1.2,1.3-2.5,1.5-3.9C447.9,201.9,447.8,200.5,447.4,199z"/>
		</g>
		<g>
			<path fill="#210E14" d="M461.1,241.2c-0.3-3.6-1.9-6.7-4.3-8.7c-2.5-2-5.8-3-9.2-2.6c-3.4,0.4-6.3,2.1-8.3,4.4
				c-2,2.3-3.2,5.3-3,8.4c0.2,1.6,0.5,3,1.2,4.4c0.7,1.3,1.6,2.6,2.8,3.6c2.3,2.1,5.4,3.4,8.9,3.4c3.4,0,6.5-1.4,8.7-3.7
				c1.1-1.2,2-2.6,2.6-4.1C461,244.7,461.3,242.9,461.1,241.2z"/>
		</g>
	</g>
</g>
<g>
	<g>
		<path fill="#210E14" d="M869.1,391c0,1.1,0.9,1.5,1.8,1.4c0.4-0.1,0.9-0.3,1.2-0.6c0.3-0.3,0.5-0.8,0.5-1.4
			c-0.8-12.7-0.3-24.9,1.1-36.6c0.3-3,0.8-5.8,1.2-8.7c0.4-2.9,0.9-5.7,1.6-8.5c0.5-2.8,1.1-5.6,1.9-8.4c0.7-2.8,1.4-5.5,2.2-8.2
			c3.2-10.8,7.3-21.4,12.5-31.8c5.2-10.4,11.5-20.7,19-31c1.3-1.8-0.7-4.5-2.1-2.7c-7.7,10.6-14.1,21.2-19.4,31.9
			c-5.3,10.7-9.6,21.4-12.9,32.4c-3.3,11-5.7,22.5-7.2,34.4C869,365.3,868.4,377.9,869.1,391z"/>
		<path fill="#210E14" d="M905.5,294.7c0.8-1.6,2.6-1,2.9,0.4c0.2,0.1,0.5,0.3,0.6,0.7c3.7,10.3,3.3,21.6,0.1,32.3
			c-3.3,10.7-9.2,20.9-15.8,30.1c-0.9,1.2-3,1.5-3-0.3c0-1.4,0-2.8,0-4.2c0-1.4,0-2.8,0-4.2c0-1.4,0.1-2.8,0.2-4.1
			c0.1-0.7,0.1-1.4,0.2-2c0.1-0.7,0.1-1.4,0.2-2.1c0.2-2.7,0.6-5.4,1.1-8.1c0.4-2.7,0.9-5.4,1.6-8
			C896.2,314.7,900,304.6,905.5,294.7z M893.6,352.3c1.3-2,2.6-4,3.9-6c1.2-2.1,2.3-4.2,3.5-6.3c0.5-1.1,1.1-2.1,1.6-3.2
			c0.5-1.1,0.9-2.2,1.4-3.3c0.9-2.2,1.7-4.5,2.4-6.7c1.2-4.6,2.2-9.2,2.2-13.8c0-2.3,0-4.6-0.3-6.9c-0.3-2.3-0.8-4.5-1.5-6.7
			c-1.1,2.1-2.1,4.2-3,6.3c-1,2.1-1.9,4.2-2.7,6.4c-0.4,1.1-0.7,2.2-1.1,3.2c-0.4,1.1-0.8,2.2-1.1,3.2c-0.7,2.2-1.2,4.4-1.8,6.6
			c-1.2,4.4-1.9,8.9-2.5,13.4c-0.3,2.3-0.5,4.6-0.6,6.9C893.7,347.7,893.6,350,893.6,352.3z"/>
		<path fill="#210E14" d="M759.2,419.2c-1.7-1-0.4-3.9,1.3-2.9c4.9,3.1,10.1,5.1,15.6,6.6c5.4,1.3,11.2,2,17,1.7
			c11.6-0.4,23.3-4.2,33.5-10.7c10.2-6.5,18.8-15.7,24.4-26.4c5.6-10.7,8.1-22.7,7-34.3c-0.2-2,2.9-2.9,3.1-0.8
			c1.2,12.2-1.3,24.8-7.1,36c-5.8,11.2-14.7,21.1-25.4,28c-10.7,7-23.1,11-35.2,11.5c-1.5,0.1-3,0.1-4.5,0.1c-1.5-0.1-3-0.2-4.5-0.3
			c-3-0.3-5.9-0.7-8.8-1.5c-2.9-0.8-5.7-1.7-8.4-2.8C764.3,422.1,761.7,420.8,759.2,419.2z"/>
		<path fill="#210E14" d="M789.4,408.1c-1.5-0.2-1.3-2.2-0.4-2.9c7.4-5.4,14.3-11.4,21.8-16.2c3.8-2.3,7.5-4.6,11.7-6.3
			c4.1-1.9,8.6-3.1,13.5-4.1c0.4-0.1,0.7,0,0.9,0.1c1.1-0.4,2.7,0.8,2,2.2c-4.5,9.3-11.8,17.1-20.7,21.8
			C809.3,407.6,799.2,409.5,789.4,408.1z M834.7,382.2c-2,0.4-4.1,0.9-6,1.5c-1,0.3-1.9,0.6-2.8,1c-0.9,0.4-1.8,0.7-2.7,1.1
			c-3.6,1.5-6.9,3.5-10.2,5.5c-0.8,0.5-1.6,1.1-2.4,1.6l-1.2,0.9l-1.2,0.8c-1.6,1.1-3.2,2.3-4.7,3.5c-1.5,1.2-3.2,2.3-4.7,3.6
			c-0.8,0.6-1.5,1.2-2.3,1.9c-0.8,0.6-1.6,1.2-2.4,1.8C810.3,406.3,826.5,396.9,834.7,382.2z"/>
	</g>
	<g>
		<path fill="#210E14" d="M625.5,452.4c-2.1,0.8-0.5,3.9,1.6,3.1c1.5-0.6,2.9-1.1,4.4-1.6c1.5-0.5,3-1.1,4.4-1.6
			c3-1,5.9-1.9,8.8-2.7c3-0.9,5.9-1.7,8.8-2.3c1.4-0.3,2.9-0.7,4.4-1c1.5-0.3,2.9-0.6,4.3-0.9c11.6-2.3,22.9-3.6,34.2-3.9
			c2.8-0.1,5.7-0.1,8.5,0c2.8,0,5.7,0.1,8.5,0.3c5.7,0.3,11.4,1,17.1,1.8c11.5,1.7,23.3,4.5,35.3,8.6c2.1,0.7,4.1-2.2,1.9-2.9
			c-12.5-4.1-24.5-6.9-36.3-8.7c-11.8-1.8-23.3-2.5-34.8-2.3c-11.5,0.2-23.1,1.5-35,3.8C649.9,444.4,637.7,447.8,625.5,452.4z"/>
		<path fill="#210E14" d="M728.4,457.1c1.7,0.3,1.7,2.2,0.6,2.9c-0.1,0.3-0.2,0.6-0.5,0.8c-8.7,6.7-19.5,9.9-30.7,10
			c-11.2,0.2-22.7-2-33.5-5.6c-1.4-0.4-2.4-2.3-0.7-2.9c10.6-3.8,21.3-6.2,32.1-7C706.4,454.5,717.2,455,728.4,457.1z M669.9,463.7
			c1.1,0.3,2.3,0.7,3.4,1c1.2,0.3,2.3,0.5,3.5,0.8c2.3,0.5,4.7,1,7.1,1.4c2.4,0.3,4.8,0.6,7.2,0.8c1.2,0.1,2.4,0.2,3.6,0.2
			c1.2,0,2.4,0,3.6-0.1c2.4-0.1,4.7-0.3,7-0.6c2.3-0.4,4.6-0.9,6.8-1.6c1.1-0.3,2.2-0.7,3.3-1.1c1.1-0.4,2.1-0.9,3.2-1.4
			c2.1-1,4-2.2,5.9-3.5c-2.3-0.4-4.6-0.7-6.9-0.9l-1.7-0.1l-1.7-0.2c-1.1-0.1-2.3-0.2-3.4-0.2c-1.1-0.1-2.3-0.1-3.4-0.1
			c-1.1,0-2.3,0-3.4,0c-2.3,0-4.6,0.1-6.8,0.3c-2.3,0.2-4.5,0.4-6.8,0.7c-2.3,0.3-4.5,0.7-6.8,1.1c-2.2,0.4-4.5,0.9-6.7,1.5
			c-1.1,0.3-2.2,0.6-3.4,1C672.1,463,671,463.4,669.9,463.7z"/>
		<path fill="#210E14" d="M564.7,356.5c0.5-2,3.6-1.6,3.1,0.4c-2.6,11-1.8,22.7,2.2,33.6c4,10.9,11.2,20.9,20.5,28.6
			c9.3,7.7,20.8,13,32.6,15c3,0.5,5.9,0.9,8.9,0.9c1.5,0,3,0,4.5,0c0.7,0,1.5-0.1,2.2-0.1c0.7-0.1,1.5-0.1,2.2-0.2
			c3-0.4,5.8-0.9,8.7-1.6c2.9-0.8,5.6-1.8,8.3-2.9c1.9-0.7,3.7,1.8,1.7,2.7c-11.2,4.9-24,6.4-36.4,4.3c-12.5-2-24.6-7.5-34.5-15.6
			c-9.9-8-17.6-18.5-21.8-29.9C562.7,380.3,562,368,564.7,356.5z"/>
		<path fill="#210E14" d="M584.7,381.8c-0.3-1.5,1.7-1.9,2.6-1.3c7.5,5.3,15.2,10.2,22,15.8c6.9,5.6,13,11.8,17.6,20.8
			c0.2,0.3,0.2,0.6,0.1,0.9c0.7,0.9,0.1,2.8-1.5,2.6c-10.2-1.4-19.8-6.1-27.1-13c-1.8-1.8-3.5-3.6-5-5.5c-1.5-2-2.8-4.1-4-6.2
			c-1.2-2.2-2.1-4.5-3-6.8c-0.4-1.2-0.8-2.3-1.1-3.5C585.1,384.3,584.9,383.1,584.7,381.8z M623.3,416.9c-1-1.9-2.1-3.6-3.3-5.2
			c-1.2-1.6-2.4-3.2-3.7-4.7c-0.6-0.7-1.3-1.4-2-2.1c-0.7-0.7-1.4-1.4-2.1-2.1c-1.4-1.3-2.9-2.6-4.4-3.8c-1.5-1.2-3-2.5-4.6-3.6
			c-0.8-0.6-1.6-1.1-2.4-1.7c-0.8-0.6-1.6-1.2-2.4-1.7c-1.6-1.1-3.3-2.2-4.9-3.3c-1.6-1.1-3.2-2.3-4.9-3.4c0.6,1.9,1.2,3.8,2,5.7
			c0.4,1,0.8,1.8,1.3,2.7c0.5,0.9,1,1.8,1.5,2.6c2.1,3.5,4.8,6.6,7.8,9.4c0.7,0.7,1.5,1.4,2.3,2c0.8,0.6,1.6,1.2,2.5,1.8
			c1.7,1.2,3.4,2.3,5.3,3.2c1.9,0.9,3.8,1.7,5.7,2.5C619.2,416,621.2,416.5,623.3,416.9z"/>
	</g>
	<g>
		<path fill="#210E14" d="M491.9,239.7c-1.4-1.7-3.9,0.7-2.5,2.5c2,2.4,4,4.9,5.9,7.4c0.9,1.2,1.8,2.5,2.7,3.8
			c0.9,1.2,1.8,2.5,2.7,3.8c1.7,2.5,3.3,5.1,4.9,7.6c1.6,2.6,3.1,5.1,4.5,7.7c5.8,10.3,10.5,20.7,14.2,31.4
			c3.8,10.7,6.6,21.6,8.5,33.1c1.9,11.5,3,23.5,2.9,36.2c0,2.2,3.3,3.2,3.3,0.9c0-1.6,0-3.3-0.1-4.9c0-1.6-0.1-3.2-0.2-4.8
			c-0.1-3.2-0.3-6.3-0.6-9.4c-0.2-3.1-0.5-6.2-0.9-9.2c-0.4-3-0.7-6-1.3-8.9c-1.9-11.8-4.8-22.9-8.6-33.8
			c-3.8-10.9-8.5-21.5-14.4-32.1c-0.7-1.3-1.5-2.6-2.2-4c-0.8-1.3-1.6-2.6-2.4-3.9c-1.5-2.6-3.2-5.3-5-7.9c-0.9-1.3-1.7-2.6-2.7-3.9
			c-0.9-1.3-1.8-2.6-2.8-3.9c-1-1.3-2-2.6-3-3.9C493.9,242.2,492.9,241,491.9,239.7z"/>
		<path fill="#210E14" d="M519.1,339c0.2,1.8-1.6,2.3-2.6,1.4c-0.3,0-0.6,0-0.9-0.2c-1.1-0.8-2.3-1.6-3.3-2.4
			c-1.1-0.9-2.1-1.8-3-2.7c-1.9-1.9-3.6-4-5.3-6.2c-1.6-2.2-2.9-4.6-4.2-7.1c-0.6-1.2-1.3-2.5-1.8-3.8c-0.5-1.3-1-2.6-1.5-3.9
			c-1.9-5.3-3-10.9-3.9-16.5c-0.3-2.8-0.6-5.7-0.8-8.5l-0.2-2.1l0-2.1c0-1.4,0-2.8-0.1-4.3c0-1.4,1.5-2.9,2.6-1.6
			c1.7,2.2,3.4,4.5,4.8,6.8c1.6,2.3,3.1,4.6,4.4,7c1.3,2.4,2.7,4.8,3.9,7.2c1.2,2.4,2.2,4.9,3.4,7.4c1.1,2.5,1.9,5,2.8,7.6
			c0.9,2.5,1.7,5.1,2.4,7.8C517.4,327.9,518.3,333.4,519.1,339z M494.8,285.4c0.4,9.5,1.5,19.3,4.9,28.3c0.4,1.1,0.8,2.2,1.3,3.3
			c0.4,1.1,1,2.1,1.5,3.2c1.1,2.1,2.2,4.1,3.5,6c1.3,1.9,2.8,3.7,4.4,5.3c1.6,1.7,3.2,3.2,5.1,4.6c-1.4-9.3-4-18.1-7.3-26.6
			c-1.8-4.2-3.6-8.4-5.9-12.4c-0.6-1-1.1-2-1.7-3c-0.6-1-1.2-2-1.8-3C497.5,289.2,496.1,287.3,494.8,285.4z"/>
		<path fill="#210E14" d="M564.3,152.3c2-0.1,2.6,2.9,0.6,3.1c-5.7,0.4-11.1,1.8-16.5,3.8c-2.6,1.1-5.1,2.3-7.6,3.7
			c-0.6,0.4-1.3,0.7-1.9,1.1c-0.6,0.4-1.2,0.8-1.8,1.2c-1.2,0.8-2.3,1.7-3.5,2.6c-9.1,7.1-16.4,17.1-20.9,28.4
			c-1,2.8-2.1,5.7-2.8,8.7c-0.7,3-1.2,6-1.7,9c-0.3,3-0.4,6.1-0.4,9.1c0,3,0.4,6,0.7,9c1.8,11.9,6.8,23.1,14.5,31.9
			c1.4,1.5-0.6,4-2,2.5c-8.1-9.1-13.5-20.8-15.5-33.3c-2-12.5-0.5-25.7,4.1-37.6c4.6-11.9,12.2-22.5,21.8-30
			c1.2-0.9,2.4-1.8,3.6-2.7c1.2-0.9,2.6-1.6,3.9-2.4c1.3-0.7,2.6-1.5,3.9-2.1c0.7-0.3,1.3-0.6,2-1c0.7-0.3,1.4-0.6,2.1-0.8
			c2.8-1.1,5.6-2,8.5-2.7C558.3,152.9,561.3,152.5,564.3,152.3z"/>
		<path fill="#210E14" d="M546.3,179c1.3-0.7,2.4,1,2,2.1c-2.8,8.7-5,17.6-8.1,25.8c-1.7,4.1-3.3,8.2-5.8,12
			c-1.1,1.9-2.3,3.8-3.8,5.7c-0.7,0.9-1.5,1.8-2.3,2.8c-0.8,0.9-1.6,1.8-2.4,2.7c-0.3,0.3-0.5,0.4-0.8,0.4c-0.7,1-2.6,1-2.9-0.6
			c-0.2-1.3-0.4-2.5-0.6-3.8c-0.1-1.3-0.2-2.6-0.2-3.8c0-1.3,0-2.6,0-3.8c0-0.6,0.1-1.3,0.1-1.9c0.1-0.6,0.2-1.3,0.2-1.9
			c0.4-2.5,0.9-5,1.6-7.4c0.8-2.4,1.7-4.8,2.7-7C530.5,191.1,537.5,183.6,546.3,179z M524.9,226.5c1.5-1.5,2.8-3.1,4-4.7
			c1.2-1.6,2.2-3.3,3.2-5c1-1.7,1.9-3.4,2.7-5.1l0.6-1.3l0.6-1.3c0.4-0.9,0.8-1.8,1.1-2.7s0.7-1.8,1-2.7l0.5-1.4l0.5-1.4
			c0.7-1.8,1.2-3.7,1.8-5.6c0.2-1,0.5-1.9,0.8-2.8l0.9-2.8c0.6-1.9,1-3.8,1.7-5.7C530.5,192.7,522.9,209.9,524.9,226.5z"/>
	</g>
	<g>
		<path fill="#210E14" d="M652.9,46.8c1.2-1.8-1.9-3.6-3.1-1.6c-6.8,10.7-14.4,20.3-22.4,29c-8,8.6-16.5,16.4-25.4,23.3
			c-9,6.9-18.5,13-28.8,18.4c-10.3,5.4-21.5,10-33.6,13.8c-2.1,0.7-2,4.2,0.1,3.5c12.5-4,23.9-8.8,34.5-14.3
			c10.6-5.5,20.3-11.7,29.5-18.7c9.2-7,17.8-14.8,26.1-23.7C637.8,67.6,645.7,57.9,652.9,46.8z"/>
		<path fill="#210E14" d="M566.9,103.4c-1.6,0.8-2.7-0.8-2.2-2c-0.1-0.3-0.2-0.6-0.1-1c3-10.6,10-19.4,18.9-26.2
			c8.9-6.8,19.7-11.6,30.4-15.1c1.4-0.4,3.3,0.5,2.3,2c-6.3,9.3-13.7,17.4-21.9,24.5C586.2,92.7,577.1,98.6,566.9,103.4z
			 M610.3,63.7c-2.2,0.8-4.5,1.7-6.7,2.6c-2.2,1-4.4,2-6.5,3.1c-1.1,0.5-2.2,1.1-3.2,1.7c-1,0.6-2.1,1.2-3.1,1.9
			c-2,1.3-4,2.6-5.9,4.1c-3.7,3-7.2,6.1-9.9,9.9c-1.4,1.8-2.7,3.7-3.8,5.7c-1.1,2-2,4.1-2.7,6.3c2.1-1,4.1-2.2,6.1-3.4
			c2-1.1,4-2.3,5.9-3.6l2.8-2c0.9-0.6,1.9-1.3,2.8-2c1.8-1.3,3.6-2.8,5.3-4.3c3.5-2.9,6.8-6.1,9.9-9.4c1.6-1.7,3.1-3.5,4.5-5.2
			C607.5,67.5,608.9,65.7,610.3,63.7z"/>
		<path fill="#210E14" d="M758.4,88.6c0.7,1.9-2,3.4-2.7,1.5c-4.4-10.4-11.9-19.4-21.5-25.9c-9.6-6.4-21.4-10.2-33.4-11
			c-12.1-0.7-24.5,1.6-35.2,7c-10.8,5.4-19.9,13.6-25.8,23.7c-1,1.8-4.1,0.6-3-1.2c6.2-10.6,15.6-19.3,26.9-25
			c11.3-5.7,24.3-8.3,37.1-7.6c12.7,0.7,25.1,4.6,35.2,11.4C746.1,68.2,753.9,77.7,758.4,88.6z"/>
		<path fill="#210E14" d="M727.4,79.9c1.1,1.1-0.2,2.6-1.4,2.6c-9.1,0.1-18.3,0.6-27.1,0.3c-8.9-0.4-17.5-2.1-26.5-6.4
			c-0.3-0.2-0.5-0.4-0.6-0.7c-1.2-0.4-1.7-2.2-0.3-3c1.1-0.6,2.3-1.2,3.5-1.7c0.6-0.3,1.2-0.5,1.8-0.8c0.6-0.2,1.2-0.4,1.8-0.6
			c2.4-0.8,4.9-1.5,7.4-2c2.5-0.4,5-0.6,7.6-0.7c0.6,0,1.3,0,1.9,0c0.6,0,1.3,0.1,1.9,0.1c1.3,0.1,2.5,0.2,3.8,0.4
			c1.2,0.2,2.5,0.4,3.7,0.6c1.2,0.3,2.4,0.6,3.6,1c2.4,0.7,4.7,1.5,6.9,2.6c2.2,1.1,4.4,2.4,6.4,3.7c0.5,0.3,1,0.7,1.5,1
			c0.5,0.4,1,0.8,1.4,1.2C725.6,78.2,726.5,79,727.4,79.9z M675.6,74.2c1.9,0.8,3.8,1.7,5.7,2.3c1.9,0.6,3.8,1.1,5.7,1.5
			c1.9,0.5,3.8,0.8,5.7,1c1,0.1,1.9,0.2,2.9,0.3c1,0.1,1.9,0.2,2.9,0.3c1.9,0.1,3.9,0.2,5.8,0.2c2,0,3.9,0.1,5.9,0
			c3.9-0.2,7.9-0.2,11.8-0.4c-1.6-1.2-3.3-2.4-5-3.4c-0.9-0.5-1.8-1-2.7-1.5c-0.9-0.4-1.8-0.8-2.8-1.2c-1.9-0.7-3.8-1.4-5.8-1.9
			c-2-0.5-4-0.8-6-1c-4.1-0.6-8.2-0.3-12.3,0.3c-1,0.1-2,0.4-3.1,0.6c-1,0.2-2,0.5-3,0.8C679.4,72.6,677.4,73.2,675.6,74.2z"/>
	</g>
	<g>
		<path fill="#210E14" d="M886,140.3c2.2,0.6,2.7-2.9,0.5-3.5c-1.5-0.4-3-0.8-4.5-1.3c-1.5-0.4-3-0.9-4.5-1.3c-3-0.9-5.9-1.9-8.7-3
			c-2.9-1-5.7-2.1-8.5-3.3c-1.4-0.6-2.8-1.2-4.1-1.7c-1.4-0.6-2.7-1.2-4.1-1.8c-10.7-4.9-20.6-10.6-30-17
			c-9.3-6.4-18-13.6-26.3-21.8c-8.3-8.2-16.2-17.3-23.6-27.6c-1.3-1.8-4.6-0.6-3.3,1.2c1,1.3,1.9,2.6,2.9,3.9c1,1.3,2,2.5,3,3.8
			c2,2.5,4,5,6,7.3c2,2.4,4,4.7,6.1,6.9c1.1,1.1,2.1,2.2,3.1,3.3c1,1.1,2.1,2.1,3.2,3.2c8.5,8.4,17.3,15.8,26.8,22.3
			c9.5,6.6,19.6,12.4,30.5,17.5C861.5,132.5,873.4,136.9,886,140.3z"/>
		<path fill="#210E14" d="M805.6,76.1c-1.2-1.3-0.1-2.8,1.3-2.7c0.2-0.2,0.5-0.3,0.9-0.4c11.1-0.5,21.5,3.6,30.7,9.9
			c4.7,3.1,8.9,7,12.9,11.1c1.9,2.1,3.8,4.3,5.7,6.4c1.8,2.2,3.5,4.5,5.2,6.8c0.9,1.2,0.5,3.2-1.2,2.8c-2.7-0.8-5.4-1.6-8-2.6
			c-2.6-1-5.2-1.9-7.7-3.1c-1.3-0.5-2.4-1.2-3.7-1.7c-1.2-0.6-2.5-1.2-3.7-1.8c-2.4-1.2-4.7-2.7-7.1-4c-1.2-0.7-2.3-1.4-3.4-2.2
			c-1.1-0.7-2.2-1.6-3.3-2.3c-2.2-1.5-4.4-3.2-6.5-4.9c-2.1-1.7-4.2-3.5-6.2-5.4l-1.5-1.5l-1.5-1.4
			C807.6,78.1,806.6,77.1,805.6,76.1z M856.8,105.1c-5.9-7.4-12.6-14.7-20.5-20c-1-0.7-2-1.3-3-1.9c-1-0.6-2.1-1.1-3.1-1.7
			c-2.1-1.1-4.2-2-6.3-2.8c-2.2-0.8-4.4-1.3-6.7-1.8c-2.2-0.4-4.5-0.7-6.8-0.7c6.6,6.7,13.8,12.3,21.5,17.2c3.9,2.3,7.8,4.6,12,6.5
			c2.1,1,4.1,1.9,6.3,2.8C852.4,103.6,854.6,104.4,856.8,105.1z"/>
		<path fill="#210E14" d="M878.9,253.7c-1.5,1.3-3.9-0.8-2.3-2.1c2.1-1.9,4.1-3.9,6-6c1.8-2.1,3.5-4.4,5-6.8
			c0.8-1.2,1.5-2.4,2.2-3.7c0.6-1.3,1.2-2.5,1.8-3.8s1.1-2.6,1.6-4c0.3-0.7,0.5-1.4,0.7-2c0.2-0.7,0.4-1.4,0.6-2.1
			c3.3-11.1,3.2-23.5,0.2-35.2c-3-11.7-9.2-22.7-17.6-31.3c-2.1-2.1-4.3-4.2-6.7-6c-1.2-0.9-2.4-1.8-3.6-2.6
			c-1.2-0.8-2.4-1.6-3.8-2.3c-2.6-1.4-5.3-2.7-8-3.8c-2.8-1-5.6-1.9-8.4-2.6c-1.9-0.5-1.9-3.6,0.2-3.2c11.9,2.6,23.1,8.9,32,17.9
			c8.9,8.9,15.5,20.5,18.8,32.8c3.3,12.3,3.4,25.3,0,37.1C894.4,235.6,887.9,246,878.9,253.7z"/>
		<path fill="#210E14" d="M877.6,221.4c-0.7,1.4-2.5,0.6-2.9-0.5c-2.9-8.7-6.3-17.1-8.6-25.7c-2.4-8.5-3.5-17.2-2.1-27.1
			c0.1-0.4,0.2-0.6,0.4-0.8c0-1.2,1.5-2.3,2.7-1.2c7.5,7.1,12.4,16.6,14.3,26.4c0.4,2.5,0.8,4.9,0.8,7.4c0,2.5-0.1,5-0.4,7.4
			c-0.1,1.2-0.4,2.4-0.7,3.6c-0.3,1.2-0.6,2.4-0.9,3.6c-0.4,1.2-0.7,2.3-1.2,3.5C878.7,219.2,878.2,220.3,877.6,221.4z M867,170.4
			c-0.3,2.1-0.4,4.1-0.3,6.1c-0.1,2,0,4,0.2,5.9c0.1,1,0.2,1.9,0.4,2.9c0.1,1,0.3,1.9,0.4,2.9c0.3,1.9,0.8,3.8,1.3,5.6
			c0.5,1.9,1,3.8,1.6,5.6c0.3,0.9,0.6,1.9,1,2.8c0.3,0.9,0.6,1.9,0.9,2.8c0.6,1.9,1.3,3.7,2,5.6c0.6,1.9,1.3,3.7,1.9,5.6
			c0.7-1.9,1.3-3.8,1.7-5.8c0.5-2,0.7-4,0.8-6c0.1-1,0.1-2,0.1-3c0-0.5,0-1,0-1.5l-0.1-1.5c-0.2-2-0.4-4-0.8-6.1
			C876.6,184.2,872.8,176.5,867,170.4z"/>
	</g>
</g>
<g>
	<g>
		<path fill="#1F1813" d="M1282,371.5c8.7-11.6,16.1-21,25-32.1c1.2,1.6,2.3,3.3,3.4,5c0.5,0.9,1,1.7,1.5,2.6
			c0.5,0.9,0.9,1.7,1.3,2.6c1.6,3.5,3,7.1,4.2,10.8c1.2,3.7,2.3,7.4,3.5,11.3c0.6,1.9,1.3,3.9,1.9,5.9c0.7,2,1.4,3.9,2.2,5.9
			c-3.9-0.7-7.6-1.5-11.2-2.4c-3.6-0.8-7.2-1.8-10.6-2.8c-3.5-1-6.9-2-10.4-3.1C1289.2,374.1,1285.7,372.8,1282,371.5z"/>
		<path fill="#1F1813" d="M1300.9,396.7c-2-2-1.9-5.2,0-7.3c1-1,2.3-1.6,3.6-1.7c1.3-0.1,2.6,0.3,3.7,1.2c2.1,1.9,2.1,5.2,0,7.3
			C1306.2,398.5,1302.9,398.7,1300.9,396.7z"/>
		<path fill="#1F1813" d="M1340.8,358.6c0,0-1.4-2.3-3.5-5.7c-2.1-3.3-5.1-7.8-8.2-12c-3.1-4.2-6.2-8.3-8.8-11.3
			c-2.5-3-4.2-4.9-4.2-4.9c-2.2-2.5-6.4,0.1-4.2,2.6c4.4,5.2,8.6,10.7,12.6,16.4c4,5.7,7.7,11.6,11.3,17.9
			C1337.7,364.7,1342.6,361.7,1340.8,358.6z"/>
		<path fill="#1F1813" d="M1353.4,343c-5.1-5.8-10.2-11.2-15.7-16.5c-2.7-2.6-5.5-5.2-8.3-7.7c-1.4-1.2-2.8-2.5-4.2-3.7
			c-1.4-1.2-2.9-2.4-4.3-3.6c-1.3-1.1-2.7-0.6-3.4,0.3c-0.7,1-0.8,2.4,0.4,3.5c11.3,9.7,21.9,20.4,31.7,32.2
			c1.1,1.3,2.7,0.9,3.6-0.3C1354.2,346.1,1354.6,344.3,1353.4,343z"/>
		<path fill="#1F1813" d="M1360,322.5c0,0-2-1.8-4.9-4.3c-1.5-1.3-3.2-2.7-5.1-4.2c-1.9-1.5-4-3.2-6-4.7c-4.1-3.2-8.3-6.2-11.5-8.3
			c-1.6-1.1-2.9-2-3.8-2.6c-0.9-0.6-1.5-1-1.5-1c-2.8-1.8-5.4,2.2-2.7,4.1c0,0,2.1,1.4,5.2,3.7c1.6,1.1,3.4,2.5,5.3,3.9
			c1.9,1.5,3.9,3,5.9,4.7c4,3.2,8,6.6,10.9,9.2c1.5,1.3,2.7,2.4,3.5,3.2c0.8,0.8,1.3,1.2,1.3,1.2c1.3,1.2,2.8,0.6,3.6-0.7
			C1361.1,325.5,1361.3,323.7,1360,322.5z"/>
		<path fill="#1F1813" d="M1363.7,299.4c-2.9-1.8-5.8-3.5-8.8-5.2c-3-1.7-6-3.4-9-5c-6-3.2-12-6.2-18.1-9c-3.1-1.4-5.3,2.8-2.2,4.3
			c12.2,5.9,23.9,12.6,35.4,20.1C1364,306.6,1366.7,301.3,1363.7,299.4z"/>
		<path fill="#1F1813" d="M1368.2,282.5c-5.8-2.3-11.6-4.4-17.4-6.5c-2.9-1-5.8-2-8.7-3c-2.9-1-5.9-1.9-8.9-2.8
			c-1.7-0.5-2.9,0.4-3.4,1.5c-0.5,1.1-0.2,2.5,1.4,3c5.8,1.9,11.7,4,17.5,6.2c5.8,2.2,11.6,4.5,17.3,6.9c1.6,0.7,3-0.3,3.6-1.7
			C1370.1,284.8,1369.8,283.1,1368.2,282.5z"/>
		<path fill="#1F1813" d="M1368.4,266.8c0,0-2.3-0.9-5.8-2.3c-3.5-1.3-8.3-3-13-4.6c-9.5-3.2-19-5.8-19-5.8
			c-3.3-0.9-4.8,3.7-1.5,4.6c3.2,0.9,6.3,1.9,9.5,3c3.2,1,6.3,2.1,9.4,3.2c6.2,2.3,12.4,4.7,18.6,7.3
			C1369.8,273.7,1371.7,268.1,1368.4,266.8z"/>
	</g>
	<g>
		<path fill="#1F1813" d="M1162.8,424.6c0.9-0.1,1.8-0.2,2.7-0.4c0.9-0.1,1.8-0.2,2.6-0.4c1.7-0.3,3.4-0.5,5.1-0.7
			c0.8-0.1,1.7-0.2,2.5-0.3c0.8-0.1,1.6-0.3,2.5-0.4c1.6-0.2,3.3-0.4,4.9-0.6c0.8-0.1,1.6-0.2,2.4-0.3l2.4-0.3
			c1.6-0.2,3.3-0.3,5-0.5c1.7-0.2,3.3-0.4,5-0.6c1.7-0.2,3.5-0.3,5.2-0.6c-0.3,2-0.7,4.1-1.2,5.9c-0.5,1.9-1.1,3.7-1.7,5.6
			c-0.7,1.8-1.4,3.6-2.2,5.4c-0.8,1.8-1.6,3.6-2.5,5.3c-1.8,3.4-3.7,6.9-5.5,10.5c-0.9,1.8-1.9,3.6-2.8,5.4
			c-0.9,1.8-1.8,3.8-2.7,5.7c-2.3-3.3-4.3-6.4-6.3-9.6c-2-3.2-3.8-6.3-5.6-9.5c-1.8-3.2-3.5-6.3-5.1-9.5
			C1166,431.5,1164.4,428.1,1162.8,424.6z"/>
		<path fill="#1F1813" d="M1158.3,455.8c0-2.8,2.3-5.1,5.2-5.2c2.8-0.1,5.3,2.1,5.4,4.9c0.2,2.8-2.2,5.1-5.2,5.2
			C1160.7,460.8,1158.3,458.6,1158.3,455.8z"/>
		<path fill="#1F1813" d="M1213.4,457.1c0,0,0.7-2.6,1.5-6.5c0.9-3.9,1.9-9,2.7-14.3c0.8-5.2,1.4-10.4,1.8-14.2
			c0.2-1.9,0.3-3.6,0.4-4.7c0.1-1.1,0.1-1.8,0.1-1.8c0.2-3.4-4.5-4.4-4.8-1.1c-1.1,13.6-3.6,27.4-7.3,41.2c-0.5,1.7,0.7,2.9,2.1,3.3
			C1211.3,459.4,1212.9,458.8,1213.4,457.1z"/>
		<path fill="#1F1813" d="M1233.4,454.9c0.5-7.7,0.6-15.3,0.5-22.8c-0.2-7.6-0.6-15.1-1.3-22.4c-0.4-3.3-5.1-2.7-4.8,0.6
			c0.3,3.7,0.5,7.5,0.6,11.2c0.1,3.7,0.2,7.5,0.1,11.2c0,3.8-0.1,7.6-0.3,11.4c-0.2,3.8-0.5,7.6-0.8,11.4c-0.2,1.7,1.2,2.5,2.8,2.3
			c0.8-0.1,1.5-0.4,2.1-0.8C1232.9,456.5,1233.3,455.8,1233.4,454.9z"/>
		<path fill="#1F1813" d="M1252.5,445.1c0,0-0.2-2.6-0.5-6.5c-0.3-3.9-0.8-9.1-1.5-14.2c-0.7-5.2-1.5-10.3-2.2-14
			c-0.7-3.8-1.2-6.3-1.2-6.3c-0.7-3.3-5.4-2.2-4.8,1.1c0,0,0.5,2.5,1.1,6.3c0.6,3.8,1.3,8.8,1.8,14c0.6,5.1,1,10.4,1.2,14.3
			c0.2,3.9,0.3,6.5,0.3,6.5C1246.7,449.8,1252.7,448.7,1252.5,445.1z"/>
		<path fill="#1F1813" d="M1271.4,431.4c-0.8-3.3-1.6-6.6-2.5-9.9c-0.9-3.3-1.8-6.5-2.8-9.8c-2-6.5-4.2-12.9-6.5-19.2
			c-1.2-3.2-5.7-1.7-4.6,1.5c2.2,6.4,4.2,12.8,6,19.3c1.8,6.5,3.5,13.2,4.9,19.9c0.3,1.7,2,2.2,3.4,1.7
			C1270.6,434.4,1271.9,433.1,1271.4,431.4z"/>
		<path fill="#1F1813" d="M1286.6,422.6c-5-11.4-10.3-22.5-16.1-33.4c-1.6-3-6.2-1.2-4.6,1.8c2.8,5.5,5.4,11.1,8,16.7
			c2.6,5.7,5,11.3,7.3,17.1C1282.4,428.1,1288.1,425.9,1286.6,422.6z"/>
		<path fill="#1F1813" d="M1297.9,411.7c0,0-1-2.3-2.5-5.7c-1.5-3.4-3.7-8-5.9-12.4c-4.4-9-9.3-17.5-9.3-17.5
			c-1.7-2.9-6-0.8-4.4,2.2c6.3,11.7,11.9,23.6,16.9,36.1C1293.9,417.6,1299.2,414.8,1297.9,411.7z"/>
	</g>
	<g>
		<path fill="#1F1813" d="M1040.8,377.8c11.6,8.7,21,16.1,32.1,25c-1.6,1.2-3.3,2.3-5,3.4c-0.9,0.5-1.7,1-2.6,1.5
			c-0.9,0.5-1.7,0.9-2.6,1.3c-3.5,1.6-7.1,3-10.8,4.2c-3.7,1.2-7.4,2.3-11.3,3.5c-1.9,0.6-3.9,1.3-5.9,1.9c-2,0.7-3.9,1.4-5.9,2.2
			c0.7-3.9,1.5-7.6,2.4-11.2c0.8-3.6,1.8-7.2,2.8-10.6c1-3.5,2-6.9,3.1-10.4C1038.2,385,1039.5,381.4,1040.8,377.8z"/>
		<path fill="#1F1813" d="M1015.6,396.7c2-2,5.2-1.9,7.3,0c1,1,1.6,2.3,1.7,3.6c0.1,1.3-0.3,2.6-1.2,3.7c-1.9,2.1-5.2,2.1-7.3,0
			C1013.8,401.9,1013.6,398.7,1015.6,396.7z"/>
		<path fill="#1F1813" d="M1053.7,436.5c0,0,2.3-1.4,5.7-3.5c3.3-2.1,7.8-5.1,12-8.2c4.2-3.1,8.3-6.2,11.3-8.8
			c3-2.5,4.9-4.2,4.9-4.2c2.5-2.2-0.1-6.4-2.6-4.2c-5.2,4.4-10.7,8.6-16.4,12.6c-5.7,4-11.6,7.7-17.9,11.3
			C1047.6,433.4,1050.6,438.3,1053.7,436.5z"/>
		<path fill="#1F1813" d="M1069.3,449.2c5.8-5.1,11.2-10.2,16.5-15.7c2.6-2.7,5.2-5.5,7.7-8.3c1.2-1.4,2.5-2.8,3.7-4.2
			c1.2-1.4,2.4-2.9,3.6-4.3c1.1-1.3,0.6-2.7-0.3-3.4c-1-0.7-2.4-0.8-3.5,0.4c-9.7,11.3-20.4,21.9-32.2,31.7
			c-1.3,1.1-0.9,2.7,0.3,3.6C1066.2,450,1068,450.3,1069.3,449.2z"/>
		<path fill="#1F1813" d="M1089.8,455.7c0,0,1.8-2,4.3-4.9c1.3-1.5,2.7-3.2,4.2-5.1c1.5-1.9,3.2-4,4.7-6c3.2-4.1,6.2-8.3,8.3-11.5
			c1.1-1.6,2-2.9,2.6-3.8c0.6-0.9,1-1.5,1-1.5c1.8-2.8-2.2-5.4-4.1-2.7c0,0-1.4,2.1-3.7,5.2c-1.1,1.6-2.5,3.4-3.9,5.3
			c-1.5,1.9-3,3.9-4.7,5.9c-3.2,4-6.6,8-9.2,10.9c-1.3,1.5-2.4,2.7-3.2,3.5c-0.8,0.8-1.2,1.3-1.2,1.3c-1.2,1.3-0.6,2.8,0.7,3.6
			C1086.8,456.9,1088.6,457,1089.8,455.7z"/>
		<path fill="#1F1813" d="M1112.9,459.5c1.8-2.9,3.5-5.8,5.2-8.8c1.7-3,3.4-6,5-9c3.2-6,6.2-12,9-18.1c1.4-3.1-2.8-5.3-4.3-2.2
			c-5.9,12.2-12.6,23.9-20.1,35.4C1105.7,459.8,1111.1,462.5,1112.9,459.5z"/>
		<path fill="#1F1813" d="M1129.9,464c2.3-5.8,4.4-11.6,6.5-17.4c1-2.9,2-5.8,3-8.7c1-2.9,1.9-5.9,2.8-8.9c0.5-1.7-0.4-2.9-1.5-3.4
			c-1.1-0.5-2.5-0.2-3,1.4c-1.9,5.8-4,11.7-6.2,17.5c-2.2,5.8-4.5,11.6-6.9,17.3c-0.7,1.6,0.3,3,1.7,3.6
			C1127.5,465.9,1129.2,465.6,1129.9,464z"/>
		<path fill="#1F1813" d="M1145.5,464.2c0,0,0.9-2.3,2.3-5.8c1.3-3.5,3-8.3,4.6-13c3.2-9.5,5.8-19,5.8-19c0.9-3.3-3.7-4.8-4.6-1.5
			c-0.9,3.2-1.9,6.3-3,9.5c-1,3.2-2.1,6.3-3.2,9.4c-2.3,6.2-4.7,12.4-7.3,18.6C1138.6,465.6,1144.2,467.4,1145.5,464.2z"/>
	</g>
	<g>
		<path fill="#1F1813" d="M987.7,258.5c0.1,0.9,0.2,1.8,0.4,2.7c0.1,0.9,0.2,1.8,0.4,2.6c0.3,1.7,0.5,3.4,0.7,5.1
			c0.1,0.8,0.2,1.7,0.3,2.5c0.1,0.8,0.3,1.6,0.4,2.5c0.2,1.6,0.4,3.3,0.6,4.9c0.1,0.8,0.2,1.6,0.3,2.4l0.3,2.4
			c0.2,1.6,0.3,3.3,0.5,5c0.2,1.7,0.4,3.3,0.6,5c0.2,1.7,0.3,3.5,0.6,5.2c-2-0.3-4.1-0.7-5.9-1.2c-1.9-0.5-3.7-1.1-5.6-1.7
			c-1.8-0.7-3.6-1.4-5.4-2.2c-1.8-0.8-3.6-1.6-5.3-2.5c-3.4-1.8-6.9-3.7-10.5-5.5c-1.8-0.9-3.6-1.9-5.4-2.8
			c-1.8-0.9-3.8-1.8-5.7-2.7c3.3-2.3,6.4-4.3,9.6-6.3c3.2-2,6.3-3.8,9.5-5.6c3.2-1.8,6.3-3.5,9.5-5.1
			C980.8,261.7,984.2,260.1,987.7,258.5z"/>
		<path fill="#1F1813" d="M956.5,254c2.8,0,5.1,2.3,5.2,5.2c0.1,2.8-2.1,5.3-4.9,5.4c-2.8,0.2-5.1-2.2-5.2-5.2
			C951.5,256.5,953.7,254,956.5,254z"/>
		<path fill="#1F1813" d="M955.2,309.1c0,0,2.6,0.7,6.5,1.5c3.9,0.9,9,1.9,14.3,2.7c5.2,0.8,10.4,1.4,14.2,1.8
			c1.9,0.2,3.6,0.3,4.7,0.4c1.1,0.1,1.8,0.1,1.8,0.1c3.4,0.2,4.4-4.5,1.1-4.8c-13.6-1.1-27.4-3.6-41.2-7.3c-1.7-0.5-2.9,0.7-3.3,2.1
			C952.9,307.1,953.5,308.7,955.2,309.1z"/>
		<path fill="#1F1813" d="M957.4,329.2c7.7,0.5,15.3,0.6,22.8,0.5c7.6-0.2,15.1-0.6,22.4-1.3c3.3-0.4,2.7-5.1-0.6-4.8
			c-3.7,0.3-7.5,0.5-11.2,0.6c-3.7,0.1-7.5,0.2-11.2,0.1c-3.8,0-7.6-0.1-11.4-0.3c-3.8-0.2-7.6-0.5-11.4-0.8
			c-1.7-0.2-2.5,1.2-2.3,2.8c0.1,0.8,0.4,1.5,0.8,2.1C955.8,328.7,956.5,329.1,957.4,329.2z"/>
		<path fill="#1F1813" d="M967.2,348.2c0,0,2.6-0.2,6.5-0.5c3.9-0.3,9.1-0.8,14.2-1.5c5.2-0.7,10.3-1.5,14-2.2
			c3.8-0.7,6.3-1.2,6.3-1.2c3.3-0.7,2.2-5.4-1.1-4.8c0,0-2.5,0.5-6.3,1.1c-3.8,0.6-8.8,1.3-14,1.8c-5.1,0.6-10.4,1-14.3,1.2
			c-3.9,0.2-6.5,0.3-6.5,0.3C962.5,342.5,963.6,348.5,967.2,348.2z"/>
		<path fill="#1F1813" d="M980.9,367.2c3.3-0.8,6.6-1.6,9.9-2.5c3.3-0.9,6.5-1.8,9.8-2.8c6.5-2,12.9-4.2,19.2-6.5
			c3.2-1.2,1.7-5.7-1.5-4.6c-6.4,2.2-12.8,4.2-19.3,6c-6.5,1.8-13.2,3.5-19.9,4.9c-1.7,0.3-2.2,2-1.7,3.4
			C977.9,366.4,979.2,367.6,980.9,367.2z"/>
		<path fill="#1F1813" d="M989.7,382.4c11.4-5,22.5-10.3,33.4-16.1c3-1.6,1.2-6.2-1.8-4.6c-5.5,2.8-11.1,5.4-16.7,8
			c-5.7,2.6-11.3,5-17.1,7.3C984.2,378.2,986.4,383.8,989.7,382.4z"/>
		<path fill="#1F1813" d="M1000.7,393.6c0,0,2.3-1,5.7-2.5c3.4-1.5,8-3.7,12.4-5.9c9-4.4,17.5-9.3,17.5-9.3c2.9-1.7,0.8-6-2.2-4.4
			c-11.7,6.3-23.6,11.9-36.1,16.9C994.7,389.7,997.5,395,1000.7,393.6z"/>
	</g>
	<g>
		<path fill="#1F1813" d="M1034.5,136.6c-8.7,11.6-16.1,21-25,32.1c-1.2-1.6-2.3-3.3-3.4-5c-0.5-0.9-1-1.7-1.5-2.6
			c-0.5-0.9-0.9-1.7-1.3-2.6c-1.6-3.5-3-7.1-4.2-10.8c-1.2-3.7-2.3-7.4-3.5-11.3c-0.6-1.9-1.3-3.9-1.9-5.9c-0.7-2-1.4-3.9-2.2-5.9
			c3.9,0.7,7.6,1.5,11.2,2.4c3.6,0.8,7.2,1.8,10.6,2.8c3.5,1,6.9,2,10.4,3.1C1027.3,133.9,1030.9,135.2,1034.5,136.6z"/>
		<path fill="#1F1813" d="M1015.6,111.4c2,2,1.9,5.2,0,7.3c-1,1-2.3,1.6-3.6,1.7c-1.3,0.1-2.6-0.3-3.7-1.2c-2.1-1.9-2.1-5.2,0-7.3
			C1010.4,109.6,1013.6,109.4,1015.6,111.4z"/>
		<path fill="#1F1813" d="M975.8,149.5c0,0,1.4,2.3,3.5,5.7c2.1,3.3,5.1,7.8,8.2,12c3.1,4.2,6.2,8.3,8.8,11.3c2.5,3,4.2,4.9,4.2,4.9
			c2.2,2.5,6.4-0.1,4.2-2.6c-4.4-5.2-8.6-10.7-12.6-16.4c-4-5.7-7.7-11.6-11.3-17.9C978.9,143.3,974,146.4,975.8,149.5z"/>
		<path fill="#1F1813" d="M963.1,165.1c5.1,5.8,10.2,11.2,15.7,16.5c2.7,2.6,5.5,5.2,8.3,7.7c1.4,1.2,2.8,2.5,4.2,3.7
			c1.4,1.2,2.9,2.4,4.3,3.6c1.3,1.1,2.7,0.6,3.4-0.3c0.7-1,0.8-2.4-0.4-3.5c-11.3-9.7-21.9-20.4-31.7-32.2c-1.1-1.3-2.7-0.9-3.6,0.3
			C962.3,161.9,962,163.8,963.1,165.1z"/>
		<path fill="#1F1813" d="M956.6,185.5c0,0,2,1.8,4.9,4.3c1.5,1.3,3.2,2.7,5.1,4.2c1.9,1.5,4,3.2,6,4.7c4.1,3.2,8.3,6.2,11.5,8.3
			c1.6,1.1,2.9,2,3.8,2.6c0.9,0.6,1.5,1,1.5,1c2.8,1.8,5.4-2.2,2.7-4.1c0,0-2.1-1.4-5.2-3.7c-1.6-1.1-3.4-2.5-5.3-3.9
			c-1.9-1.5-3.9-3-5.9-4.7c-4-3.2-8-6.6-10.9-9.2c-1.5-1.3-2.7-2.4-3.5-3.2c-0.8-0.8-1.3-1.2-1.3-1.2c-1.3-1.2-2.8-0.6-3.6,0.7
			C955.4,182.5,955.3,184.4,956.6,185.5z"/>
		<path fill="#1F1813" d="M952.8,208.6c2.9,1.8,5.8,3.5,8.8,5.2c3,1.7,6,3.4,9,5c6,3.2,12,6.2,18.1,9c3.1,1.4,5.3-2.8,2.2-4.3
			c-12.2-5.9-23.9-12.6-35.4-20.1C952.5,201.5,949.9,206.8,952.8,208.6z"/>
		<path fill="#1F1813" d="M948.3,225.6c5.8,2.3,11.6,4.4,17.4,6.5c2.9,1,5.8,2,8.7,3c2.9,1,5.9,1.9,8.9,2.8c1.7,0.5,2.9-0.4,3.4-1.5
			c0.5-1.1,0.2-2.5-1.4-3c-5.8-1.9-11.7-4-17.5-6.2c-5.8-2.2-11.6-4.5-17.3-6.9c-1.6-0.7-3,0.3-3.6,1.7
			C946.4,223.3,946.7,225,948.3,225.6z"/>
		<path fill="#1F1813" d="M948.1,241.3c0,0,2.3,0.9,5.8,2.3c3.5,1.3,8.3,3,13,4.6c9.5,3.2,19,5.8,19,5.8c3.3,0.9,4.8-3.7,1.5-4.6
			c-3.2-0.9-6.3-1.9-9.5-3c-3.2-1-6.3-2.1-9.4-3.2c-6.2-2.3-12.4-4.7-18.6-7.3C946.7,234.3,944.9,240,948.1,241.3z"/>
	</g>
	<g>
		<path fill="#1F1813" d="M1153.8,83.5c-0.9,0.1-1.8,0.2-2.7,0.4c-0.9,0.1-1.8,0.2-2.6,0.4c-1.7,0.3-3.4,0.5-5.1,0.7
			c-0.8,0.1-1.7,0.2-2.5,0.3c-0.8,0.1-1.6,0.3-2.5,0.4c-1.6,0.2-3.3,0.4-4.9,0.6c-0.8,0.1-1.6,0.2-2.4,0.3l-2.4,0.3
			c-1.6,0.2-3.3,0.3-5,0.5c-1.7,0.2-3.3,0.4-5,0.6c-1.7,0.2-3.5,0.3-5.2,0.6c0.3-2,0.7-4.1,1.2-5.9c0.5-1.9,1.1-3.7,1.7-5.6
			c0.7-1.8,1.4-3.6,2.2-5.4c0.8-1.8,1.6-3.6,2.5-5.3c1.8-3.4,3.7-6.9,5.5-10.5c0.9-1.8,1.9-3.6,2.8-5.4c0.9-1.8,1.8-3.8,2.7-5.7
			c2.3,3.3,4.3,6.4,6.3,9.6c2,3.2,3.8,6.3,5.6,9.5c1.8,3.2,3.5,6.3,5.1,9.5C1150.6,76.6,1152.2,80,1153.8,83.5z"/>
		<path fill="#1F1813" d="M1158.3,52.3c0,2.8-2.3,5.1-5.2,5.2c-2.8,0.1-5.3-2.1-5.4-4.9c-0.2-2.8,2.2-5.1,5.2-5.2
			C1155.9,47.3,1158.3,49.5,1158.3,52.3z"/>
		<path fill="#1F1813" d="M1103.2,51c0,0-0.7,2.6-1.5,6.5c-0.9,3.9-1.9,9-2.7,14.3c-0.8,5.2-1.4,10.4-1.8,14.2
			c-0.2,1.9-0.3,3.6-0.4,4.7c-0.1,1.1-0.1,1.8-0.1,1.8c-0.2,3.4,4.5,4.4,4.8,1.1c1.1-13.6,3.5-27.4,7.3-41.2
			c0.5-1.7-0.7-2.9-2.1-3.3C1105.2,48.7,1103.6,49.3,1103.2,51z"/>
		<path fill="#1F1813" d="M1083.1,53.1c-0.5,7.7-0.6,15.3-0.5,22.8c0.2,7.6,0.6,15.1,1.3,22.4c0.4,3.3,5.1,2.7,4.8-0.6
			c-0.3-3.7-0.5-7.5-0.6-11.2c-0.1-3.7-0.2-7.5-0.1-11.2c0-3.8,0.1-7.6,0.3-11.4c0.2-3.8,0.5-7.6,0.8-11.4c0.2-1.7-1.2-2.5-2.8-2.3
			c-0.8,0.1-1.5,0.4-2.1,0.8C1083.6,51.6,1083.2,52.3,1083.1,53.1z"/>
		<path fill="#1F1813" d="M1064.1,63c0,0,0.2,2.6,0.5,6.5c0.3,3.9,0.8,9.1,1.5,14.2c0.7,5.2,1.5,10.3,2.2,14
			c0.7,3.8,1.2,6.3,1.2,6.3c0.7,3.3,5.4,2.2,4.8-1.1c0,0-0.5-2.5-1.1-6.3c-0.6-3.8-1.3-8.8-1.8-14c-0.6-5.1-1-10.4-1.2-14.3
			c-0.2-3.9-0.3-6.5-0.3-6.5C1069.8,58.3,1063.8,59.4,1064.1,63z"/>
		<path fill="#1F1813" d="M1045.1,76.7c0.8,3.3,1.6,6.6,2.5,9.9c0.9,3.3,1.8,6.5,2.8,9.8c2,6.5,4.2,12.9,6.5,19.2
			c1.2,3.2,5.7,1.7,4.6-1.5c-2.2-6.4-4.2-12.8-6-19.3c-1.8-6.5-3.5-13.2-4.9-19.9c-0.3-1.7-2-2.2-3.3-1.7
			C1045.9,73.7,1044.7,75,1045.1,76.7z"/>
		<path fill="#1F1813" d="M1029.9,85.5c5,11.4,10.3,22.5,16.1,33.4c1.6,3,6.2,1.2,4.6-1.8c-2.8-5.5-5.4-11.1-8-16.7
			c-2.6-5.7-5-11.3-7.3-17.1C1034.1,80,1028.5,82.2,1029.9,85.5z"/>
		<path fill="#1F1813" d="M1018.7,96.4c0,0,1,2.3,2.5,5.7c1.5,3.4,3.7,8,5.9,12.4c4.4,9,9.3,17.5,9.3,17.5c1.7,2.9,6,0.8,4.4-2.2
			c-6.3-11.7-11.9-23.6-16.9-36.1C1022.6,90.5,1017.3,93.2,1018.7,96.4z"/>
	</g>
	<g>
		<path fill="#1F1813" d="M1275.7,130.3c-11.6-8.7-21-16.1-32.1-25c1.6-1.2,3.3-2.3,5-3.4c0.9-0.5,1.7-1,2.6-1.5
			c0.9-0.5,1.7-0.9,2.6-1.3c3.5-1.6,7.1-3,10.8-4.2c3.7-1.2,7.4-2.3,11.3-3.5c1.9-0.6,3.9-1.3,5.9-1.9c2-0.7,3.9-1.4,5.9-2.2
			c-0.7,3.9-1.5,7.6-2.4,11.2c-0.8,3.6-1.8,7.2-2.8,10.6c-1,3.5-2,6.9-3.1,10.4C1278.4,123.1,1277.1,126.7,1275.7,130.3z"/>
		<path fill="#1F1813" d="M1300.9,111.4c-2,2-5.2,1.9-7.3,0c-1-1-1.6-2.3-1.7-3.6c-0.1-1.3,0.3-2.6,1.2-3.7c1.9-2.1,5.2-2.1,7.3,0
			C1302.7,106.1,1302.9,109.4,1300.9,111.4z"/>
		<path fill="#1F1813" d="M1262.9,71.5c0,0-2.3,1.4-5.7,3.5c-3.3,2.1-7.8,5.1-12,8.2c-4.2,3.1-8.3,6.2-11.3,8.8
			c-3,2.5-4.9,4.2-4.9,4.2c-2.5,2.2,0.1,6.4,2.6,4.2c5.2-4.4,10.7-8.6,16.4-12.6c5.7-4,11.6-7.7,17.9-11.3
			C1269,74.7,1265.9,69.7,1262.9,71.5z"/>
		<path fill="#1F1813" d="M1247.2,58.9c-5.8,5.1-11.2,10.2-16.5,15.7c-2.6,2.7-5.2,5.5-7.7,8.3c-1.2,1.4-2.5,2.8-3.7,4.2
			c-1.2,1.4-2.4,2.9-3.6,4.3c-1.1,1.3-0.6,2.7,0.3,3.4c1,0.7,2.4,0.8,3.5-0.4c9.7-11.3,20.4-21.9,32.2-31.7c1.3-1.1,0.9-2.7-0.3-3.6
			C1250.4,58.1,1248.5,57.7,1247.2,58.9z"/>
		<path fill="#1F1813" d="M1226.8,52.4c0,0-1.8,2-4.3,4.9c-1.3,1.5-2.7,3.2-4.2,5.1c-1.5,1.9-3.2,4-4.7,6c-3.2,4.1-6.2,8.3-8.3,11.5
			c-1.1,1.6-2,2.9-2.6,3.8c-0.6,0.9-1,1.5-1,1.5c-1.8,2.8,2.2,5.4,4.1,2.7c0,0,1.4-2.1,3.7-5.2c1.1-1.6,2.5-3.4,3.9-5.3
			c1.5-1.9,3-3.9,4.7-5.9c3.2-4,6.6-8,9.2-10.9c1.3-1.5,2.4-2.7,3.2-3.5c0.8-0.8,1.2-1.3,1.2-1.3c1.2-1.3,0.6-2.8-0.7-3.6
			C1229.8,51.2,1227.9,51,1226.8,52.4z"/>
		<path fill="#1F1813" d="M1203.7,48.6c-1.8,2.9-3.5,5.8-5.2,8.8c-1.7,3-3.4,6-5,9c-3.2,6-6.2,12-9,18.1c-1.4,3.1,2.8,5.3,4.3,2.2
			c5.9-12.2,12.6-23.9,20.1-35.4C1210.8,48.3,1205.5,45.6,1203.7,48.6z"/>
		<path fill="#1F1813" d="M1186.7,44.1c-2.3,5.8-4.4,11.6-6.5,17.4c-1,2.9-2,5.8-3,8.7c-1,2.9-1.9,5.9-2.8,8.9
			c-0.5,1.7,0.4,2.9,1.5,3.4c1.1,0.5,2.5,0.2,3-1.4c1.9-5.8,4-11.7,6.2-17.5c2.2-5.8,4.5-11.6,6.9-17.3c0.7-1.6-0.3-3-1.7-3.6
			C1189,42.2,1187.3,42.5,1186.7,44.1z"/>
		<path fill="#1F1813" d="M1171,43.9c0,0-0.9,2.3-2.3,5.8c-1.3,3.5-3,8.3-4.6,13c-3.2,9.5-5.8,19-5.8,19c-0.9,3.3,3.7,4.8,4.6,1.5
			c0.9-3.2,1.9-6.3,3-9.5c1-3.2,2.1-6.3,3.2-9.4c2.3-6.2,4.7-12.4,7.3-18.6C1178,42.5,1172.3,40.7,1171,43.9z"/>
	</g>
	<g>
		<path fill="#1F1813" d="M1328.8,249.5c-0.1-0.9-0.2-1.8-0.4-2.7c-0.1-0.9-0.2-1.8-0.4-2.6c-0.3-1.7-0.5-3.4-0.7-5.1
			c-0.1-0.8-0.2-1.7-0.3-2.5c-0.1-0.8-0.3-1.6-0.4-2.5c-0.2-1.6-0.4-3.3-0.6-4.9c-0.1-0.8-0.2-1.6-0.3-2.4l-0.3-2.4
			c-0.2-1.6-0.3-3.3-0.5-5c-0.2-1.7-0.4-3.3-0.6-5c-0.2-1.7-0.3-3.5-0.6-5.2c2,0.3,4.1,0.7,5.9,1.2c1.9,0.5,3.7,1.1,5.6,1.7
			c1.8,0.7,3.6,1.4,5.4,2.2c1.8,0.8,3.6,1.6,5.3,2.5c3.4,1.8,6.9,3.7,10.5,5.5c1.8,0.9,3.6,1.9,5.4,2.8c1.8,0.9,3.8,1.8,5.7,2.7
			c-3.3,2.3-6.4,4.3-9.6,6.3c-3.2,2-6.3,3.8-9.5,5.6c-3.2,1.8-6.3,3.5-9.5,5.1C1335.7,246.3,1332.4,248,1328.8,249.5z"/>
		<path fill="#1F1813" d="M1360,254c-2.8,0-5.1-2.3-5.2-5.2c-0.1-2.8,2.1-5.3,4.9-5.4c2.8-0.2,5.1,2.2,5.2,5.2
			C1365,251.6,1362.8,254.1,1360,254z"/>
		<path fill="#1F1813" d="M1361.3,198.9c0,0-2.6-0.7-6.5-1.5c-3.9-0.9-9-1.9-14.3-2.7c-5.2-0.8-10.4-1.4-14.2-1.8
			c-1.9-0.2-3.6-0.3-4.7-0.4c-1.1-0.1-1.8-0.1-1.8-0.1c-3.4-0.2-4.4,4.5-1.1,4.8c13.6,1.1,27.4,3.6,41.2,7.3
			c1.7,0.5,2.9-0.7,3.3-2.1C1363.6,201,1363,199.4,1361.3,198.9z"/>
		<path fill="#1F1813" d="M1359.2,178.9c-7.7-0.5-15.3-0.6-22.8-0.5c-7.6,0.2-15.1,0.6-22.4,1.3c-3.3,0.4-2.7,5.1,0.6,4.8
			c3.7-0.3,7.5-0.5,11.2-0.6c3.7-0.1,7.5-0.2,11.2-0.1c3.8,0,7.6,0.1,11.4,0.3c3.8,0.2,7.6,0.5,11.4,0.8c1.7,0.2,2.5-1.2,2.3-2.8
			c-0.1-0.8-0.4-1.5-0.8-2.1C1360.8,179.4,1360,179,1359.2,178.9z"/>
		<path fill="#1F1813" d="M1349.3,159.8c0,0-2.6,0.2-6.5,0.5c-3.9,0.3-9.1,0.8-14.2,1.5c-5.2,0.7-10.3,1.5-14,2.2
			c-3.8,0.7-6.3,1.2-6.3,1.2c-3.3,0.7-2.2,5.4,1.1,4.8c0,0,2.5-0.5,6.3-1.1c3.8-0.6,8.8-1.3,14-1.8c5.1-0.6,10.4-1,14.3-1.2
			c3.9-0.2,6.5-0.3,6.5-0.3C1354,165.6,1352.9,159.6,1349.3,159.8z"/>
		<path fill="#1F1813" d="M1335.6,140.9c-3.3,0.8-6.6,1.6-9.9,2.5c-3.3,0.9-6.5,1.8-9.8,2.8c-6.5,2-12.9,4.2-19.2,6.5
			c-3.2,1.2-1.7,5.7,1.5,4.6c6.4-2.2,12.8-4.2,19.3-6c6.5-1.8,13.2-3.5,19.9-4.9c1.7-0.3,2.2-2,1.7-3.4
			C1338.7,141.7,1337.3,140.5,1335.6,140.9z"/>
		<path fill="#1F1813" d="M1326.8,125.7c-11.4,5-22.5,10.3-33.4,16.1c-3,1.6-1.2,6.2,1.8,4.6c5.5-2.8,11.1-5.4,16.7-8
			c5.7-2.6,11.3-5,17.1-7.3C1332.3,129.9,1330.1,124.3,1326.8,125.7z"/>
		<path fill="#1F1813" d="M1315.9,114.5c0,0-2.3,1-5.7,2.5c-3.4,1.5-8,3.7-12.4,5.9c-9,4.4-17.5,9.3-17.5,9.3
			c-2.9,1.7-0.8,6,2.2,4.4c11.7-6.3,23.6-11.9,36.1-16.9C1321.8,118.4,1319.1,113.1,1315.9,114.5z"/>
	</g>
</g>
<g>
	<g>
		<path fill="#210E14" d="M461.1,728.7c-5-1.5-10.1-3-15.1-4.4c-5.1-1.4-10.2-2.6-15.3-3.8c-10.2-2.4-20.4-4.4-30.7-6.1
			c-2.6-0.4-4.6,1.1-5.2,2.9c-0.6,1.7,0.1,3.7,2.8,4.3c10.2,2.2,20.3,4.7,30.3,7.5c5,1.4,10.1,2.9,15.1,4.5c5,1.6,10,3.3,14.9,5.1
			c2.5,0.9,4.8-1.1,5.5-3.6C464.2,732.5,463.7,729.5,461.1,728.7z"/>
		<path fill="#210E14" d="M452.8,751.2c-3.9-1.9-7.8-3.8-11.8-5.6c-3.9-1.8-7.9-3.5-11.9-5.2c-8-3.3-16.1-6.3-24.2-9
			c-2.5-0.8-4.6,0.5-5.4,2.2c-0.8,1.7-0.3,3.9,2.2,4.9c8,3.1,15.9,6.5,23.8,10.1c4,1.8,7.8,3.7,11.7,5.7c3.9,2,7.7,4,11.5,6.1
			c2.4,1.3,4.7-0.3,5.8-2.7c0.3-0.6,0.5-1.2,0.6-1.9c0.1-0.6,0.1-1.3,0-1.9C454.7,752.9,454.1,751.8,452.8,751.2z"/>
		<path fill="#210E14" d="M449.5,784.3c-17-13.6-35.1-25.2-53.9-35c-2.4-1.2-4.5-0.2-5.5,1.3c-1,1.5-0.9,3.7,1.5,5
			c18.3,10.6,35.8,23,52.2,37.4c2.1,1.8,4.6,0.6,6.1-1.6c0.7-1.1,1.2-2.4,1.2-3.7C451.1,786.4,450.6,785.2,449.5,784.3z"/>
		<path fill="#210E14" d="M427.6,793.8c-4.7-3.3-9.4-6.5-14.1-9.7c-2.4-1.6-4.7-3.1-7.1-4.6c-2.4-1.5-4.8-3-7.3-4.5
			c-2.3-1.4-4.6-0.5-6,0.9c-1.3,1.5-1.4,3.7,0.8,5.2c2.4,1.6,4.7,3.2,7,4.9c2.3,1.6,4.6,3.3,6.9,5c4.6,3.3,9.1,6.8,13.6,10.3
			c2.1,1.7,4.8,0.7,6.4-1.2C429.4,798.2,429.8,795.4,427.6,793.8z"/>
		<path fill="#210E14" d="M422.7,820.2c-2.6-2.4-5.2-4.8-7.8-7.2c-2.7-2.4-5.3-4.7-8-7c-5.4-4.6-10.8-9.1-16.4-13.5
			c-2.1-1.7-4.6-1.1-6,0.2c-1.4,1.4-1.9,3.5,0.1,5.3c5.3,4.6,10.5,9.4,15.7,14.3c2.6,2.4,5.1,4.9,7.7,7.4c2.5,2.5,5,5,7.5,7.5
			c1.8,1.9,4.8,1.3,6.5-0.6C423.8,824.8,424.6,822,422.7,820.2z"/>
		<path fill="#210E14" d="M409.8,838.7c-3-3.8-6-7.5-9.1-11.1c-3.1-3.6-6.2-7.2-9.4-10.8c-6.4-7.1-13-14-19.8-20.6
			c-1.9-1.9-4.4-1.7-5.8-0.6c-0.7,0.5-1.2,1.3-1.3,2.2c-0.1,0.9,0.2,1.9,1.1,2.8c6.5,6.9,12.7,14.1,18.8,21.5
			c3.1,3.7,6,7.4,8.9,11.2c2.9,3.8,5.8,7.6,8.6,11.5c1.6,2.2,4.4,1.8,6.5,0.3c1-0.7,1.8-1.8,2.1-3
			C410.8,841,410.6,839.8,409.8,838.7z"/>
		<path fill="#210E14" d="M389.8,845.2c-4.6-7.3-9.4-14.4-14.5-21.5c-0.8-1.1-1.8-1.6-2.9-1.8c-1-0.1-2.1,0.2-3,0.7
			c-1.8,1-2.7,3.2-1.3,5.4c4.8,7.2,9.2,14.5,13.5,22.1c1.3,2.4,4.1,2.4,6.2,1.1C389.9,850,391.2,847.5,389.8,845.2z"/>
		<path fill="#210E14" d="M382.6,862.1c0,0-7.3-9.5-14.7-18.8c-7.4-9.3-15-18.6-15-18.6c-3.4-4.1-8.9,0.6-5.7,5c0,0,1.8,2.4,4.4,6
			c2.6,3.6,6.1,8.4,9.6,13.3c6.9,9.7,13.7,19.5,13.7,19.5c0.8,1.1,1.8,1.6,3,1.5c1.1,0,2.3-0.5,3.3-1.4
			C383.1,867,384.3,864.2,382.6,862.1z"/>
	</g>
	<g>
		<path fill="#210E14" d="M371.1,886.8c-3.9-9.8-8.1-19.5-12.6-28.9c-4.5-9.5-9.3-18.8-14.4-27.9c-1.3-2.3-3.7-2.8-5.4-2.2
			c-1.7,0.7-2.9,2.3-1.6,4.8c4.6,9.3,9,18.8,13.1,28.5c4,9.6,7.8,19.4,11.2,29.4c0.9,2.6,3.8,3,6.3,2c1.2-0.5,2.4-1.3,3.1-2.2
			C371.4,889.3,371.6,888.1,371.1,886.8z"/>
		<path fill="#210E14" d="M348.3,894.4c-1.8-8.5-4-17-6.4-25.3c-1.2-4.1-2.5-8.3-3.8-12.3c-1.3-4.1-2.8-8.2-4.2-12.2
			c-0.9-2.5-3.3-3.3-5.1-2.8c-1.9,0.4-3.3,2.1-2.5,4.7c1.3,4.1,2.5,8.2,3.7,12.4c1.1,4.1,2.2,8.3,3.2,12.5c1,4.2,2,8.4,2.8,12.7
			c0.9,4.3,1.7,8.6,2.4,12.8c0.4,2.7,3.2,3.5,5.7,2.9C346.6,899.1,348.9,897.1,348.3,894.4z"/>
		<path fill="#210E14" d="M320.4,912.4c0-10.8-0.5-21.7-1.6-32.3c-1-10.6-2.6-21.2-4.7-31.6c-0.5-2.6-2.7-3.7-4.5-3.5
			c-0.9,0.1-1.7,0.6-2.3,1.3c-0.6,0.7-0.9,1.7-0.7,3c1.6,10.4,2.7,21.1,3.2,31.7c0.5,10.7,0.6,21.6,0.1,32.3c-0.1,2.8,2.4,4,5.1,3.8
			C317.7,916.9,320.4,915.2,320.4,912.4z"/>
		<path fill="#210E14" d="M299.3,901.2c-0.6-11.4-1.7-22.8-3.1-34.1c-0.3-2.7-2.5-4-4.4-4c-0.5,0-1,0.1-1.4,0.2
			c-0.4,0.1-0.9,0.4-1.2,0.7c-0.7,0.6-1.1,1.6-1,2.9c0.9,11.3,1.4,22.7,1.4,34.1c0,1.3,0.6,2.4,1.5,3.1c0.9,0.7,2.1,1,3.4,1
			C297,905.3,299.4,903.9,299.3,901.2z"/>
		<path fill="#210E14" d="M275.6,913.8c0.6-7.1,1-14.2,1.3-21.2c0.3-7.1,0.4-14.1,0.4-21.2c0-1.3-0.5-2.4-1.2-3.2
			c-0.7-0.8-1.7-1.3-2.7-1.4c-1.9-0.3-3.9,0.7-4,3.4c-0.3,7.1-0.8,14.1-1.4,21.1c-0.6,7-1.3,14.1-2.2,21.2c-0.3,2.7,2,4.4,4.5,4.8
			C272.7,917.7,275.4,916.5,275.6,913.8z"/>
		<path fill="#210E14" d="M253.1,915.3c4.3-18.8,7.5-37.5,9.4-56.5c0.3-2.7-1.4-4.4-3.1-4.9c-1.7-0.5-3.6,0.3-4,3
			c-2.7,18.9-6.7,37.4-11.9,56c-0.7,2.6,1.3,4.6,3.8,5.2C249.6,918.7,252.4,918,253.1,915.3z"/>
		<path fill="#210E14" d="M235.5,903.7c2.8-8.2,5.4-16.5,7.7-24.7c0.7-2.6-0.9-4.6-2.8-5.3c-1.9-0.7-4.2-0.1-5,2.5
			c-2.7,8.1-5.6,16.2-8.8,24.3c-1,2.5,0.7,4.6,3,5.5C231.9,906.9,234.6,906.3,235.5,903.7z"/>
		<path fill="#210E14" d="M217.9,908.6c0,0,2.9-11.6,5.5-23.2c2.7-11.6,5.1-23.3,5.1-23.3c0.5-2.6-1-4.3-2.8-4.6
			c-1.8-0.3-4,0.7-4.7,3.3c0,0-3,11.5-6.3,23c-3.2,11.5-6.7,22.9-6.7,22.9c-0.8,2.6,1.3,4.5,3.8,5
			C214.4,912.1,217.2,911.2,217.9,908.6z"/>
	</g>
	<g>
		<path fill="#210E14" d="M191.3,915c5.3-9.2,10.2-18.5,14.8-27.8c2.3-4.7,4.5-9.4,6.6-14.2c2.1-4.8,4.2-9.6,6.1-14.4
			c1-2.5-0.1-4.7-1.7-5.6c-0.8-0.4-1.7-0.7-2.5-0.4c-0.8,0.2-1.7,0.9-2.2,2.1c-2.2,4.7-4.5,9.4-6.8,14.1c-2.4,4.7-4.8,9.3-7.3,13.9
			c-5,9.1-10.4,18.2-16.1,27.1c-1.5,2.3,0,4.8,2.3,6.2c1.1,0.7,2.5,1.1,3.7,1C189.5,916.8,190.6,916.2,191.3,915z"/>
		<path fill="#210E14" d="M171.2,902c2.7-3.3,5.5-6.8,8.1-10.3c2.6-3.5,5.2-7,7.7-10.5c2.5-3.5,4.9-7.1,7.3-10.7
			c2.4-3.6,4.7-7.3,6.9-10.9c1.4-2.3,0.5-4.6-1-5.7c-1.5-1.2-3.7-1.2-5.2,1c-2.4,3.6-4.9,7.1-7.4,10.6c-2.5,3.5-5.1,6.9-7.8,10.3
			s-5.4,6.8-8.2,10.1c-2.8,3.3-5.7,6.7-8.6,9.9c-1.8,2-0.8,4.7,1.3,6.2C166.4,903.6,169.4,904.1,171.2,902z"/>
		<path fill="#210E14" d="M139.7,891.3c4.3-3.4,8.4-6.8,12.4-10.4c4.1-3.6,8-7.2,11.9-11c7.7-7.4,15-15.3,21.8-23.3
			c1.7-2.1,1.3-4.4,0-5.7c-0.6-0.7-1.5-1-2.4-1c-0.9,0-1.9,0.4-2.8,1.4c-7.2,7.7-14.9,15.2-22.8,22.3c-4,3.5-8.1,7-12.3,10.4
			c-4.2,3.4-8.5,6.6-12.9,9.8c-2.2,1.6-1.6,4.4,0.2,6.3C134.5,892,137.5,893,139.7,891.3z"/>
		<path fill="#210E14" d="M135.3,867.8c2.1-1.9,4.2-3.8,6.3-5.7c2.1-1.9,4.2-3.9,6.2-5.9c4.1-3.9,8.2-7.9,12.2-12
			c1.9-1.9,1.6-4.5,0.4-6c-1.2-1.6-3.2-2.3-5.2-0.4c-4.2,3.9-8.4,7.7-12.7,11.4c-2.2,1.9-4.3,3.7-6.5,5.6c-2.2,1.8-4.4,3.6-6.6,5.4
			c-2.1,1.7-1.7,4.5-0.2,6.4C130.7,868.6,133.3,869.6,135.3,867.8z"/>
		<path fill="#210E14" d="M110.7,857.2c11.8-8,23.2-16.4,34.2-25.2c2.1-1.7,2.1-4.3,1.2-6c-1-1.7-3-2.6-5.2-1
			c-11.4,8.3-23.1,16.2-35.3,23.6c-2.3,1.4-2.2,4.3-0.9,6.5C106,857.3,108.4,858.8,110.7,857.2z"/>
		<path fill="#210E14" d="M95.5,840.5c8.6-4.1,17.2-8.6,25.5-13.2c4.2-2.3,8.3-4.7,12.3-7.2c2-1.2,4.1-2.5,6.1-3.7
			c2-1.3,4-2.5,6-3.8c2.3-1.5,2.6-3.8,1.9-5.5c-0.7-1.7-2.5-2.6-4.9-1.3c-4.1,2.4-8.2,4.7-12.4,7c-4.2,2.3-8.4,4.5-12.7,6.6
			c-8.5,4.3-17.3,8.3-26.1,12c-1.2,0.5-1.9,1.5-2.2,2.6c-0.1,0.6-0.1,1.2-0.1,1.8c0.1,0.6,0.3,1.2,0.6,1.8
			C90.7,839.9,93,841.7,95.5,840.5z"/>
		<path fill="#210E14" d="M93.6,819.6c4.1-1.4,8.1-3,12.2-4.5c4-1.6,8-3.2,12-4.9c2.5-1.1,3-3.6,2.4-5.5c-0.4-0.9-1-1.8-1.8-2.3
			c-0.8-0.5-1.9-0.6-3.2-0.1c-4,1.5-8.1,3-12.2,4.4c-4.1,1.4-8.2,2.7-12.4,4c-2.6,0.8-3.3,3.5-2.4,5.8
			C88.9,818.6,91,820.5,93.6,819.6z"/>
		<path fill="#210E14" d="M78.7,808.8c0,0,10.9-5,21.6-10.2c10.8-5.2,21.4-10.5,21.4-10.5c2.4-1.2,2.7-3.4,1.8-5
			c-0.8-1.6-2.9-2.7-5.4-1.7c0,0-10.9,4.8-22,9.4c-11,4.6-22.1,9-22.1,9C69.1,801.9,73.8,811.2,78.7,808.8z"/>
	</g>
	<g>
		<path fill="#210E14" d="M57.2,792.1c5.2-0.8,10.4-1.7,15.5-2.6c5.1-1,10.3-2,15.4-3.2c10.2-2.3,20.3-4.9,30.3-7.8
			c2.6-0.8,3.6-3,3.4-4.8c-0.2-1.8-1.7-3.3-4.3-2.6c-10.1,2.5-20.3,4.6-30.6,6.4c-5.2,0.9-10.4,1.7-15.6,2.4
			c-5.2,0.7-10.4,1.3-15.6,1.9c-2.7,0.3-3.8,3-3.4,5.7C52.7,790,54.5,792.5,57.2,792.1z"/>
		<path fill="#210E14" d="M54.9,768.1c8.7,0.1,17.4-0.1,26-0.6c8.7-0.5,17.3-1.3,25.8-2.4c2.7-0.3,3.9-2.5,3.9-4.3
			c0-0.9-0.4-1.8-1.1-2.5c-0.6-0.7-1.6-1.1-3-0.9c-8.5,0.7-17.1,1.1-25.8,1.2c-8.6,0.1-17.3-0.1-26-0.6c-2.7-0.2-4.1,2.3-4.1,4.9
			c0,1.3,0.4,2.6,1.1,3.6C52.4,767.5,53.5,768.1,54.9,768.1z"/>
		<path fill="#210E14" d="M43.5,736.9c5.3,1.2,10.6,2.3,15.9,3.2c2.7,0.5,5.3,0.9,7.9,1.3c2.6,0.4,5.3,0.8,8,1.1
			c5.3,0.7,10.7,1.2,16,1.7c5.3,0.4,10.5,0.7,15.9,0.9c2.7,0.1,4.1-1.7,4.4-3.6c0.2-1.8-0.9-3.7-3.5-3.9c-5.3-0.4-10.5-0.9-15.8-1.6
			c-5.3-0.7-10.5-1.5-15.8-2.4c-5.3-0.9-10.5-2-15.8-3.2c-5.2-1.2-10.5-2.5-15.8-4c-2.7-0.7-4.4,1.5-4.7,4.1
			C39.8,733.3,40.8,736.3,43.5,736.9z"/>
		<path fill="#210E14" d="M59.2,718.9c5.6,1,11.3,1.8,16.9,2.6c5.6,0.8,11.2,1.4,16.9,2c1.3,0.1,2.4-0.3,3.3-0.9
			c0.8-0.7,1.4-1.6,1.7-2.5c0.5-1.9-0.3-4-3-4.4c-2.8-0.4-5.6-0.9-8.4-1.3c-2.8-0.5-5.6-1-8.4-1.5c-5.6-1-11.2-2.1-16.7-3.4
			c-2.6-0.6-4.6,1.5-5.2,3.9C55.7,715.7,56.6,718.4,59.2,718.9z"/>
		<path fill="#210E14" d="M52.1,693c13.6,4.2,27.4,7.9,41.1,10.9c2.6,0.6,4.6-1,5.3-2.8c0.4-0.9,0.4-1.9,0-2.8
			c-0.3-0.8-1.1-1.6-2.4-1.9c-13.6-3.7-27.1-8-40.5-12.8c-1.3-0.5-2.5-0.2-3.4,0.4c-1,0.7-1.7,1.7-2.2,2.9
			C49.1,689.4,49.6,692.2,52.1,693z"/>
		<path fill="#210E14" d="M55.7,670.7c4.3,2.1,8.6,4.1,13,6.1c4.4,2,8.8,3.8,13.2,5.6c8.9,3.6,17.8,6.9,26.7,9.9
			c2.5,0.8,4.7-0.4,5.5-1.9c0.9-1.6,0.4-3.6-2.1-4.6c-8.8-3.4-17.5-7.1-26.2-11.1c-4.3-2-8.7-4.1-13-6.2c-4.3-2.2-8.5-4.4-12.7-6.7
			c-2.4-1.3-4.8,0.2-6,2.5C53.1,666.6,53.2,669.5,55.7,670.7z"/>
		<path fill="#210E14" d="M70.9,656.1c1.8,1.1,3.7,2.3,5.5,3.4c1.9,1.1,3.7,2.2,5.6,3.3c3.8,2.2,7.5,4.3,11.3,6.3
			c2.4,1.3,4.7,0.1,5.7-1.6c1.1-1.7,1.1-4-1.2-5.4c-3.7-2.2-7.4-4.5-11-6.8c-1.8-1.2-3.6-2.4-5.4-3.6c-1.8-1.2-3.6-2.4-5.3-3.6
			c-2.2-1.5-4.8-0.4-6,1.7C68.7,651.9,68.6,654.7,70.9,656.1z"/>
		<path fill="#210E14" d="M70,637.8c0,0,10.7,5.4,21.4,10.6c10.7,5.2,21.6,10.2,21.6,10.2c2.5,1.1,4.3,0,5.1-1.7
			c0.8-1.7,0.3-4-2.1-5.2c0,0-10.6-5.6-21-11.3c-10.5-5.7-20.9-11.7-20.9-11.7C69.4,625.9,65.1,635.4,70,637.8z"/>
	</g>
	<g>
		<path fill="#210E14" d="M69.8,610.5c15.4,14.3,31.9,27.6,48.8,39.5c2.2,1.5,4.6,1,5.9-0.3c1.3-1.3,1.5-3.4-0.6-5
			c-16.3-12.7-32.2-26.7-46.9-41.7c-1.9-1.9-4.7-1.1-6.6,0.8C68.5,605.7,67.8,608.7,69.8,610.5z"/>
		<path fill="#210E14" d="M87,593.8c5.4,6.9,10.9,13.6,16.7,20c5.8,6.5,11.8,12.7,17.9,18.7c1.9,1.9,4.4,1.5,5.8,0.3
			c1.4-1.2,2-3.3,0.2-5.3c-5.8-6.3-11.5-12.8-17-19.5c-5.4-6.7-10.7-13.6-15.7-20.7c-1.6-2.2-4.4-1.8-6.4-0.1
			c-1,0.8-1.8,1.9-2.1,3.1C86,591.5,86.1,592.7,87,593.8z"/>
		<path fill="#210E14" d="M104.3,565.5c4.7,9.8,9.9,19.3,15.4,28.4c5.6,9.2,11.6,18,17.9,26.4c0.8,1.1,1.8,1.6,2.8,1.8
			c1,0.2,2,0,2.8-0.5c1.6-1,2.3-3,0.8-5.2c-5.9-8.7-11.5-17.8-16.6-27.2c-5.1-9.3-9.8-19.1-14.1-29.1c-1.1-2.5-3.9-2.6-6.2-1.1
			C104.8,560.3,103.1,563,104.3,565.5z"/>
		<path fill="#210E14" d="M128.2,566.4c5.6,10,11.4,19.8,17.5,29.3c1.5,2.2,4,2.5,5.8,1.7c0.9-0.4,1.6-1.1,1.9-2
			c0.3-0.9,0.3-1.9-0.4-3.1c-5.7-9.8-11.1-19.8-16.1-30.1c-1.2-2.4-4-2.6-6.2-1.6c-1.1,0.5-2.1,1.3-2.6,2.3
			C127.6,564.1,127.5,565.3,128.2,566.4z"/>
		<path fill="#210E14" d="M144,544.8c5.2,13.3,10.8,26.2,17,38.9c1.2,2.4,3.6,2.9,5.5,2.4c1.9-0.5,3.2-2.3,2.2-4.8
			c-5.6-13-10.6-26.2-15.2-39.7c-0.9-2.6-3.7-3.1-6.2-2.3c-1.2,0.4-2.3,1.1-3,2.1C143.8,542.4,143.5,543.6,144,544.8z"/>
		<path fill="#210E14" d="M163.7,533.6c2.1,9.4,4.5,18.7,7.2,27.8c0.7,2.3,1.4,4.6,2.1,6.8c0.7,2.3,1.4,4.6,2.2,6.8
			c1.5,4.5,3.1,9,4.7,13.5c0.9,2.5,3.2,3.4,4.9,3c1.8-0.3,3.1-1.8,2.3-4.4c-5.7-18.2-10.2-36.6-13.6-55.6c-0.5-2.7-3.2-3.5-5.7-3
			C165.3,529.1,163,530.9,163.7,533.6z"/>
		<path fill="#210E14" d="M184.5,536.5c1,8.6,2.3,17.2,3.8,25.6c0.5,2.6,2.8,3.8,4.8,3.6c2-0.2,3.8-1.8,3.5-4.4
			c-1.1-8.5-2-17.1-2.6-25.8c-0.2-2.7-2.6-3.9-5.1-3.6c-1.2,0.1-2.4,0.6-3.2,1.3C184.8,534,184.4,535.1,184.5,536.5z"/>
		<path fill="#210E14" d="M198.3,524.4c0,0,2.4,11.7,5.1,23.3c2.6,11.6,5.4,23.2,5.4,23.2c1.3,5.3,8.2,3.2,7.3-2
			c0,0-2.2-11.7-4.2-23.5c-2-11.8-3.9-23.6-3.9-23.6c-0.4-2.7-3.1-3.4-5.6-2.9C200,519.7,197.8,521.8,198.3,524.4z"/>
	</g>
	<g>
		<path fill="#210E14" d="M219.5,507.1c-1.5,21.2-1.7,42-0.5,62.9c0.2,2.7,2.1,4.2,3.9,4.3c1.8,0.2,3.6-0.8,3.6-3.5
			c-0.3-20.9,0.9-41.7,3.4-62.7c0.3-2.7-2.1-4.3-4.8-4.5C222.5,503.3,219.7,504.4,219.5,507.1z"/>
		<path fill="#210E14" d="M243.3,510.2c-0.5,2.1-1,4.2-1.5,6.3c-0.5,2.1-0.9,4.3-1.4,6.4c-0.9,4.3-1.7,8.5-2.4,12.8
			c-1.4,8.5-2.6,17-3.5,25.6c-0.1,1.3,0.3,2.4,0.9,3.2c0.3,0.4,0.7,0.7,1.1,1c0.4,0.3,0.9,0.5,1.3,0.6c1.9,0.4,3.9-0.5,4.3-3.2
			c1.2-8.6,2.8-16.9,4.6-25.4c0.9-4.2,1.9-8.4,3-12.7c1.1-4.2,2.2-8.5,3.4-12.6c0.8-2.6-1.3-4.6-3.9-5
			C246.8,506.7,243.9,507.6,243.3,510.2z"/>
		<path fill="#210E14" d="M276.2,506.1c-9.4,19.6-16.8,39.8-22.1,60.3c-0.7,2.6,0.8,4.5,2.5,5.1c0.9,0.3,1.8,0.3,2.7-0.2
			c0.8-0.4,1.6-1.2,1.9-2.4c6.2-20.2,14.5-40,24.8-59.2c0.7-1.2,0.5-2.4,0-3.3c-0.6-1-1.7-1.8-2.9-2.2
			C280.5,503.2,277.4,503.6,276.2,506.1z"/>
		<path fill="#210E14" d="M290.4,525.3c-4.4,10.6-8.4,21.3-12,32c-0.8,2.5,0.5,4.7,2.3,5.6c0.9,0.5,1.9,0.5,2.7,0.3
			c0.9-0.3,1.7-1,2.2-2.2c4.1-10.6,8.6-21,13.5-31.4c1.2-2.4-0.4-4.8-2.6-5.9C294.2,522.7,291.4,522.8,290.4,525.3z"/>
		<path fill="#210E14" d="M317.2,524.3c-7.2,12.3-13.7,24.7-19.8,37.6c-0.6,1.2-0.6,2.4-0.2,3.4c0.2,0.5,0.4,1,0.7,1.4
			c0.3,0.4,0.7,0.8,1.1,1.1c1.6,1.1,3.8,1.1,5.1-1.3c6.7-12.5,13.8-24.6,21.6-36.6c1.5-2.3,0.1-4.8-2-6.3c-0.5-0.4-1.1-0.7-1.7-0.8
			c-0.6-0.2-1.2-0.2-1.8-0.2C318.9,522.5,317.8,523.1,317.2,524.3z"/>
		<path fill="#210E14" d="M338.2,532.7c-12.1,15.1-23,30.6-32.9,46.9c-1.4,2.3-0.7,4.6,0.7,5.7c1.4,1.2,3.4,1.3,4.9-0.9
			c10.6-15.8,22.3-30.8,35.1-45.2c1.8-2,0.8-4.7-1.2-6.3C342.7,531.1,339.9,530.5,338.2,532.7z"/>
		<path fill="#210E14" d="M348.9,550.7c-6.1,6.2-12,12.5-17.7,18.9c-1.8,2-1.2,4.5,0.2,6c1.4,1.5,3.7,1.9,5.6,0
			c5.9-6.2,12.1-12.2,18.5-18.1c2-1.8,1.4-4.5-0.3-6.2c-0.8-0.9-1.9-1.5-3.1-1.7C351.1,549.5,349.9,549.8,348.9,550.7z"/>
		<path fill="#210E14" d="M367,554c0,0-7.6,9.2-15.1,18.5c-7.5,9.3-14.8,18.7-14.8,18.7c-1.6,2.1-1,4.3,0.5,5.3
			c1.5,1,3.8,1.2,5.6-0.9c0,0,7.8-9,15.7-18c7.9-8.9,16-17.7,16-17.7c1.8-2,0.8-4.6-1.3-6.1c-1-0.8-2.3-1.3-3.5-1.3
			C369,552.6,367.8,553,367,554z"/>
	</g>
	<g>
		<path fill="#210E14" d="M393.6,559.8c-8.7,5.9-17.2,12.2-25.4,18.7c-4.1,3.2-8.2,6.5-12.1,9.9c-4,3.4-7.9,6.8-11.8,10.3
			c-2,1.8-1.9,4.2-0.9,5.8c1,1.6,2.9,2.3,5,0.6c4-3.3,8.1-6.6,12.3-9.7c4.1-3.2,8.3-6.3,12.6-9.3c8.5-6.1,17.3-12,26.3-17.5
			c1.2-0.7,1.7-1.8,1.7-3c0-1.2-0.4-2.5-1.1-3.6C398.5,559.7,395.9,558.2,393.6,559.8z"/>
		<path fill="#210E14" d="M406.1,580.3c-15.7,7.3-31,15.9-45.4,25.1c-2.2,1.5-2.5,3.9-1.6,5.6c0.8,1.7,2.8,2.7,5.2,1.3
			c14.7-8.6,30.4-16.4,46.4-23c2.5-1,2.7-3.9,1.6-6.2C411.1,580.8,408.5,579.1,406.1,580.3z"/>
		<path fill="#210E14" d="M429.9,603.5c-5.3,1.2-10.6,2.6-15.7,4c-2.6,0.7-5.1,1.5-7.7,2.3c-2.6,0.8-5.1,1.6-7.7,2.5
			c-10.2,3.4-20,7.2-29.7,11.6c-2.5,1.1-3,3.4-2.4,5.1c0.6,1.8,2.3,3,4.8,2c9.9-3.9,19.9-7.3,30.2-10.2c2.6-0.7,5.2-1.4,7.8-2.1
			c2.6-0.7,5.2-1.3,7.8-1.9c5.2-1.2,10.5-2.3,15.9-3.3c2.7-0.5,3.3-3.2,2.5-5.8c-0.4-1.3-1.2-2.5-2.1-3.3
			C432.5,603.5,431.2,603.1,429.9,603.5z"/>
		<path fill="#210E14" d="M423.6,626.5c-11,3.2-21.7,6.7-32.5,10.6c-2.5,0.9-3.3,3.3-3,5.2c0.4,1.9,2,3.4,4.6,2.6
			c2.7-0.8,5.4-1.7,8.2-2.5c2.7-0.8,5.4-1.6,8.2-2.3c5.5-1.5,11-2.9,16.5-4.2c2.6-0.6,3.5-3.3,3-5.7
			C428.2,627.8,426.2,625.8,423.6,626.5z"/>
		<path fill="#210E14" d="M441.2,646.8c-7,1-14,2.2-21,3.5c-7,1.3-13.9,2.8-20.8,4.4c-2.6,0.6-3.7,2.9-3.6,4.8
			c0.2,1.9,1.5,3.6,4.2,3.2c6.9-1.3,13.9-2.4,20.9-3.4c7-1,14.1-1.9,21.1-2.5c2.7-0.3,3.9-2.9,3.6-5.5
			C445.5,648.8,443.9,646.4,441.2,646.8z"/>
		<path fill="#210E14" d="M447.7,668.5c-19.1-0.1-38.4,1.1-57.1,3.4c-2.6,0.3-4,2.4-4.1,4.1c-0.1,1.8,1.2,3.4,3.9,3.2
			c18.8-1.5,38.1-1.8,57.2-0.8c2.7,0.2,4.2-2.3,4.3-4.9C451.8,671.1,450.4,668.5,447.7,668.5z"/>
		<path fill="#210E14" d="M440.3,688.2c-4.3-0.5-8.6-0.9-12.9-1.2c-4.3-0.3-8.7-0.6-13-0.8c-2.7-0.1-4.3,1.9-4.5,3.9
			c-0.3,2,0.7,4.1,3.4,4.4c4.3,0.4,8.6,0.9,12.9,1.4c4.3,0.5,8.5,1.1,12.8,1.8c1.3,0.2,2.4-0.2,3.3-1c0.8-0.8,1.4-1.9,1.5-3.1
			C444.1,691.1,443,688.5,440.3,688.2z"/>
		<path fill="#210E14" d="M449,704.3c0,0-3-0.1-7.5-0.1c-4.5-0.1-10.5-0.1-16.4-0.1c-12,0-23.9,0.1-23.9,0.1c-1.4,0-2.3,0.5-3,1.2
			c-0.6,0.7-0.9,1.6-0.9,2.5c0,1.8,1.4,3.7,4.1,3.8c0,0,11.9,0.4,23.9,1.1c11.9,0.6,23.9,1.5,23.9,1.5
			C454.7,714.7,454.4,704.4,449,704.3z"/>
	</g>
</g>
<g>
	<g>
		<path fill="#1F1813" d="M766.3,903c8.8-6.2,16.6-13,23.7-20.1l2.6-2.7l1.3-1.3c0.4-0.5,0.8-0.9,1.3-1.4c1.6-1.8,3.3-3.7,4.9-5.5
			c3.1-3.8,6.2-7.6,8.9-11.6c2.8,2.6,4.3,4.1,5.9,5.6c1.3,1.2,2.6,2.5,4.2,3.9c1.2-0.5,2.3-1,3.4-1.5c1.1-0.5,2.1-1,2.9-1.7
			c7.6-6,14.9-12.5,21.5-19.6c1.7-1.7,3.3-3.6,4.9-5.4c1.6-1.8,3.2-3.6,4.7-5.6c1.5-1.9,3-3.8,4.5-5.7l4.2-5.9c1.1-1.4,2-3,3-4.5
			l2.9-4.6l2.7-4.7l1.3-2.4l0.7-1.2l0.6-1.2l2.5-4.8l1.3-2.4l1.2-2.4c0.8-1.6,1.6-3.2,2.4-4.8l0.6-1.2l0.6-1.2l1.1-2.4
			c0.7-1.4,1.3-2.8,1.8-4.2c0.5-1.4,0.9-2.8,1.2-4.2c0.3-1.4,0.6-2.8,0.8-4.2c0.1-0.7,0.2-1.4,0.2-2.1c0-0.7,0.1-1.4,0.1-2.1
			c0-2.8-0.2-5.5-0.8-8.3c-0.7-2.7-1.6-5.4-2.8-8.1c-0.3-0.6-0.6-1.2-0.9-1.9l-0.9-1.9c-0.6-1.2-1.2-2.4-1.8-3.7l-1.7-3.6
			c-0.6-1.2-1.2-2.3-1.8-3.5c-1.2-2.3-2.4-4.5-3.6-6.6c-1.3-2.1-2.6-4.2-3.8-6.1c0.5-1.3,1.1-2.3,1.8-3.1c0.7-0.8,1.4-1.4,2.3-1.9
			c1.9,2.2,2.8,5.1,3.9,7.9c0.5,1.5,1,2.9,1.5,4.3c0.5,1.4,1.1,2.7,1.8,4c1.2,2.2,4.9,0.7,3.6-1.5c-1.4-2.5-2.5-5.4-3.5-8.2
			c-0.5-1.4-1-2.8-1.6-4.1c-0.6-1.3-1.3-2.6-2.1-3.8c2.5-0.7,5.1-1.2,6.8-3.2c0.3,0.5,0.7,1,1,1.5c0,0.2,0,0.3,0,0.5
			c0.5,1.6,1,3.3,1.7,4.9c0.6,1.6,1.1,3.2,1.8,4.8c0.6,1.6,1.3,3.3,1.9,4.9c0.6,1.6,1.1,3.3,1.6,5c0.8,2.8,4.9,1,4.1-1.9
			c-0.2-0.7-0.4-1.4-0.6-2.1c-0.3-0.7-0.5-1.4-0.8-2.1c-0.5-1.4-1-2.8-1.6-4.2c-0.5-1.4-1-2.7-1.5-4.1c-0.5-1.4-1.1-2.7-1.5-4.1
			c0.3-1.9,0.5-3.4,0.8-5.2c1.2,2.2,2.1,4.5,2.5,7c0.5,2.6,4.3,1.7,3.8-1c-0.3-1.5-0.7-3-1.3-4.4c1.9,0.6,3.8,0.7,5.6,0.7
			c0,0,0,1.1-0.1,2.7c-0.1,1.6-0.1,3.8-0.2,6c-0.3,4.4-0.7,8.8-0.7,8.8c-0.3,2.7,3.6,3.2,3.9,0.4c0,0,0.3-4.6,0.7-9.1
			c0.1-2.3,0.1-4.6,0.2-6.3c0-1.7,0.1-2.9,0.1-2.9c2.6-0.1,3.2,2.2,4,3.8c-0.1,1.7-0.3,3.4-0.7,5.1c-0.8,2.7,2.9,4.2,3.7,1.4
			c0.5-1.8,0.7-3.6,0.9-5.4c1.2-0.4,2.8,0,4.4,0.8c-0.7,3.1-2.1,5.9-3.7,8.6c-1.6,2.7-3.2,5.3-4.9,7.9c-1.5,2.4,1.6,5.1,3.1,2.7
			c0.8-1.4,1.7-2.7,2.6-4.1c0.9-1.4,1.7-2.7,2.5-4.1c0.8-1.4,1.5-2.8,2.2-4.3c0.7-1.5,1.3-3,1.7-4.6c0.1,0,0.1,0.1,0.2,0.1
			c2,1.3,3,2.8,3.2,4.7c0.3,1.9-0.3,4-1.6,6.4c-7.4,13-15.9,24.9-24.8,35.7c-0.8,1-1.6,2-2.4,3c-0.8,1-1.6,2.1-2.3,3.2
			c-1.5,2.2-2.7,4.4-3.6,6.7c-1.7,3.8-3.2,7.8-5.1,11.5c-0.9,1.9-1.8,3.8-2.8,5.6l-3,5.5l-1.5,2.8l-1.6,2.7l-3.3,5.4l-3.5,5.2
			l-1.8,2.6l-1.9,2.5l-3.7,5c-1.3,1.6-2.6,3.2-4,4.8l-2,2.4c-0.7,0.8-1.4,1.6-2.1,2.3l-4.2,4.6c-5.8,6-11.7,11.8-18.2,17.1
			c-12.3,10-12.3,9.9-5.9,22.9c-4.2,4-16.9,9.9-30,13.3c-3.2,0.9-6.6,1.5-9.8,2.1c-3.1,0.6-6.2,0.9-9.1,1.1c-1.4,0.1-2.7,0.2-4,0.2
			c-1.3,0-2.5-0.1-3.5-0.1C769.4,903.6,767.6,903.4,766.3,903z M810,868.7c-2.6,2.3-5,4.7-7.3,7.2c-2.4,2.4-4.6,4.8-6.8,7.3
			c-2.3,2.4-4.5,4.8-6.9,7.2c-2.4,2.3-4.8,4.5-7.4,6.6l1.5,2.9c10.8-2,21.7-4.7,32.4-8.7c4.1-1.6,6.2-4.6,4.2-8.3
			C817,878.4,813.7,874.1,810,868.7z"/>
	</g>
	<g>
		<path fill="#1F1813" d="M545,831c8.7,6.4,17.5,11.8,26.4,16.4c9,4.5,18,8.2,27.3,11.2c-1.6,3.4-2.6,5.3-3.5,7.3
			c-0.8,1.6-1.5,3.2-2.5,5.2c0.9,0.9,1.6,1.9,2.4,2.8c0.8,0.9,1.6,1.7,2.5,2.3c8,5.5,16.5,10.2,25.3,14.4l6.6,3l6.8,2.7
			c2.2,0.9,4.6,1.6,6.9,2.4l3.4,1.2c1.1,0.4,2.3,0.7,3.5,1c13.8,4.1,28.2,6.1,42.4,7.9c12.3,1.6,23.2-1.8,31.7-9.7
			c4-3.9,8-7.4,11.6-11.3c0.9-0.9,1.8-1.8,2.7-2.7c0.4-0.4,0.9-0.9,1.3-1.3c0.4-0.5,0.8-0.9,1.2-1.4c1.6-1.9,3.2-3.7,4.6-5.4
			c1.4,0.1,2.5,0.3,3.5,0.7c1,0.4,1.8,1,2.5,1.6c-0.8,1.2-1.8,2.3-2.8,3.3c-1.1,1-2.3,1.9-3.5,2.8c-1.2,0.9-2.4,1.8-3.6,2.8
			c-1.2,1-2.3,1.8-3.2,2.9c-1.7,1.8,0.8,4.9,2.6,3c3.9-4.4,9.6-7.2,13.1-11.8c1.4,2.2,2.7,4.5,5.1,5.6c-0.4,0.5-0.8,0.9-1.2,1.4
			c-0.1,0.1-0.3,0.1-0.4,0.2c-5.6,3.8-10.7,8.6-16.5,12.6c-2.4,1.6,0.6,4.9,3,3.3c2.5-1.8,4.8-3.6,7.1-5.4c1.2-0.9,2.3-1.8,3.4-2.8
			c1.1-0.9,2.3-1.8,3.5-2.7c0.9-0.1,1.8-0.3,2.6-0.4c0.8-0.1,1.7-0.3,2.5-0.5c-1.7,1.9-3.6,3.4-5.9,4.6c-2.3,1.2-0.3,4.6,2.1,3.4
			c1.4-0.7,2.7-1.6,3.8-2.6c0.1,2,0.5,3.9,1.1,5.6c0,0-4.2,1.2-8.5,2.4c-2.1,0.6-4.3,1-5.9,1.4c-1.6,0.4-2.7,0.6-2.7,0.6
			c-2.7,0.6-1.9,4.5,0.8,3.9c0,0,1.1-0.3,2.8-0.6c0.8-0.2,1.8-0.4,2.9-0.7c1-0.2,2.2-0.5,3.3-0.8c2.2-0.6,4.4-1.2,6-1.7
			c0.8-0.2,1.5-0.4,2-0.6c0.5-0.1,0.7-0.2,0.7-0.2c0.9,2.4-1.1,3.7-2.4,5c-1.7,0.4-3.4,0.7-5.1,0.9c-0.7,0.1-1.2,0.3-1.6,0.7
			c-0.4,0.4-0.6,0.9-0.6,1.4c-0.1,1,0.6,2,2,1.9c1.8-0.1,3.6-0.5,5.4-0.9c0.7,1,0.8,2.7,0.6,4.4c-1.6,0.1-3.2,0.1-4.7-0.1
			c-1.5-0.1-3.1-0.5-4.6-0.8c-3.1-0.7-6-1.5-9-2.2c-2.7-0.7-4.3,3.1-1.6,3.8c1.6,0.4,3.1,0.9,4.7,1.2c1.6,0.4,3.1,0.7,4.7,1.1
			c1.6,0.3,3.2,0.6,4.8,0.8c1.6,0.2,3.2,0.2,4.9,0.2c0,0.1,0,0.1,0,0.2c-0.6,2.2-1.8,3.8-3.5,4.6c-1.7,0.8-3.9,0.9-6.6,0.4
			c-14.7-3.1-28.5-7.5-41.5-12.7c-2.4-1-4.8-1.8-7.3-2.5c-2.5-0.8-5-1.3-7.5-1.4c-2.1-0.1-4.2-0.4-6.3-0.6c-2.1-0.2-4.2-0.4-6.3-0.7
			l-6.2-1l-3.1-0.5l-3.1-0.6l-6.2-1.3c-2-0.5-4.1-1-6.1-1.5c-4.1-1-8-2.3-12-3.5l-1.5-0.5l-1.5-0.5l-2.9-1.1l-2.9-1.1
			c-1-0.4-2-0.7-2.9-1.1c-3.8-1.6-7.7-3.1-11.5-5c-1.9-0.9-3.8-1.8-5.6-2.7l-5.5-2.9c-0.9-0.5-1.8-1-2.7-1.5l-2.7-1.6l-5.4-3.2
			c-3.3-2.2-5.8-3.8-7.8-4.8c-2-1.1-3.5-1.6-5-1.6c-2.9,0.2-5.6,2.8-10.8,7.8c-1.2-0.7-2.7-1.9-4.5-3.4c-1.7-1.5-3.7-3.3-5.6-5.6
			c-1-1.1-2-2.2-3-3.4c-1-1.2-2.1-2.4-3-3.8c-1-1.3-2-2.7-2.9-4.1c-1-1.4-1.9-2.7-2.8-4.2c-0.9-1.4-1.8-2.9-2.6-4.3
			c-0.8-1.4-1.7-2.8-2.4-4.3c-1.4-2.9-2.8-5.7-3.8-8.3C546.2,838.2,544.9,833.8,545,831z M591,862c-1.5-0.9-3-1.7-4.6-2.5
			c-1.5-0.8-3-1.6-4.5-2.3c-1.5-0.7-3-1.4-4.6-2.1c-1.5-0.7-3-1.4-4.5-2.1c-1.5-0.7-3-1.4-4.5-2.1c-1.5-0.7-2.9-1.5-4.4-2.2
			c-1.5-0.8-3-1.5-4.4-2.3c-1.4-0.9-2.8-1.7-4.2-2.7L553,846c5.2,9.7,11.1,19.3,18.2,28.2c1.3,1.8,3,2.8,4.6,3.1
			c1.6,0.3,3.2-0.2,4.6-1.7C584,871.6,587,867.2,591,862z"/>
	</g>
	<g>
		<path fill="#1F1813" d="M545,598.3c-3.5,10.2-5.9,20.3-7.4,30.2c-0.9,4.9-1.3,9.9-1.8,14.7c-0.1,2.4-0.2,4.9-0.4,7.3l-0.1,1.8
			l0,1.8c0,1.2,0,2.4,0,3.7c-3.8-0.5-5.9-0.8-8-1.1c-1.8-0.2-3.6-0.5-5.7-0.7c-0.7,1.1-1.3,2.1-1.9,3.2c-0.6,1-1.1,2-1.4,3.1l-1,3.5
			c-0.3,1.2-0.6,2.4-0.9,3.5c-0.5,2.4-1.2,4.7-1.6,7.1l-1.3,7.2c-0.2,1.2-0.4,2.4-0.5,3.6l-0.5,3.6l-0.5,3.6
			c-0.1,1.2-0.2,2.4-0.3,3.6c-0.2,2.4-0.4,4.8-0.5,7.3c-0.1,4.9-0.4,9.7-0.1,14.6c0.3,14.4,2.9,28.7,5.5,42.8
			c2.3,12.2,8.9,21.5,19.1,27.1c2.4,1.3,4.8,2.7,7.2,3.9c2.4,1.2,4.7,2.4,7.1,3.6c1.1,0.6,2.3,1.1,3.5,1.7c1.1,0.5,2.3,1,3.4,1.5
			c1.1,0.5,2.2,1,3.3,1.4c1.1,0.5,2.2,0.9,3.3,1.3c0.8,2.6,0.4,4.7-0.4,6.4c-2.7-0.8-5.3-2.4-7.8-4.1c-2.4-1.8-4.9-3.6-7.5-4.7
			c-2.3-1-4.4,2.3-2,3.4c1.3,0.6,2.6,1.3,3.9,2.1c1.2,0.8,2.4,1.7,3.7,2.5c2.5,1.6,4.9,3.3,7.6,4.2c-1.6,2-3.4,3.9-3.6,6.6
			c-0.6-0.2-1.2-0.4-1.8-0.6c-0.1-0.1-0.2-0.2-0.3-0.3c-0.7-0.5-1.4-1-2.1-1.5c-0.7-0.5-1.4-1-2.1-1.5c-1.4-1-2.9-1.9-4.3-2.8
			c-1.5-0.9-2.9-1.9-4.4-2.9c-1.4-1-2.9-2-4.3-3.1c-2.4-1.8-4.5,2.1-2.2,3.9c4.8,3.7,9.9,6.5,14.6,10c0.9,1.7,1.7,3,2.5,4.6
			c-2.2-1.1-4.4-2.4-6.2-4.1c-1.8-1.9-4.5,1.2-2.5,3c1.1,1.1,2.4,2,3.7,2.8c-1.9,0.7-3.5,1.7-5,2.7c0,0-0.6-0.9-1.6-2.2
			c-1-1.3-2.1-3.2-3.3-5c-1.2-1.9-2.4-3.7-3.2-5.1c-0.8-1.4-1.4-2.4-1.4-2.4c-1.4-2.4-4.8-0.4-3.4,2c0,0,0.6,1,1.4,2.5
			c0.9,1.5,2.1,3.4,3.4,5.3c1.2,1.9,2.5,3.9,3.5,5.2c1,1.4,1.7,2.3,1.7,2.3c-2,1.6-3.9,0.1-5.6-0.7c-1-1.4-1.7-3-2.3-4.6
			c-1-2.6-4.9-1.6-3.8,1.1c0.7,1.7,1.5,3.3,2.4,4.9c-0.7,1-2.3,1.6-4,2c-1.1-3-1.7-6.1-2.1-9.2c-0.2-1.5-0.3-3.1-0.3-4.7
			c-0.1-1.6-0.2-3.1-0.3-4.6c-0.1-1.4-1.2-2.2-2.2-2.2c-1-0.1-2,0.5-1.9,1.9c0.3,3.2,0.4,6.4,0.7,9.7c0.4,3.2,1,6.4,2.1,9.5
			c-0.1,0-0.1,0-0.2,0c-2.3,0.1-4.1-0.6-5.4-1.9c-1.3-1.4-2.2-3.4-2.5-6.2c-1.7-14.9-1.8-29.4-0.9-43.4c0.2-2.5,0.3-5.2,0.2-7.8
			c0-0.7-0.1-1.3-0.1-1.9c0-0.6-0.1-1.3-0.2-1.9c-0.1-1.3-0.4-2.5-0.7-3.7c-1.1-4.1-1.8-8.2-2.7-12.3c-0.2-1-0.4-2.1-0.5-3.1
			l-0.5-3.1l-0.5-3.1c-0.2-1-0.3-2.1-0.4-3.1l-0.6-6.2c-0.1-1-0.2-2.1-0.3-3.1l-0.2-3.1l-0.3-6.3l0-6.3c-0.1-4.2,0.2-8.3,0.4-12.5
			l0.1-1.6l0.1-1.6l0.3-3.1c0.2-2.1,0.4-4.2,0.6-6.2l0.9-6.2l0.5-3.1l0.6-3.1l1.2-6.1c0.5-2,1-4,1.5-6.1c4.1-15.3,4.1-15.2-8.7-22.1
			c0.3-1.4,0.9-3.2,1.8-5.4c1-2.1,2.2-4.5,3.6-7c0.4-0.6,0.7-1.3,1.1-1.9c0.4-0.7,0.8-1.3,1.2-2c0.9-1.3,1.8-2.7,2.7-4
			c1.8-2.7,4-5.4,6.1-8c2.1-2.6,4.4-5.1,6.7-7.4c1.1-1.1,2.2-2.3,3.4-3.3c1.1-1,2.3-2,3.3-2.9C538.4,601.6,542.4,599.2,545,598.3z
			 M529.7,651.7c0.1-0.9,0.3-1.7,0.5-2.6c0.2-0.8,0.3-1.7,0.5-2.5c0.3-1.7,0.5-3.4,0.7-5c0.5-3.3,0.9-6.6,1.2-9.9
			c0.5-3.3,0.9-6.6,1.3-9.8c0.6-3.2,1.3-6.5,2.1-9.7l-2.9-1.5c-7.6,7.9-14.8,16.6-21.2,26.1c-2.4,3.7-2.3,7.4,1.5,9.2
			C518.4,648,523.5,649.5,529.7,651.7z"/>
	</g>
	<g>
		<path fill="#1F1813" d="M766.3,526.4c-2.7-0.1-5.4,0-8,0.1c-1.3,0-2.6,0.1-3.9,0.1c-1.3,0-2.6,0.2-3.9,0.3
			c-2.6,0.2-5.1,0.4-7.7,0.7c-2.5,0.4-5,0.7-7.5,1.1c-1.2,0.2-2.5,0.4-3.7,0.6l-3.7,0.7l-3.6,0.7c-1.2,0.3-2.4,0.6-3.6,0.9
			c-2.4,0.6-4.7,1.2-7.1,1.9c-2.3,0.7-4.6,1.5-7,2.2c-0.7-3.7-1.1-5.9-1.5-8c-0.3-1.8-0.7-3.5-1.1-5.6c-2.5-0.4-4.7-1.2-7-1.2
			c-19.4,0.6-38.7,4.3-57,10.8c-13.6,4.7-26.4,11.6-38.9,18.5c-2.7,1.5-5.2,3.1-7.4,5.1c-1.1,0.9-2.1,1.9-3.1,2.9
			c-0.5,0.5-1,1-1.4,1.5c-0.4,0.5-0.9,1.1-1.3,1.7c-1.6,2.3-3.1,4.6-4.2,7.2c-1.1,2.6-1.9,5.3-2.5,8.2c-2,10.9-3.9,21.3-4.2,30.5
			c-1.2,0.7-2.2,1.2-3.2,1.5c-1,0.2-2,0.3-3,0.2c-0.1-1.4,0.1-2.9,0.3-4.4c0.3-1.4,0.7-2.9,1.2-4.3c0.4-1.5,0.9-2.9,1.3-4.4
			c0.4-1.4,0.8-2.8,0.9-4.3c0.3-2.5-3.5-3.4-3.9-0.9c-0.6,5.8-3.5,11.5-3.7,17.2c-2.4-0.9-4.8-2-7.4-1.5c0-0.6,0.1-1.2,0.1-1.8
			c0.1-0.1,0.2-0.2,0.2-0.4c2.3-6.4,3.6-13.3,5.9-19.9c1-2.7-3.4-3.7-4.4-0.9c-1,2.8-1.7,5.8-2.5,8.6c-0.2,0.7-0.4,1.4-0.6,2.1
			c-0.2,0.7-0.4,1.4-0.6,2.1c-0.4,1.4-0.8,2.8-1.2,4.2c-0.7,0.7-1.3,1.3-1.9,1.9c-0.6,0.6-1.1,1.2-1.7,1.9c0.2-2.5,0.9-4.9,2.1-7.2
			c1.2-2.4-2.5-3.9-3.7-1.5c-0.7,1.4-1.2,2.8-1.6,4.3c-1.2-1.6-2.7-2.9-4.1-3.9c0,0,0.2-0.2,0.5-0.6c0.3-0.4,0.7-0.9,1.2-1.6
			c1-1.3,2.4-3,3.7-4.8c1.4-1.7,2.9-3.3,3.9-4.6c1.1-1.2,1.8-2.1,1.8-2.1c0.9-1,0.6-2.2-0.1-2.9c-0.7-0.7-1.9-0.8-2.8,0.2
			c0,0-0.7,0.9-1.9,2.2c-1.1,1.3-2.7,3-4.1,4.8c-1.4,1.8-2.8,3.6-3.9,4.9c-0.5,0.7-1,1.2-1.3,1.6c-0.3,0.4-0.5,0.6-0.5,0.6
			c-2.2-1.4-1.3-3.6-1-5.5c1.1-1.3,2.3-2.6,3.6-3.7c1.1-0.9,1.1-2.2,0.6-3c-0.5-0.8-1.7-1.2-2.8-0.3c-1.4,1.2-2.7,2.5-3.9,3.9
			c-1.2-0.4-2.2-1.7-3.1-3.2c1.2-1,2.5-1.9,3.9-2.7c1.3-0.8,2.8-1.5,4.2-2.1c1.4-0.6,2.9-1.2,4.3-1.8c1.4-0.6,2.8-1.2,4.3-1.7
			c2.6-1,1.7-5-0.9-4c-1.5,0.6-3,1.2-4.5,1.8c-1.5,0.6-3,1.2-4.4,1.9c-2.9,1.3-5.9,2.8-8.4,4.9c0-0.1,0-0.1-0.1-0.2
			c-0.8-2.1-0.8-4.1,0.1-5.7c0.9-1.7,2.6-3.1,5.1-4.2c13.7-6.1,27.4-10.7,41-14.2c1.2-0.3,2.5-0.7,3.7-1.1c1.2-0.4,2.5-0.7,3.7-1.2
			c1.2-0.4,2.4-0.9,3.6-1.5c1.2-0.6,2.2-1.2,3.3-1.8c3.6-2.1,7.2-4.4,10.9-6.3c1.9-1,3.7-2,5.6-2.9l5.7-2.7c1.9-0.9,3.8-1.7,5.7-2.5
			c1.9-0.8,3.8-1.6,5.8-2.4l5.9-2.2l2.9-1.1l3-0.9l6-1.9l6.1-1.6l3-0.8c1-0.3,2-0.4,3.1-0.7l6.1-1.3c2-0.4,4.1-0.7,6.2-1l3.1-0.5
			l1.5-0.2l1.6-0.2c4.1-0.4,8.3-1,12.4-1.2c2-0.1,3.7-0.2,5.2-0.4c1.5-0.1,2.8-0.2,4-0.3c2.3-0.3,3.8-0.8,4.9-1.8
			c2.3-1.9,2.9-5.5,4.1-12.6c1.4-0.1,3.3-0.1,5.6,0.1c1.1,0.1,2.4,0.2,3.7,0.4c1.3,0.2,2.7,0.5,4.1,0.8c2.9,0.6,6,1.3,9.1,2.3
			c1.6,0.5,3.2,1,4.8,1.5c0.8,0.3,1.6,0.5,2.4,0.8l2.4,1c1.6,0.6,3.1,1.3,4.7,2c1.5,0.7,3,1.3,4.5,2.1c2.9,1.5,5.6,3,8,4.4
			C761.1,521.3,764.7,524.1,766.3,526.4z M710.8,528.4c0.9-0.1,1.7-0.2,2.6-0.3c0.4-0.1,0.9-0.1,1.3-0.2c0.4-0.1,0.8-0.1,1.3-0.2
			c1.7-0.2,3.4-0.5,5-0.8c3.3-0.7,6.6-1.2,9.8-1.9c0.8-0.2,1.6-0.3,2.4-0.5l1.2-0.3l1.2-0.2c1.6-0.3,3.3-0.5,4.9-0.8
			c1.6-0.2,3.3-0.5,4.9-0.7c1.6-0.1,3.3-0.3,5-0.3l0.6-3.2c-4.9-2.5-10-4.6-15.2-6.7c-2.6-0.9-5.3-1.9-7.9-2.9
			c-1.3-0.5-2.7-0.9-4-1.3l-4.1-1.2c-4.2-1.3-7.8,0.2-8.2,4.3C710.8,516.5,711,521.9,710.8,528.4z"/>
	</g>
	<g>
		<path fill="#1F1813" d="M903.1,714.7c-3.3-10.3-7.2-19.8-11.7-28.8c-4.6-8.9-9.8-17.2-15.5-25c3.3-1.8,5.2-2.8,7.1-3.8
			c1.6-0.9,3.1-1.7,5-2.8c-0.3-2.5-0.2-4.9-1-7c-3.3-9.1-7.4-17.9-12-26.5l-3.6-6.3c-1.3-2.1-2.6-4.1-3.9-6.1c-1.3-2.1-2.7-4-4.1-6
			c-1.4-2-2.8-4-4.3-5.9c-8.8-11.5-19.2-21.5-29.6-31.4c-9.1-8.5-19.8-12.2-31.4-10.7c-1.3,0.2-2.7,0.3-4.1,0.5
			c-1.3,0.2-2.7,0.3-4,0.5c-2.6,0.4-5.2,0.8-7.8,1.2c-2.5,0.4-5.1,1-7.5,1.5c-1.2,0.3-2.4,0.5-3.5,0.8c-1.2,0.3-2.3,0.6-3.4,0.9
			c-2.2-1.7-3.1-3.5-3.4-5.4c2.7-0.9,5.7-1.1,8.7-1.3c3,0,6.1,0.1,8.9-0.6c2.5-0.5,2.2-4.4-0.3-3.9c-5.7,1.1-12,0.3-17.5,1.8
			c0.1-2.6,0.4-5.2-0.9-7.4c0.6-0.2,1.2-0.3,1.8-0.5c0.2,0,0.3,0.1,0.5,0.1c6.8,0.2,13.7-0.7,20.8-0.5c2.9,0,2.5-4.3-0.5-4.4
			c-3,0-5.9,0-8.9,0.2c-1.5,0.1-2.9,0.2-4.4,0.2c-1.4,0-2.9,0.1-4.4,0.1c-1.7-0.8-3.1-1.5-4.7-2.3c2.4-0.5,5-0.6,7.5-0.3
			c1.3,0.2,2-0.7,2.1-1.7c0.1-1-0.5-2.1-1.8-2.3c-1.5-0.2-3.1-0.2-4.6-0.1c1.1-1.6,1.9-3.4,2.4-5.1c0,0,1,0.4,2.6,0.9
			c0.8,0.3,1.7,0.5,2.7,0.9c1,0.4,2,0.8,3,1.2c2,0.8,4.1,1.6,5.6,2.2c1.5,0.7,2.5,1.1,2.5,1.1c2.5,1.1,4.2-2.5,1.6-3.6
			c0,0-1-0.5-2.6-1.2c-1.6-0.6-3.7-1.5-5.8-2.3c-1.1-0.4-2.1-0.8-3.1-1.2c-1-0.4-2-0.7-2.8-1c-1.6-0.5-2.7-0.9-2.7-0.9
			c0.7-2.5,3.1-2.4,4.9-2.7c1.6,0.6,3.1,1.4,4.6,2.3c2.4,1.5,4.9-1.6,2.5-3.1c-1.5-1-3.1-1.9-4.8-2.6c0-1.3,0.9-2.6,2.1-3.9
			c2.7,1.8,5,3.9,7.1,6.2c1.1,1.1,2,2.3,3,3.6c1,1.2,1.9,2.4,2.9,3.6c1.8,2.1,5.4,0,3.5-2.2c-2.1-2.4-4.1-5-6.3-7.4
			c-2.2-2.4-4.5-4.6-7.3-6.5l0.1-0.1c1.8-1.4,3.6-1.9,5.5-1.6c1.9,0.3,3.8,1.4,5.6,3.5c10.1,11.1,18.7,22.8,26.2,34.7
			c1.3,2.2,2.8,4.4,4.4,6.4c0.4,0.5,0.8,1,1.3,1.5c0.4,0.5,0.8,1,1.3,1.5c0.9,1,1.8,1.8,2.7,2.6c12.9,10.8,24.3,23.3,34.1,36.7
			c0.6,0.8,1.2,1.7,1.8,2.6l1.8,2.6l1.8,2.6l0.9,1.3l0.8,1.3c2.2,3.6,4.4,7.1,6.4,10.8c4.1,7.2,7.5,14.8,10.7,22.5
			c1.4,3.7,2.5,6.5,3.5,8.5c0.9,2.1,1.9,3.4,3.1,4.2c2.5,1.6,6.2,1,13.4,0c0.6,1.3,1.1,3.2,1.6,5.4c0.5,2.3,1,4.9,1.3,7.8
			c0.1,1.5,0.3,3,0.4,4.5c0.1,1.6,0.3,3.2,0.2,4.8c0,3.3,0,6.7-0.2,10.1c-0.3,3.4-0.6,6.7-1.1,9.9c-0.6,3.2-1.2,6.2-1.8,8.9
			c-0.3,1.4-0.7,2.7-1.1,3.9c-0.4,1.2-0.8,2.3-1.2,3.3C904.6,711.9,903.8,713.5,903.1,714.7z M884,662.5c0.7,1.6,1.5,3.2,2.3,4.7
			c0.8,1.5,1.5,3,2.3,4.5c0.8,1.5,1.6,2.9,2.5,4.4c0.8,1.5,1.6,2.9,2.4,4.4c0.8,1.5,1.6,2.9,2.4,4.3c0.8,1.5,1.5,2.9,2.2,4.4
			c0.7,1.5,1.5,3,2.2,4.5c0.7,1.5,1.3,3.1,1.8,4.6l3.2-0.5c0.2-1.4,0.4-2.7,0.6-4.1l0.4-4.1l0.4-4.2c0.1-0.7,0.1-1.4,0.2-2.1
			l0.1-2.1c0.1-2.8,0.3-5.6,0.3-8.4c0-2.8-0.1-5.6-0.1-8.5c0-2.2-0.8-4-1.9-5.2c-1.1-1.2-2.7-1.7-4.8-1.3
			C895.4,658.9,890.3,660.7,884,662.5z"/>
	</g>
</g>
<g>
	<g>
		<path fill="#1F1813" d="M1322.2,813.9c0.2,3.6,0.1,7.4,0.5,11.1c0.4,5,3.5,8.3,8.1,8.4c2.6,0.1,6.2-2.9,8.1-5.5
			c0.8-1.1,1.2-2.1,1.4-3.2c0.2-1,0.1-2.1-0.1-3c-0.5-1.9-1.6-3.7-3-5.2c-0.9-1-2.2-1.6-3.4-2.4c-5.2-3.3-7.8-5.4-8.3-8
			c-0.2-1.3,0-2.8,0.7-4.7c0.4-0.9,0.8-2,1.4-3.1c0.3-0.6,0.6-1.2,0.9-1.8c0.3-0.7,0.7-1.4,1-2.1c0.7-1.4,2.2-2.7,3-4.2
			c0.9-1.5,0.9-3.4-1.4-5.7c-2.5,0.6-5,0.7-7.6,0.7c-2.6,0-5.2-0.2-7.9-0.2c-5.3-0.2-10.6,0.1-16.1,2c2.5,2.5,4.3,4.6,6.2,6.5
			c1.1,1.1,2.3,2.2,3.4,3.2c1.1,1.1,2.2,2.2,3.2,3.3c3,3.5,4.4,5.8,4.4,8.1c0.1,2.3-1.4,4.7-4,8.5c-0.4,0.6-0.8,1.1-1.2,1.5
			c-0.4,0.4-0.9,0.7-1.3,1c-0.9,0.5-1.8,0.8-2.8,1c-1.9,0.3-3.8-0.1-5.9-0.5c-1.6-0.3-3.1-0.7-4.6-1.1c-1.6-0.5-3.1-1-4.7-1.4
			c-3.1-0.8-6.2-1.2-9.3-0.1c-0.1,0.6-0.3,0.9-0.2,1.2c0.3,0.9,0.6,1.9,1,2.8c1.4,2.9,3.1,5.8,4.7,8.8c1.6,2.9,3.2,6,4.4,9
			c2.4,6.1,3.6,13,0.7,20.7c-1.6,4.3,5.3,9.2,11.4,8.5c5-0.4,9.9-6,8.7-10.9c-0.8-3.1-3.8-5.5-6.4-7.5c-2.1-1.6-6.3-1.8-7.2-3.8
			c-1.8-3.8-3.8-7.7-5.6-11.6c-0.9-2-1.7-4-2.4-6c-0.7-2-1.2-4.1-1.7-6.3c3.7-0.9,7-0.2,10.2,0.9c3.2,1.1,6.2,2.5,9.4,3.1
			c1.7-2.1,3.3-4,4.9-6c1.5-2,3-4.1,4.5-6.1L1322.2,813.9z M1310.5,790.9l0.7-2.2c4.6,0,9.1-0.1,15.9-0.4c-0.9,2.3-1.7,4.2-2.4,6.1
			c-0.8,1.9-1.7,3.7-2.7,6C1317,796.2,1313.7,793.5,1310.5,790.9z"/>
		<path fill="#1F1813" d="M1258.8,836.9c2.6,5.3,5.3,10.6,7.2,16.1c0.5,1.4,1.1,3.3,1.3,5c0.3,1.7,0.2,3.3-0.5,3.9
			c-1.4,1.2-2.8,2.4-4.2,3.5c-0.7,0.6-1.4,1.2-2.2,1.7c-0.8,0.5-1.5,1-2.3,1.5c-1.6,1-3.2,1.9-4.8,2.7c-1.7,0.7-3.4,1.4-5.1,1.9
			c-1.4,0.4-3.3-0.2-5.2-1.2c-1.9-1.1-3.8-2.6-5.3-3.9c-2.4-2-4.6-4.2-6.9-6.7c-2.3-2.5-4.7-5.3-7.5-8.6c1.1,8.9,2.9,17.6,3.1,25.7
			c0.1,4.1-0.1,8.1-1.1,12c-0.9,4-2.6,7.7-5.4,11.5c-1.2,1.6,1.3,6.6,3.6,8.8c1.3,1.2,7.4,0.9,8.2-0.5c1.5-2.4,0.9-5.8,0.9-8.8
			c0-0.9-1.2-1.7-1.5-2.7c-2-5.2-2.3-10.5-2.1-15.6c0.1-5.2,0.7-10.4,0.9-15.4c0.7-0.2,1.4-0.4,2.1-0.6c3.9,4.1,8,8.2,12.7,12.7
			c1-0.5,2-1,2.9-1.5c0.9-0.5,1.9-1.1,2.8-1.6c0.9-0.5,1.9-1.1,2.8-1.6c0.9-0.5,1.9-1,2.8-1.6c1.9-1.1,3.9-2.2,5.9-3.3
			c2-1.1,4.1-2.4,6.4-3.8c0.9,3.1,1.9,4.8,1.7,6.3c-0.2,1.6-0.7,3.2-1.2,4.7c-0.5,1.6-1.1,3.1-1.4,4.7c-1,4.5,1.2,8.2,5.4,9.1
			c1.4,0.3,3.5,0.2,5.3-0.3c1.8-0.5,3.5-1.3,4.1-2.3c0.9-1.4,1.2-3.1,1.3-4.9c0-1.8-0.3-3.6-0.8-5.1c-0.8-2.4-3.9-3.9-5.7-6
			c-2.5-2.8-3.6-5.2-3.4-7.4c0.1-1.1,0.5-2.2,1.3-3.4c0.4-0.6,0.9-1.1,1.4-1.7c0.6-0.6,1.2-1.2,1.9-1.8c1.9-1.8,3.9-3.5,5.9-5.2
			c1.9-1.8,3.8-3.6,5.8-5.4c-7.7-3.6-14-6.3-19.2-8.1C1265.4,837.5,1261.5,836.6,1258.8,836.9z M1267.6,845.8
			c5.4-1.3,8.4,1.3,12.4,4.5c-1,1.2-2,2.3-3.1,3.7c-0.6,0.7-1.2,1.4-1.9,2.2c-0.7,0.8-1.6,1.7-2.5,2.7
			C1270.4,853,1269.2,849.8,1267.6,845.8z"/>
		<path fill="#1F1813" d="M1316.9,756.4c2.6,2,5.2,4.1,7.9,6.2c4.1,3.3,9.1,6.1,12.8,9.9c1.9,1.9,3.4,4,4.4,6.7
			c1.1,2.7,1.4,5.8,0.9,9.6c-0.3,2.3,1.2,4.4,3.3,5.7c2.1,1.3,4.8,1.8,6.8,1c1.9-0.8,3.6-2.9,4.5-5.3c1-2.4,0.9-5.1-0.3-6.9
			c-1.4-2.2-4.3-3.4-6.7-4.5c-5.1-2.2-9.1-5.5-12.9-9.1c-3.8-3.6-7.3-7.5-11-10.9c0.3-0.8,0.5-1.6,0.7-2.5
			c5.5-0.9,11.1-1.9,17.2-3.3c1.2-0.9,1.4-2.9,1.9-4.8c0.6-1.9,1.6-3.6,4.6-4.1c1.2,2.8,1.6,6.8,3.7,8.4c2.8,2.1,6.9,3.4,10.2,2.7
			c1.8-0.4,4.1-5.6,4.4-8.8c0.3-5.2-3.6-6.1-7.3-6.5c-1.7-0.2-3.5-0.1-5.2-0.2c-2.4-0.3-4.4-1-5.6-2.4c-0.6-0.7-1-1.5-1.3-2.6
			c-0.2-1-0.4-2.3-0.2-3.7l0.3-4.1c0.1-1.4,0.2-2.7,0.2-4.1c0.1-2.7,0.1-5.5,0.2-8.2c-6.2,0.8-12.3,2.5-17.5,4.6
			c-2.6,1.1-4.9,2.2-6.9,3.5c-2,1.2-3.8,2.5-5.1,3.9c6.4,2.8,12.8,5.6,18.6,9.2c3.2,2,4.7,4.7,4.4,7.2c-0.4,2.5-2.4,4.8-6.1,6.1
			c-1.8,0.6-3.6,1-5.5,1.3c-1.9,0.3-3.8,0.6-5.7,1c-3.2,0.7-6.3,1.5-9.4,2.2C1317.1,754.6,1317.1,755.5,1316.9,756.4z M1345.6,719.7
			c0.2,4.9,0,8.1-0.2,13.6c-5.5-2.9-9.4-4.7-13.3-6.6l0.3-3.2C1336.3,722.4,1340.3,721.3,1345.6,719.7z"/>
	</g>
	<g>
		<path fill="#1F1813" d="M1114.5,901.2c-1.7,0.7-3.5,1.4-5.2,2c-1.7,0.6-3.5,1.2-5.2,2c-4.6,2-6.9,6-5.4,10.3
			c0.4,1.2,1.6,2.5,3,3.5c1.5,1.1,3.2,2,4.7,2.4c5.1,1.5,8.3-1.5,10.4-5c0.7-1.2,0.9-2.6,1.2-4c1.6-6,2.7-9.2,5.1-10.5
			c2.4-1.4,5.9-0.7,12.4,0.2c1.5,0.2,3.2,1.4,4.9,1.6c1.7,0.2,3.5-0.3,5-3.1c-2.6-4.4-3.8-9.4-5.3-14.5c-1.5-5.1-3.3-10.2-6.9-14.6
			c-1.6,3.1-3,5.4-4.2,7.8c-1.4,2.8-2.6,5.7-4.2,8.4c-1.2,2-2.2,3.5-3.2,4.6c-1,1.1-2,1.7-3,2.1c-1.1,0.4-2.3,0.4-3.8,0.2
			c-0.8-0.1-1.6-0.3-2.5-0.5c-0.9-0.2-1.9-0.6-3-0.9c-2.7-0.9-4.1-2.3-5-3.9c-0.8-1.7-1-3.7-1.4-5.8c-0.5-3.2-0.3-6.5-0.5-9.6
			c-0.1-1.6-0.3-3.1-0.7-4.6c-0.4-1.5-1-3-2-4.3c-0.6,0.1-1,0-1.2,0.1c-0.8,0.6-1.6,1.2-2.4,1.9c-1.2,1.2-2.3,2.3-3.5,3.6
			c-1.2,1.2-2.3,2.4-3.4,3.6c-2.3,2.4-4.7,4.8-7.2,6.9c-5.2,4.3-11.2,7.4-19.5,7.1c-4.6-0.2-7.1,7.9-4.6,13.5c1,2.3,3.2,4.2,5.7,5.2
			c0.6,0.3,1.3,0.5,1.9,0.6c0.6,0.1,1.3,0.2,1.9,0.1c1.3-0.1,2.5-0.4,3.6-1.1c2.7-1.7,4-5.3,5.2-8.4c0.9-2.5-0.3-6.5,1.4-8
			c3.1-2.9,6.1-6,9.3-8.9c3.2-2.8,6.6-5.6,10.5-7.8c1.9,3.4,2.4,6.6,2.3,10c0,3.3-0.5,6.6-0.1,9.9c2.4,1.1,4.9,1.9,7.3,2.8
			c1.2,0.4,2.4,0.9,3.6,1.3c1.2,0.4,2.4,0.8,3.6,1.1L1114.5,901.2z M1132.7,883l2.3-0.1c1.4,4.3,2.9,8.8,5.4,15
			c-2.5-0.1-4.5-0.3-6.5-0.5c-1-0.1-2-0.2-3.1-0.2c-1.1-0.1-2.2-0.3-3.5-0.4C1129.7,890.8,1131.2,887,1132.7,883z"/>
		<path fill="#1F1813" d="M1073.1,848c-4.3,4.1-8.5,8.3-13.2,11.9c-2.4,1.8-6.5,4.4-8.2,3.5c-3.2-1.7-6.2-3.9-9.1-6.3
			c-1.5-1.1-2.7-2.5-4-3.8c-1.2-1.3-2.4-2.7-3.4-4.2c-1.7-2.5,0.2-7.9,1.7-11.5c1.1-2.8,2.6-5.6,4.3-8.6c1.7-3,3.6-6.2,5.8-9.8
			c-8.3,3.9-15.8,8.1-23.5,10.9c-7.7,2.8-15.5,4-24.4,1.2c-1.9-0.6-5.9,3.3-7.3,6.2c-0.9,1.7,1.6,7.2,3,7.6c2.8,0.7,5.8-0.9,8.6-1.9
			c0.9-0.3,1.3-1.6,2.1-2.3c4.4-3.5,9.3-5.4,14.2-6.9c5-1.5,10-2.4,14.9-3.9l1.3,1.8c-2.8,5-5.5,10.2-8.2,16.1
			c1.6,1.5,3.2,3,4.8,4.5c1.6,1.4,3.2,2.8,4.8,4.3c0.8,0.7,1.6,1.5,2.4,2.3c0.8,0.8,1.7,1.5,2.6,2.3c1.7,1.6,3.5,3.3,5.6,5
			c-2.7,1.9-3.9,3.3-5.5,3.6c-3.1,0.5-6.5,0.1-9.8,0.4c-2.3,0.3-4.2,1.2-5.4,2.5c-1.2,1.4-1.8,3.3-1.6,5.4c0.3,2.8,3.1,7.6,5.4,8.1
			c3.2,0.8,7.2-0.8,9.7-2.7c2.1-1.5,2.5-4.9,3.9-7.3c1.9-3.2,3.8-5,6-5.5c2.2-0.4,4.7,0.2,8,2.2c2.2,1.4,4.5,2.6,6.8,4
			c1.1,0.7,2.3,1.3,3.4,2c1.2,0.6,2.4,1.2,3.5,1.8c0.5-4.2,0.9-8,1.2-11.4c0.3-3.5,0.5-6.6,0.6-9.3c0.1-2.7,0-5.1-0.2-7.1
			C1074,851,1073.6,849.3,1073.1,848z M1067.3,859.2c0.7,1.2,1.1,2.4,1.4,3.5c0.2,1.1,0.3,2.1,0.2,3.2c-0.2,2.1-1.1,4.2-2,6.6
			c-0.7-0.3-1.5-0.6-2.2-0.9c-0.7-0.3-1.5-0.6-2.3-1c-1.6-0.7-3.5-1.6-6-2.7C1061.3,864.1,1064,861.9,1067.3,859.2z"/>
		<path fill="#1F1813" d="M1167.5,878.4c-1.1,3.2-2.3,6.2-3.5,9.4c-1.9,4.9-3,10.5-5.4,15.2c-1.2,2.4-2.8,4.5-5,6.2
			c-2.2,1.7-5.1,3.2-8.8,3.8c-4.6,0.8-6.1,8.3-3.2,11.7c1.4,1.6,3.9,2.6,6.4,2.7c2.5,0,5.1-0.7,6.5-2.4c1.7-2,1.9-5.1,2.2-7.8
			c0.3-2.8,0.9-5.3,1.7-7.8c0.8-2.5,1.9-4.9,3-7.3c1.1-2.4,2.3-4.6,3.5-6.9c1.2-2.3,2.4-4.5,3.4-6.9l2.6-0.1c1.3,2.5,2.6,5,4,7.6
			c0.7,1.3,1.4,2.6,2.1,3.9c0.7,1.3,1.5,2.6,2.3,3.9c1.3,0.9,3.2,0.4,5.2,0.4c1,0,2,0.1,2.9,0.5c0.9,0.4,1.7,1.2,2.4,2.5
			c-0.6,0.5-1.2,1-1.9,1.5c-0.7,0.5-1.4,0.9-2,1.4c-1.3,1-2.5,2-2.9,3.2c-1.1,3.3-1.1,7.6,0.6,10.5c0.5,0.8,2.1,1.4,4,1.6
			c1,0.1,2,0.2,3,0.2c1,0,1.9-0.2,2.7-0.4c5.1-1.3,4.7-5.3,3.9-8.8c-0.4-1.7-1-3.3-1.4-5c-1-4.8,0.4-8.1,6.1-9.4l4-0.9
			c1.3-0.3,2.6-0.7,3.9-1.1c1.3-0.4,2.6-0.8,3.9-1.1c0.7-0.2,1.3-0.4,2-0.6l2-0.7c-1.3-2.8-2.9-5.5-4.5-8c-1.7-2.5-3.4-4.9-5.2-7.1
			c-1.8-2.1-3.6-4-5.5-5.6c-0.9-0.8-1.8-1.5-2.7-2.1c-0.9-0.6-1.8-1.2-2.6-1.6c-0.8,6.9-1.4,13.8-3.1,20.5c-0.9,3.7-3,5.8-5.5,6.3
			c-0.6,0.1-1.3,0.2-1.9,0.1c-0.7-0.1-1.3-0.3-2-0.7c-1.3-0.7-2.6-1.7-3.8-3.3c-2.3-3-3.7-6.6-5.6-9.9c-1.6-2.8-3.4-5.5-5-8.3
			L1167.5,878.4z M1211.3,894.4c-2.3,0.8-4.2,1.4-6.2,2.1c-2,0.6-4.1,1.1-6.8,1.9c1.1-6,1.6-10.3,2.2-14.6c1-0.2,2.1-0.5,3.1-0.8
			C1205.8,886.4,1208.1,889.9,1211.3,894.4z"/>
	</g>
	<g>
		<path fill="#1F1813" d="M967.3,730.7c-2.3-2.8-4.6-5.9-7-8.7c-3.3-3.8-7.8-4.7-11.5-2c-2.1,1.5-3.5,6-3.3,9.2
			c0.1,5.3,3.9,7.4,8,8.3c1.3,0.3,2.8,0,4.2-0.1c6.2-0.4,9.5-0.2,11.5,1.6c1,0.9,1.6,2.3,2.1,4.2c0.6,1.9,1,4.4,1.5,7.7
			c0.2,1.5-0.2,3.4,0.1,5.2c0.3,1.7,1.3,3.3,4.4,3.8c3.4-3.8,7.9-6.5,12.2-9.5c2.1-1.5,4.4-3.1,6.4-4.9c2-1.8,3.9-3.8,5.4-6.2
			c-3.5-0.6-6.1-1.2-8.7-1.6c-3.1-0.5-6.2-0.7-9.2-1.4c-2.3-0.5-4-1.1-5.4-1.7c-1.4-0.6-2.3-1.3-3-2.3c-1.3-1.9-1.6-4.6-1.7-9.2
			c0.1-5.7,3.6-7.1,7.3-9c2.9-1.4,6.1-2.2,9.1-3.4c3-1.2,5.6-2.7,7.6-5.4c-0.2-0.6-0.3-0.9-0.5-1.1c-0.8-0.6-1.6-1.2-2.5-1.7
			c-5.8-3.1-12.3-5.5-17.8-9.1c-2.8-1.8-5.4-3.9-7.7-6.5c-0.6-0.7-1.1-1.4-1.6-2.1c-0.5-0.7-0.9-1.5-1.4-2.3
			c-0.9-1.6-1.6-3.4-2.2-5.4c-1.3-4.4-9.7-4.3-14.2-0.2c-0.9,0.8-1.7,1.9-2.2,3.1c-0.3,0.6-0.5,1.2-0.7,1.9c-0.1,0.7-0.2,1.3-0.3,2
			c-0.1,2.7,0.7,5.3,2.6,6.9c2.4,2,6.3,2.2,9.6,2.4c2.7,0.1,6.1-2.3,8.1-1.2c1.9,1,3.7,2,5.6,3c1.9,1,3.8,2,5.7,3.1
			c3.8,2.1,7.4,4.5,10.6,7.6c-2.5,2.9-5.5,4.3-8.7,5.3c-3.2,1-6.5,1.6-9.4,3c-0.3,5.3-0.6,10.3-0.5,15.3L967.3,730.7z M990.2,742.4
			l0.8,2.2c-3.7,2.7-7.5,5.4-12.6,9.7c-0.7-2.4-1.1-4.4-1.6-6.3c-0.2-1-0.5-2-0.7-3c-0.2-1.1-0.5-2.2-0.7-3.4
			C981.8,742,986,742.2,990.2,742.4z"/>
		<path fill="#1F1813" d="M1005,674.8c-5.2-2.8-10.5-5.4-15.3-8.8c-1.2-0.9-2.8-2.1-4-3.3c-1.2-1.2-2.1-2.5-1.9-3.4
			c0.4-1.8,0.9-3.5,1.4-5.3c0.3-0.9,0.5-1.8,0.8-2.6c0.3-0.9,0.7-1.7,1-2.6c0.7-1.7,1.5-3.4,2.3-5c0.9-1.6,1.9-3.1,3-4.5
			c0.9-1.2,2.8-1.8,4.9-2c2.2-0.2,4.6-0.1,6.5,0.1c6.2,0.5,12.2,2,20.6,3.9c-6.2-6.6-12.6-12.5-17.6-19c-2.5-3.2-4.6-6.6-6.2-10.3
			c-0.8-1.9-1.4-3.9-1.8-5.9c-0.4-2.1-0.6-4.2-0.6-6.5c0-2-5-4.6-8.1-5c-1.8-0.3-6.5,3.7-6.3,5.2c0.2,2.9,2.7,5.3,4.5,7.6
			c0.6,0.7,2,0.7,2.8,1.3c4.7,3.1,8,7.1,10.9,11.4c3,4.3,5.5,8.8,8.4,13c-0.5,0.6-0.9,1.1-1.3,1.7c-5.6-1.1-11.3-2-17.8-2.8
			c-1,1.9-1.9,4-2.8,5.9c-0.4,1-0.9,2-1.3,2.9l-0.7,1.5l-0.6,1.5c-0.9,2-1.8,4.1-2.9,6.2c-1,2.1-1.9,4.4-2.9,6.9
			c-2.6-2-4.4-2.7-5.1-4.1c-1.5-2.8-2.2-6.2-3.5-9.2c-1.9-4.3-5.7-5.9-9.7-4.2c-0.6,0.3-1.4,0.8-2.1,1.3c-0.4,0.3-0.7,0.6-1.1,0.9
			c-0.3,0.3-0.6,0.7-0.9,1.1c-1.2,1.5-2,3.1-2,4.3c0.1,1.6,0.8,3.3,1.9,4.7c1,1.5,2.4,2.8,3.7,3.7c2.1,1.5,5.4,0.9,8.1,1.5
			c3.7,0.8,6,2.1,7.1,4c0.6,1,0.9,2.1,0.9,3.5c0,0.7,0,1.4-0.1,2.2c-0.1,0.8-0.3,1.7-0.4,2.6c-0.5,2.6-1.1,5.1-1.7,7.7
			c-0.5,2.6-1,5.2-1.5,7.8c4.1-0.8,7.9-1.6,11.3-2.4c3.4-0.8,6.3-1.6,9-2.3C999.3,678.2,1002.9,676.6,1005,674.8z M992.5,672.8
			c-3.6,4.3-7.6,3.9-12.7,3.7c0.1-1.6,0.2-3.1,0.4-4.8c0.1-0.9,0.1-1.9,0.2-2.9c0.1-1.1,0.3-2.3,0.5-3.6
			C986.1,668.6,988.9,670.5,992.5,672.8z"/>
		<path fill="#1F1813" d="M1005.3,774.1c-3.3-0.1-6.7-0.2-10-0.3c-5.3-0.3-10.8,0.4-16.1-0.5c-2.6-0.4-5.2-1.2-7.5-2.8
			c-2.3-1.6-4.5-3.8-6.3-7.2c-2.1-4.1-9.7-3.3-12.1,0.5c-2.3,3.6-0.3,10.8,3.7,12.4c2.4,1,5.5,0.2,8.1-0.3
			c5.4-1.2,10.7-0.9,15.8-0.2c2.6,0.4,5.1,0.8,7.6,1.2c2.6,0.4,5.1,0.8,7.7,1.1l0.9,2.4c-4.1,4-7.9,8.1-11.9,12.7
			c-0.5,1.5,0.5,3.2,1.2,5c0.7,1.8,0.9,3.8-1.2,6c-2.6-1.5-5.5-4.5-7.9-4.6c-3.4-0.1-7.6,1.3-9.8,3.8c-0.6,0.7-0.7,2.5-0.3,4.3
			c0.4,1.9,1.1,3.9,2,5.3c2.7,4.5,6.5,2.8,9.6,1c1.5-0.9,2.9-2,4.4-2.9c4.3-2.5,8-2.2,10.8,2.8c1.4,2.3,2.9,4.6,4.4,6.9
			c0.7,1.2,1.5,2.3,2.3,3.4c0.8,1.1,1.6,2.2,2.4,3.4c4.5-4.3,8.4-9.2,11.3-14c1.4-2.4,2.7-4.7,3.6-6.9c0.9-2.2,1.6-4.3,1.8-6.1
			c-1.7,0.4-3.4,0.7-5.1,1.1c-1.7,0.3-3.4,0.7-5.1,1c-3.4,0.6-6.8,1.1-10.2,1.4c-1.9,0.1-3.6-0.1-4.9-0.7c-1.3-0.6-2.3-1.5-2.9-2.6
			c-1.2-2.2-1-5.2,1.3-8.5c2.2-3.1,5.2-5.6,7.7-8.4c1.1-1.2,2.1-2.4,3.1-3.6c1-1.2,2.1-2.5,3.2-3.7L1005.3,774.1z M1003.6,820.7
			c-0.8-0.9-1.4-1.9-2-2.7c-0.6-0.9-1.2-1.7-1.8-2.6c-0.6-0.9-1.2-1.7-1.9-2.7c-0.7-0.9-1.3-2-2-3.1c3-0.4,5.6-0.8,7.9-1.2
			c2.4-0.4,4.5-0.8,6.6-1.2l1.7,2.7C1009.5,813,1006.9,816.3,1003.6,820.7z"/>
	</g>
	<g>
		<path fill="#1F1813" d="M1083.9,537.9c2-3.1,4.2-6.1,6.1-9.3c2.6-4.2,2.1-8.8-1.6-11.5c-2.1-1.6-6.7-1.3-9.8-0.3
			c-1.3,0.4-2.2,1-3,1.7c-0.8,0.7-1.3,1.6-1.7,2.5c-0.8,1.8-0.9,3.9-0.7,6c0.1,1.4,0.9,2.6,1.4,3.9c4.5,11.6,3.6,12.6-8.2,18.5
			c-1.3,0.7-3.3,0.9-4.9,1.7c-1.6,0.8-2.7,2.2-2.3,5.4c4.6,1.9,8.6,5.4,12.8,8.7c2.1,1.6,4.3,3.2,6.6,4.5c2.3,1.3,4.9,2.5,7.6,3.3
			c-0.5-3.5-0.8-6.2-1.2-8.9c-0.5-3.1-1.3-6.1-1.5-9.2c-0.7-9.2,0.6-10.6,9.4-13.6c0.7-0.2,1.3-0.4,1.9-0.5c0.6-0.1,1.1-0.1,1.7,0
			c1,0.1,2,0.4,2.8,0.8c1.7,0.9,3,2.4,4.5,3.8c1.1,1.1,2.1,2.4,3.1,3.7c1,1.3,1.9,2.6,2.9,3.9c2,2.5,4.3,4.6,7.4,5.6
			c0.4-0.4,0.8-0.6,0.9-0.8c0.3-0.9,0.7-1.9,0.8-2.9c1.1-6.4,1.5-13.3,3.2-19.7c0.8-3.2,2-6.3,3.9-9.2c0.9-1.5,2-2.9,3.3-4.2
			c1.3-1.3,2.8-2.5,4.5-3.7c3.8-2.6,1.1-10.5-4.1-13.6c-1.1-0.6-2.3-1-3.7-1.2c-1.3-0.1-2.7,0-4,0.3c-2.6,0.7-4.9,2.2-5.8,4.6
			c-1.2,3-0.1,6.7,0.7,9.9c0.7,2.6,4,5.1,3.6,7.3c-0.4,2.1-0.8,4.2-1.1,6.3c-0.4,2.1-0.7,4.2-1.2,6.4c-0.4,2.1-1,4.2-1.6,6.3
			c-0.6,2.1-1.4,4.1-2.3,6.1c-3.5-1.5-5.8-4-7.8-6.7c-1-1.4-1.9-2.8-2.8-4.2c-0.9-1.4-1.9-2.7-3-3.9c-2.6,0.7-5.1,1.3-7.5,2
			c-2.4,0.8-4.8,1.5-7.2,2.3L1083.9,537.9z M1079.9,563.4l-1.8,1.4c-1.9-1.4-3.7-2.7-5.8-4.1c-2.1-1.4-4.5-3-7.3-4.8
			c2.1-1.3,3.8-2.4,5.5-3.5c1.8-1,3.5-2,5.7-3.3C1077.7,555.3,1078.8,559.4,1079.9,563.4z"/>
		<path fill="#1F1813" d="M1148.7,556.7c1-5.9,2-11.7,3.7-17.3c0.8-2.9,2.7-7.4,4.6-7.7l1.4-0.2l1.4-0.1c0.9,0,1.8-0.1,2.8-0.1
			c1.8,0,3.7,0,5.5,0.1c1.8,0.2,3.7,0.4,5.4,0.7c1.8,0.3,3.5,0.7,5.2,1.4c2.8,1,4.5,6.5,5.4,10.2c1.5,6,1.9,12.4,2.7,20.9
			c4.4-8.1,8-15.8,12.6-22.7c4.6-6.8,10.2-12.4,19-15.3c1.9-0.6,2.8-6.1,2.2-9.3c-0.3-1.8-5.5-4.9-6.9-4.4c-2.7,1-4.2,4.1-5.9,6.6
			c-0.5,0.8-0.1,2.1-0.3,3.1c-1.5,5.4-4.3,9.8-7.5,14c-3.2,4.1-6.6,7.8-9.8,12l-2.1-0.7c-0.4-2.9-0.8-5.7-1.2-8.7
			c-0.5-3-1-6-1.6-9.2c-2.2-0.3-4.3-0.5-6.5-0.8l-1.6-0.2l-1.6-0.1c-1.1-0.1-2.1-0.2-3.2-0.3c-4.4-0.6-8.8-1-14.2-1.5
			c1.1-3,1.2-5,2.3-6.1c2.2-2.3,5.2-3.9,7.6-6.2c3.5-3.1,3.8-7.2,1-10.5c-1.9-2.1-7-4.2-9.1-3.4c-1.5,0.6-2.8,1.8-3.9,3.3
			c-1.1,1.5-1.9,3.1-2.4,4.7c-0.8,2.5,0.8,5.4,1.1,8.2c0.3,3.7-0.1,6.3-1.6,8c-0.7,0.8-1.7,1.5-3,1.9c-1.3,0.4-2.9,0.8-4.8,1
			c-1.3,0.1-2.6,0.3-3.9,0.4c-1.3,0.1-2.6,0.2-3.9,0.4c-2.6,0.3-5.2,0.6-7.9,1c4.1,7.4,7.7,13.4,10.8,17.9
			C1143.7,552.2,1146.3,555.3,1148.7,556.7z M1146.8,544.2c-5.2-2.2-6-6-7.4-11c1.5-0.4,3-0.7,4.7-1.1c0.9-0.2,1.8-0.4,2.9-0.7
			c0.5-0.1,1.1-0.3,1.7-0.4c0.6-0.1,1.2-0.2,1.9-0.3C1148.8,536.6,1147.9,540.1,1146.8,544.2z"/>
		<path fill="#1F1813" d="M1054.4,587.6c-1-3.2-1.8-6.4-2.7-9.6c-1.4-5.1-3.8-10.3-4.6-15.5c-0.8-5.2-0.1-10.8,5.2-16.3
			c1.6-1.7,1.6-4.3,0.7-6.6c-0.9-2.3-2.8-4.3-5-4.8c-4.1-0.9-10.4,2.9-10.6,7.4c-0.1,2.6,1.5,5.3,2.8,7.6c2.8,4.8,4.1,9.8,5.1,14.9
			c1,5.2,1.5,10.3,2.5,15.3c-0.7,0.5-1.3,1.1-2,1.6c-5-2.5-10.1-5-15.8-7.5c-1.5,0-2.8,1.6-4.4,2.7c-1.6,1.2-3.4,2-6.1,0.6
			c0.6-3,2.7-6.5,1.9-8.9c-1-3.3-3.6-6.8-6.6-8.2c-0.9-0.4-2.5,0.1-4.2,1c-1.7,0.9-3.5,2.2-4.5,3.5c-3.4,4-0.7,7,2,9.5
			c1.3,1.2,2.8,2.1,4.1,3.3c1.8,1.6,3,3.4,3.1,5.2c0.1,1.8-0.6,3.8-2.5,6l-2.7,3.1c-0.9,1-1.7,2.1-2.6,3.2c-1.7,2.2-3.4,4.3-5,6.5
			c5.4,3,11.3,5.1,16.8,6.5c2.7,0.7,5.3,1.1,7.7,1.3c1.2,0.1,2.3,0.1,3.4,0.1c1.1,0,2.1-0.1,3-0.3c-1.7-3-3.5-6-5.1-9.1
			c-1.6-3-3.2-6.2-4.5-9.3c-1.4-3.5-1-6.5,0.7-8.4c1.7-1.8,4.8-2.4,8.5-1.4c3.6,1.1,6.9,3.1,10.4,4.7c3,1.3,6,2.5,8.9,3.7
			C1053.2,588.9,1053.8,588.2,1054.4,587.6z M1009.6,600.4c1.4-2,2.6-3.6,3.8-5.3c1.3-1.7,2.7-3.4,4.4-5.5c2.7,5.5,4.7,9.3,6.8,13.1
			c-0.3,0.4-0.7,0.8-1,1.2l-1,1.3C1018.7,603.6,1014.9,602.2,1009.6,600.4z"/>
	</g>
	<g>
		<path fill="#1F1813" d="M1303.2,589.4c1.8,0.4,3.6,0.9,5.4,1.4c1.8,0.5,3.5,1.1,5.3,1.5c4.9,1.1,9.1-0.8,10.5-5.1
			c0.4-1.2,0.2-2.9-0.3-4.6c-0.5-1.7-1.4-3.5-2.4-4.8c-3.3-4.2-7.6-3.6-11.3-2c-1.3,0.5-2.2,1.6-3.3,2.5c-4.8,3.9-7.6,5.8-10.3,5.5
			c-1.3-0.2-2.7-0.9-4.2-2.1c-1.5-1.3-3.4-3-5.7-5.4c-0.5-0.5-1-1.3-1.5-2c-0.5-0.7-1-1.5-1.6-2.1c-1.3-1.2-3-1.9-5.8-0.5
			c-0.5,5.1-2.5,9.9-4.3,14.9c-1.8,5-3.3,10.2-3,15.9c3.2-1.6,5.6-2.6,8-3.8c2.8-1.4,5.4-3.1,8.3-4.3c2.2-0.9,3.9-1.5,5.3-1.8
			c1.5-0.3,2.6-0.3,3.7,0.1c1.1,0.4,2.1,1,3.2,2.1c0.5,0.5,1.1,1.1,1.7,1.9c0.6,0.7,1.2,1.6,1.9,2.5c1.7,2.3,2,4.3,1.7,6.1
			c-0.3,1.9-1.3,3.6-2.3,5.5c-1.5,2.8-3.6,5.4-5.3,8.1c-0.9,1.3-1.6,2.7-2.1,4.1c-0.6,1.5-0.9,3-0.9,4.7c0.5,0.3,0.8,0.6,1.1,0.6
			c1,0,2,0,3-0.1c1.6-0.2,3.3-0.5,4.9-0.8c1.7-0.3,3.3-0.6,4.9-0.9c3.3-0.6,6.6-1.1,9.9-1.4c3.3-0.2,6.7-0.1,10,0.8
			c1.7,0.4,3.3,1,5,1.8c1.7,0.8,3.4,1.8,5,3.1c3.6,2.9,10.3-2.2,11.7-8.2c1-4.8-2.6-11.3-7.8-11.6c-3.2-0.2-6.4,1.9-9.1,3.7
			c-2.2,1.5-3.6,5.4-5.8,5.7c-4.2,0.5-8.5,1.3-12.7,1.7c-1.1,0.1-2.1,0.2-3.2,0.3c-1.1,0.1-2.2,0.1-3.3,0.2c-2.2,0-4.4,0-6.6-0.3
			c0.4-3.8,2-6.8,4-9.4c2-2.7,4.3-5.1,5.8-8c-0.7-1.1-1.3-2.3-2.1-3.3c-0.7-1.1-1.4-2.1-2.2-3.2c-0.7-1.1-1.4-2.1-2.1-3.1
			c-0.7-1-1.5-2-2.2-3L1303.2,589.4z M1277.8,593.4l-2-1.3c0.7-2.2,1.4-4.4,2.2-6.8c0.4-1.2,0.7-2.5,1.2-3.9
			c0.4-1.4,0.8-2.9,1.2-4.5c2,1.5,3.5,2.9,5,4.2c1.5,1.3,3.1,2.6,4.9,4.4C1284.9,588.8,1281.4,591.1,1277.8,593.4z"/>
		<path fill="#1F1813" d="M1305.6,656.8c5.9-0.8,11.8-1.8,17.6-1.9c3-0.1,7.9,0.3,8.6,2c1.6,3.3,2.7,6.8,3.7,10.4
			c0.5,1.8,0.8,3.6,1,5.4c0.2,1.8,0.4,3.6,0.3,5.4c-0.1,3-4.8,6.3-8.1,8.3c-5.2,3.2-11.1,5.6-19,8.9c4.5,0.8,8.9,1.5,13.2,2.3
			c4.2,0.8,8.3,1.6,12.3,2.7c3.9,1.1,7.7,2.6,11.2,4.7c3.4,2.1,6.5,4.9,9.2,8.7c1.2,1.6,6.7,0.8,9.5-0.7c1.6-0.8,3-6.8,2.1-7.9
			c-0.9-1.1-2.2-1.8-3.7-2.3c-1.4-0.5-3-0.8-4.4-1.3c-0.9-0.3-2,0.6-3,0.6c-5.6,0.2-10.7-1.1-15.5-2.8c-2.4-0.9-4.8-1.9-7.2-2.8
			c-2.4-1-4.8-1.9-7.2-2.8l0-2.2c2.6-1.2,5.2-2.5,7.9-3.8c2.6-1.3,5.3-2.8,8.2-4.3c-0.4-2.2-0.8-4.3-1.2-6.4c-0.5-2.1-1-4.2-1.4-6.3
			c-0.2-1.1-0.4-2.2-0.6-3.3c-0.2-1.1-0.5-2.2-0.7-3.4c-0.5-2.3-0.9-4.7-1.6-7.3c3.3,0.1,5.1-0.4,6.6,0.3c2.8,1.4,5.3,3.8,8.1,5.4
			c2,1.2,4.1,1.5,5.9,1.1c1.8-0.4,3.4-1.6,4.4-3.4c1.4-2.4,1.9-8,0.4-9.7c-2.1-2.5-6.3-3.6-9.5-3.5c-2.6,0-4.9,2.5-7.5,3.6
			c-3.4,1.5-6,1.8-8.1,0.9c-2-0.9-3.7-3-5.2-6.5c-0.5-1.2-1-2.4-1.5-3.6c-0.5-1.2-1.1-2.4-1.6-3.6c-0.5-1.2-1.1-2.4-1.6-3.6
			c-0.5-1.2-1.2-2.4-1.8-3.6c-2.9,3.1-5.3,5.9-7.7,8.6c-2.3,2.6-4.3,5-6,7.2c-1.7,2.2-3,4.1-4,5.9
			C1306.6,653.9,1305.9,655.4,1305.6,656.8z M1316.8,651.1c0.1-1.4,0.4-2.6,0.9-3.6c0.4-1,1-1.9,1.7-2.6c1.4-1.5,3.3-2.7,5.5-4.1
			c1.8,2.6,3.1,5.1,5.9,9.8C1324.6,650.7,1321,650.9,1316.8,651.1z"/>
		<path fill="#1F1813" d="M1247,576.6c2.7-1.9,5.5-3.8,8.3-5.6c4.4-2.9,8.5-6.7,13.3-9.1c4.8-2.4,10.2-3.3,17.1,0
			c4.1,2.1,9.8-3.1,9.5-7.5c-0.3-4.3-6.1-8.9-10.3-7.8c-2.5,0.6-4.6,3-6.3,5c-3.7,4.2-8.1,7-12.7,9.5c-2.3,1.2-4.6,2.3-6.9,3.5
			c-2.3,1.2-4.6,2.4-6.9,3.6l-2.1-1.5c0.2-1.4,0.4-2.8,0.7-4.2c0.2-1.4,0.4-2.8,0.6-4.2c0.4-2.9,0.7-5.8,1-8.9
			c-0.2-0.7-0.8-1.3-1.5-1.8c-0.7-0.5-1.6-1-2.4-1.5c-1.6-1.1-3-2.5-2.5-5.6c3-0.3,7.1,0.4,9.1-1c2.8-2,5.4-5.5,5.7-8.8
			c0.1-0.9-0.9-2.4-2.3-3.7c-1.4-1.3-3.2-2.5-4.7-3.1c-1.2-0.5-2.2-0.7-3.1-0.6c-0.9,0.1-1.7,0.5-2.3,1c-1.3,1.1-2.2,2.8-2.9,4.4
			c-0.7,1.6-1.1,3.3-1.9,4.9c-2,4.5-5.2,6.5-10.4,4c-2.5-1-5.1-2-7.6-3c-1.3-0.5-2.6-0.9-3.9-1.4c-1.3-0.4-2.6-0.9-3.9-1.3
			c-1.2,6.1-1.4,12.4-1,18c0.1,1.4,0.3,2.7,0.5,4c0.2,1.3,0.4,2.6,0.7,3.7c0.5,2.3,1.2,4.4,2.1,6c1.2-1.3,2.4-2.6,3.5-3.9
			c1.2-1.3,2.3-2.5,3.5-3.8c2.4-2.5,4.8-4.9,7.5-7.1c1.5-1.2,2.9-2,4.3-2.3c1.4-0.3,2.7-0.1,3.8,0.4c1.1,0.5,2.1,1.5,2.8,2.7
			c0.7,1.3,1.1,2.9,1.2,4.8c0.1,3.8-0.9,7.6-1.3,11.4c-0.3,3.2-0.4,6.4-0.8,9.6L1247,576.6z M1220.9,537.9c0.6,0.2,1.1,0.3,1.7,0.5
			c0.5,0.2,1.1,0.4,1.6,0.5c1,0.4,2,0.7,3,1c2,0.7,4.1,1.3,6.6,2.4c-2.2,2.1-4,3.9-5.7,5.6c-1.7,1.7-3.2,3.3-4.6,4.9l-3-1.2
			C1220.7,547.6,1220.9,543.4,1220.9,537.9z"/>
	</g>
</g>
<g>
	<g>
		<g>
			<path fill="#210E14" d="M717.4,946.1c0.5,0,0.9,0.4,0.9,0.4l-7.5,16c-0.8,0-2.8,0.1-3.3,0.1c-0.5,0-0.9-0.4-0.9-0.4l-2.6-16
				c1.6,0,3.5-0.1,4.1-0.1c0.5,0,0.9,0.4,0.9,0.4l0.8,7.8c0.1,0.7,0.1,1.6,0,2.6c0.3-1.1,0.5-2.1,0.8-2.8l3.1-7.9
				C715.1,946.2,716.8,946.1,717.4,946.1L717.4,946.1z"/>
		</g>
		<g>
			<path fill="#210E14" d="M725.1,954c0,1.7-1,2.9-3.4,3.4l-2.5,0.5c0.2,1.1,0.9,1.6,2,1.6c1.4,0,2.3-1.1,2.3-1.1s0.7,0.4,0.7,1.2
				c0,1.5-2.2,3-4.8,3c-2.6,0-4.4-1.7-4.4-4.5c0-3.2,2.3-7.6,6.4-7.6C723.7,950.7,725.1,952,725.1,954L725.1,954z M720.8,955.7
				c0.5-0.2,0.7-0.6,0.7-1.1c0-0.5-0.2-1.2-0.7-1.2c-1,0-1.5,1.6-1.6,2.9L720.8,955.7z"/>
		</g>
		<g>
			<path fill="#210E14" d="M732,950.7c2.1,0,3.6,1.1,3.6,2.5c0,1.8-2.2,2.4-2.2,2.4s-0.6-1.9-2.1-1.9c-1,0-1.5,1-1.5,3.1
				c0,1.9,0.5,2.8,1.8,2.8c1.3,0,2.1-0.9,2.1-0.9s0.7,0.4,0.7,1.2c0,1.4-2.1,2.9-4.6,2.9c-2.7,0-4.3-1.7-4.3-4.4
				C725.5,955.1,727.8,950.7,732,950.7L732,950.7z"/>
		</g>
		<g>
			<path fill="#210E14" d="M741.9,948.1c0.5,0,0.8,0.4,0.8,0.4l-0.4,2.4h2.6l-0.6,1.9c-0.2,0.6-0.5,0.9-1.1,0.9h-1.4l-0.8,4.8
				c-0.1,0.8,0,1.1,0.6,1.1c0.5,0,0.9-0.3,0.9-0.3s0.7,0.4,0.7,1.2c0,1.2-1.7,2.3-3.8,2.3c-2.2,0-3.1-1.4-2.8-3.8l0.8-5.3h-1.4
				l0.6-1.9c0.2-0.5,0.6-0.9,1.1-0.9h0.7l0.8-2.3C740.5,948.4,741.4,948.1,741.9,948.1L741.9,948.1z"/>
		</g>
		<g>
			<path fill="#210E14" d="M754.5,954c0,1.7-1,2.9-3.4,3.4l-2.5,0.5c0.2,1.1,0.9,1.6,2,1.6c1.4,0,2.3-1.1,2.3-1.1s0.7,0.4,0.7,1.2
				c0,1.5-2.2,3-4.8,3c-2.6,0-4.4-1.7-4.4-4.5c0-3.2,2.3-7.6,6.4-7.6C753.1,950.7,754.5,952,754.5,954L754.5,954z M750.2,955.7
				c0.5-0.2,0.7-0.6,0.7-1.1c0-0.5-0.2-1.2-0.7-1.2c-1,0-1.5,1.6-1.6,2.9L750.2,955.7z"/>
		</g>
		<g>
			<path fill="#210E14" d="M764.9,954c0,1.7-1,2.9-3.4,3.4l-2.5,0.5c0.2,1.1,0.9,1.6,2,1.6c1.4,0,2.3-1.1,2.3-1.1s0.7,0.4,0.7,1.2
				c0,1.5-2.2,3-4.8,3c-2.6,0-4.4-1.7-4.4-4.5c0-3.2,2.3-7.6,6.4-7.6C763.5,950.7,764.9,952,764.9,954L764.9,954z M760.6,955.7
				c0.5-0.2,0.7-0.6,0.7-1.1c0-0.5-0.2-1.2-0.7-1.2c-1,0-1.5,1.6-1.6,2.9L760.6,955.7z"/>
		</g>
		<g>
			<path fill="#210E14" d="M773.4,958.4c0,0,0.9,0.8,0.9,2.1c0,1.8-1.5,2.3-2.8,2.3c-1.7,0-2.9-0.8-4.1-1.2c-0.3,0.4-0.7,0.8-1,1.2
				c0,0-1.9,0-1.9-1.3c0-1.5,2.6-4.2,5.4-7.2c-0.3-0.1-0.6-0.1-0.9-0.1c-1.6,0-2.2,0.8-2.2,0.8s-0.8-0.9-0.7-2.1
				c0.1-1.7,1.7-2.1,3-2.1c1.3,0,2.3,0.5,3.3,0.9l0.8-0.9c0,0,1.9,0.1,1.9,1.3c0,1.5-2.5,4.1-5.2,7c0.6,0.2,1.1,0.3,1.6,0.3
				C772.7,959.3,773.4,958.4,773.4,958.4L773.4,958.4z"/>
		</g>
		<g>
			<path fill="#210E14" d="M785.5,961.8c-0.7,4.1-3.5,6.2-7,6.2c-2.3,0-3.9-1.2-3.9-2.6c0-0.9,0.8-1.3,0.8-1.3s0.8,0.7,2.3,0.7
				c1.4,0,3.3-0.6,3.7-2.8l0.3-1.7c-1,1.4-2.2,2.5-3.8,2.5c-1.8,0-2.6-1.5-2.1-4.5l0.5-3.2c0.3-2,0.4-3.6,0.4-3.6
				c1.3-0.2,3-0.8,3.6-0.8c0.5,0,0.9,0.4,0.9,0.4l-0.6,4l-0.6,3.7c-0.1,0.3,0,0.5,0.3,0.5c1.5,0,2.3-4.3,2.3-4.3
				c0.3-2,0.4-3.6,0.4-3.6c1.3-0.2,3-0.8,3.6-0.8c0.5,0,0.9,0.4,0.9,0.4l-0.6,4L785.5,961.8z"/>
		</g>
	</g>
	<g>
		<path fill="#210E14" d="M612.8,951.3h4c0.9,0,1.6,0.1,2.1,0.2c0.6,0.2,1.2,0.5,1.6,1c0.5,0.5,0.8,1.1,1,1.8
			c0.2,0.7,0.4,1.6,0.4,2.6c0,0.9-0.1,1.7-0.3,2.3c-0.3,0.8-0.7,1.4-1.2,1.9c-0.4,0.4-0.9,0.7-1.5,0.9c-0.5,0.2-1.1,0.2-1.9,0.2
			h-4.1V951.3z M615,953.2v7.2h1.6c0.6,0,1.1,0,1.3-0.1c0.4-0.1,0.7-0.2,0.9-0.5c0.2-0.2,0.4-0.6,0.6-1c0.1-0.5,0.2-1.1,0.2-2
			c0-0.8-0.1-1.5-0.2-1.9s-0.4-0.8-0.6-1.1c-0.3-0.3-0.6-0.4-1-0.5c-0.3-0.1-0.9-0.1-1.8-0.1H615z"/>
		<path fill="#210E14" d="M628,959.7l2.1,0.3c-0.3,0.8-0.7,1.3-1.3,1.7c-0.6,0.4-1.3,0.6-2.2,0.6c-1.4,0-2.4-0.4-3-1.3
			c-0.5-0.7-0.8-1.6-0.8-2.7c0-1.3,0.3-2.3,1-3.1c0.7-0.7,1.5-1.1,2.6-1.1c1.2,0,2.1,0.4,2.8,1.2c0.7,0.8,1,2,1,3.6H625
			c0,0.6,0.2,1.1,0.5,1.4c0.3,0.3,0.7,0.5,1.2,0.5c0.3,0,0.6-0.1,0.8-0.3C627.8,960.4,627.9,960.1,628,959.7z M628.2,957.6
			c0-0.6-0.2-1.1-0.5-1.4c-0.3-0.3-0.7-0.5-1.1-0.5c-0.5,0-0.8,0.2-1.1,0.5c-0.3,0.3-0.4,0.8-0.4,1.3H628.2z"/>
		<path fill="#210E14" d="M630.9,959.9l2.1-0.3c0.1,0.4,0.3,0.7,0.5,0.9c0.3,0.2,0.7,0.3,1.1,0.3c0.5,0,0.9-0.1,1.2-0.3
			c0.2-0.1,0.3-0.3,0.3-0.6c0-0.2,0-0.3-0.1-0.4c-0.1-0.1-0.3-0.2-0.7-0.3c-1.7-0.4-2.7-0.7-3.2-1c-0.6-0.4-0.9-1-0.9-1.8
			c0-0.7,0.3-1.3,0.8-1.7c0.5-0.5,1.4-0.7,2.5-0.7c1.1,0,1.9,0.2,2.4,0.5c0.5,0.4,0.9,0.9,1.1,1.6l-2,0.4c-0.1-0.3-0.2-0.5-0.5-0.7
			c-0.2-0.2-0.6-0.2-1-0.2c-0.5,0-0.9,0.1-1.2,0.2c-0.2,0.1-0.2,0.2-0.2,0.4c0,0.1,0.1,0.3,0.2,0.4c0.2,0.1,0.8,0.3,1.9,0.6
			c1.1,0.3,1.9,0.6,2.3,0.9c0.4,0.4,0.7,0.9,0.7,1.5c0,0.7-0.3,1.3-0.9,1.9c-0.6,0.5-1.5,0.8-2.7,0.8c-1.1,0-1.9-0.2-2.5-0.7
			C631.5,961.3,631.1,960.7,630.9,959.9z"/>
		<path fill="#210E14" d="M639.8,953.2v-1.9h2.1v1.9H639.8z M639.8,962.2v-7.9h2.1v7.9H639.8z"/>
		<path fill="#210E14" d="M643.5,962.7l2.4,0.3c0,0.3,0.1,0.5,0.3,0.6c0.2,0.1,0.5,0.2,0.9,0.2c0.5,0,1-0.1,1.2-0.2
			c0.2-0.1,0.3-0.3,0.4-0.5c0.1-0.2,0.1-0.5,0.1-1v-1.1c-0.6,0.8-1.4,1.3-2.4,1.3c-1.1,0-1.9-0.4-2.5-1.3c-0.5-0.7-0.7-1.6-0.7-2.6
			c0-1.3,0.3-2.3,1-3c0.6-0.7,1.4-1,2.4-1c1,0,1.8,0.4,2.4,1.3v-1.1h1.9v7.1c0,0.9-0.1,1.6-0.2,2.1c-0.2,0.5-0.4,0.8-0.6,1.1
			c-0.3,0.3-0.6,0.5-1.1,0.6c-0.5,0.1-1,0.2-1.8,0.2c-1.3,0-2.3-0.2-2.8-0.7c-0.6-0.5-0.8-1-0.8-1.7
			C643.5,962.9,643.5,962.8,643.5,962.7z M645.3,958.1c0,0.8,0.2,1.4,0.5,1.8c0.3,0.4,0.7,0.6,1.2,0.6c0.5,0,0.9-0.2,1.3-0.6
			c0.4-0.4,0.5-1,0.5-1.8c0-0.8-0.2-1.4-0.5-1.8c-0.3-0.4-0.8-0.6-1.3-0.6c-0.5,0-0.9,0.2-1.2,0.6S645.3,957.3,645.3,958.1z"/>
		<path fill="#210E14" d="M659.8,962.2h-2.1v-4c0-0.8,0-1.4-0.1-1.6c-0.1-0.2-0.2-0.4-0.4-0.6c-0.2-0.1-0.4-0.2-0.7-0.2
			c-0.4,0-0.7,0.1-1,0.3c-0.3,0.2-0.5,0.5-0.6,0.8s-0.2,0.9-0.2,1.8v3.6h-2.1v-7.9h1.9v1.2c0.7-0.9,1.6-1.3,2.6-1.3
			c0.5,0,0.9,0.1,1.3,0.2c0.4,0.2,0.7,0.4,0.9,0.6c0.2,0.3,0.3,0.5,0.4,0.9c0.1,0.3,0.1,0.8,0.1,1.4V962.2z"/>
		<path fill="#210E14" d="M666.2,959.7l2.1,0.3c-0.3,0.8-0.7,1.3-1.3,1.7c-0.6,0.4-1.3,0.6-2.2,0.6c-1.4,0-2.4-0.4-3-1.3
			c-0.5-0.7-0.8-1.6-0.8-2.7c0-1.3,0.3-2.3,1-3.1s1.5-1.1,2.6-1.1c1.2,0,2.1,0.4,2.8,1.2c0.7,0.8,1,2,1,3.6h-5.2
			c0,0.6,0.2,1.1,0.5,1.4c0.3,0.3,0.7,0.5,1.2,0.5c0.3,0,0.6-0.1,0.8-0.3C665.9,960.4,666,960.1,666.2,959.7z M666.3,957.6
			c0-0.6-0.2-1.1-0.5-1.4c-0.3-0.3-0.7-0.5-1.1-0.5c-0.5,0-0.8,0.2-1.1,0.5c-0.3,0.3-0.4,0.8-0.4,1.3H666.3z"/>
		<path fill="#210E14" d="M677,962.2H675V961c-0.3,0.4-0.7,0.8-1.1,1c-0.4,0.2-0.9,0.3-1.3,0.3c-0.9,0-1.7-0.4-2.3-1.1
			c-0.6-0.7-1-1.7-1-3c0-1.3,0.3-2.3,0.9-3c0.6-0.7,1.4-1,2.4-1c0.9,0,1.6,0.4,2.3,1.1v-3.9h2.1V962.2z M671.4,958.1
			c0,0.8,0.1,1.4,0.3,1.8c0.3,0.5,0.8,0.8,1.4,0.8c0.5,0,0.9-0.2,1.2-0.6c0.3-0.4,0.5-1,0.5-1.8c0-0.9-0.2-1.6-0.5-2
			c-0.3-0.4-0.7-0.6-1.3-0.6c-0.5,0-0.9,0.2-1.2,0.6C671.6,956.7,671.4,957.3,671.4,958.1z"/>
		<path fill="#210E14" d="M682.5,962.2v-10.9h2.1v3.9c0.6-0.7,1.4-1.1,2.3-1.1c1,0,1.8,0.3,2.4,1c0.6,0.7,0.9,1.7,0.9,3
			c0,1.3-0.3,2.4-1,3.1c-0.6,0.7-1.4,1.1-2.3,1.1c-0.4,0-0.9-0.1-1.3-0.3c-0.4-0.2-0.8-0.6-1.1-1v1.2H682.5z M684.6,958.1
			c0,0.8,0.1,1.4,0.4,1.8c0.4,0.6,0.8,0.8,1.4,0.8c0.5,0,0.9-0.2,1.2-0.6c0.3-0.4,0.5-1,0.5-1.9c0-0.9-0.2-1.5-0.5-1.9
			s-0.7-0.6-1.3-0.6c-0.5,0-0.9,0.2-1.2,0.6S684.6,957.3,684.6,958.1z"/>
		<path fill="#210E14" d="M690.6,954.3h2.2l1.9,5.6l1.8-5.6h2.2l-2.8,7.6l-0.5,1.4c-0.2,0.5-0.4,0.8-0.5,1.1s-0.4,0.4-0.6,0.6
			c-0.2,0.2-0.5,0.3-0.8,0.4c-0.3,0.1-0.7,0.1-1.1,0.1c-0.4,0-0.8,0-1.2-0.1l-0.2-1.6c0.3,0.1,0.6,0.1,0.9,0.1
			c0.5,0,0.8-0.1,1.1-0.4c0.2-0.3,0.4-0.6,0.5-1.1L690.6,954.3z"/>
	</g>
</g>
</svg>
